<mxfile host="app.diagrams.net" agent="Mozilla/5.0 (Macintosh; Intel Mac OS X 10.15; rv:143.0) Gecko/20100101 Firefox/143.0" version="28.2.5">
  <diagram name="Page-1" id="15Wb_cU2p1Q8Iboe-zyd">
    <mxGraphModel dx="3876" dy="2656" grid="1" gridSize="10" guides="1" tooltips="1" connect="1" arrows="1" fold="1" page="1" pageScale="1" pageWidth="850" pageHeight="1100" math="0" shadow="0">
      <root>
        <mxCell id="0" />
        <mxCell id="1" parent="0" />
        <mxCell id="0Z_29NWZbNLmMxx830fi-1" value="" style="shape=image;verticalLabelPosition=bottom;labelBackgroundColor=default;verticalAlign=top;aspect=fixed;imageAspect=0;image=data:image/png,iVBORw0KGgoAAAANSUhEUgAAC9AAAAT6CAIAAACIn/0kAAAACXBIWXMAAAsTAAALEwEAmpwYAAAgAElEQVR4nOzcwW2AMBBFQRzRBf2XRh1OA0bKO5mImQr2vHr6Y877AAAAAIA/G+M6jsNbCQAAAPisn90HAAAAAAAAAADAfyK4AQAAAAAAAACAQHADAAAAAAAAAACB4AYAAAAAAAAAAALBDQAAAAAAAAAABIIbAAAAAAAAAAAIBDcAAAAAAAAAABAIbgAAAAAAAAAAIBDcAAAAAAAAAABAcO4+AAAAAICFMa7dJwAAAACwZuEGAAAAAAAAAAACCzcAAAAAbzTnvfuER9Z3AAAAgI+zcAMAAAAAAAAAAIHgBgAAAAAAAAAAAsENAAAAAAAAAAAEghsAAAAAAAAAAAgENwAAAAAAAAAAEAhuAAAAAAAAAAAgENwAAAAAAAAAAEAguAEAAAAAAAAAgEBwAwAAAAAAAAAAgeAGAAAAAAAAAAACwQ0AAAAAAAAAAASCGwAAAAAAAAAACAQ3AAAAAAAAAAAQCG4AAAAAAAAAACAQ3AAAAAAAAAAAQCC4AQAAAAAAAACAQHADAAAAAAAAAACB4AYAAAAAAAAAAALBDQAAAAAAAAAABIIbAAAAAAAAAAAIBDcAAAAAAAAAABAIbgAAAAAAAAAAIBDcAAAAAAAAAABAILgBAAAAAAAAAIBAcAMAAAAAAAAAAIHgBgAAAAAAAAAAAsENAAAAAAAAAAAEghsAAAAAAAAAAAgENwAAAAAAAAAAEAhuAAAAAAAAAAAgENwAAAAAAAAAAEAguAEAAAAAAAAAgEBwAwAAAAAAAAAAgeAGAAAAAAAAAAACwQ0AAAAAAAAAAASCGwAAAAAAAAAACAQ3AAAAAAAAAAAQCG4AAAAAAAAAACAQ3AAAAAAAAAAAQCC4AQAAAAAAAACAQHADAAAAAAAAAACB4AYAAAAAAAAAAALBDQAAAAAAAAAABIIbAAAAAAAAAAAIBDcAAAAAAAAAABAIbgAAAAAAAAAAIBDcAAAAAAAAAABAILgBAAAAAAAAAIBAcAMAAAAAAAAAAIHgBgAAAAAAAAAAAsENAAAAAAAAAAAEghsAAAAAAAAAAAgENwAAAAAAAAAAEAhuAAAAAAAAAAAgENwAAAAAAAAAAEAguAEAAAAAAAAAgEBwAwAAAAAAAAAAgeAGAAAAAAAAAAACwQ0AAAAAAAAAAASCGwAAAAAAAAAACAQ3AAAAAAAAAAAQCG4AAAAAAAAAACAQ3AAAAAAAAAAAQCC4AQAAAAAAAACAQHADAAAAAAAAAACB4AYAAAAAAAAAAALBDQAAAAAAAAAABIIbAAAAAAAAAAAIBDcAAAAAAAAAABAIbgAAAAAAAAAAIBDcAAAAAAAAAABAILgBAAAAAAAAAIBAcAMAAAAAAAAAAIHgBgAAAAAAAAAAAsENAAAAAAAAAAAEghsAAAAAAAAAAAgENwAAAAAAAAAAEAhuAAAAAAAAAAAgENwAAAAAAAAAAEAguAEAAAAAAAAAgEBwAwAAAAAAAAAAgeAGAAAAAAAAAAACwQ0AAAAAAAAAAATn7gMAAAAAWBjj2n0CAAAAAGsWbgAAAAAAAAAAILBwAwAAAPBGc967T3hkfQcAAAD4OAs3AAAAAAAAAAAQCG4AAAAAAAAAACAQ3AAAAAAAAAAAQCC4AQAAAAAAAACAQHADAAAAAAAAAACB4AYAAAAAAAAAAALBDQAAAAAAAAAABIIbAAAAAAAAAAAIBDcAAAAAAAAAABAIbgAAAAAAAAAAIBDcAAAAAAAAAABAILgBAAAAAAAAAIBAcAMAAAAAAAAAAIHgBgAAAAAAAAAAAsENAAAAAAAAAAAEghsAAAAAAAAAAAgENwAAAAAAAAAAEAhuAAAAAAAAAAAgENwAAAAAAAAAAEAguAEAAAAAAAAAgEBwAwAAAAAAAAAAgeAGAAAAAAAAAAACwQ0AAAAAAAAAAASCGwAAAAAAAAAACAQ3AAAAAAAAAAAQCG4AAAAAAAAAACAQ3AAAAAAAAAAAQCC4AQAAAAAAAACAQHADAAAAAAAAAACB4AYAAAAAAAAAAALBDQAAAAAAAAAABIIbAAAAAAAAAAAIBDcAAAAAAAAAABAIbgAAAAAAAAAAIBDcAAAAAAAAAABAILgBAAAAAAAAAIBAcAMAAAAAAAAAAIHgBgAAAAAAAAAAAsENAAAAAAAAAAAEghsAAAAAAAAAAAgENwAAAAAAAAAAEAhuAAAAAAAAAAAgENwAAAAAAAAAAEAguAEAAAAAAAAAgEBwAwAAAAAAAAAAgeAGAAAAAAAAAAACwQ0AAAAAAAAAAASCGwAAAAAAAAAACAQ3AAAAAAAAAAAQCG4AAAAAAAAAACAQ3AAAAAAAAAAAQCC4AQAAAAAAAACAQHADAAAAAAAAAACB4AYAAAAAAAAAAALBDQAAAAAAAAAABIIbAAAAAAAAAAAIBDcAAAAAAAAAABAIbgAAAAAAAAAAIBDcAAAAAAAAAABAILgBAAAAAAAAAIBAcAMAAAAAAAAAAIHgBgAAAAAAAAAAAsENAAAAAAAAAAAEghsAAAAAAAAAAAgENwAAAAAAAAAAEAhuAAAAAAAAAAAgENwAAAAAAAAAAEAguAEAAAAAAAAAgEBwAwAAAAAAAAAAgeAGAAAAAAAAAAACwQ0AAAAAAAAAAASCGwAAAAAAAAAACAQ3AAAAAAAAAAAQCG4AAAAAAAAAACAQ3AAAAAAAAAAAQCC4AQAAAAAAAACAQHADAAAAAAAAAACB4AYAAAAAAAAAAALBDQAAAAAAAAAABIIbAAAAAAAAAAAIBDcAAAAAAAAAABAIbgAAAAAAAAAAIBDcAAAAAAAAAABAcO4+AAAAAICFMa7dJwAAAACwZuEGAAAAAAAAAAACCzcAAAAAbzTnvfuER9Z3AAAAgI+zcAMAAAAAAAAAAIHgBgAAAAAAAAAAAsENAAAAAAAAAAAEghsAAAAAAAAAAAgENwAAAAAAAAAAEAhuAAAAAAAAAAAgENwAAAAAAAAAAEAguAEAAAAAAAAAgEBwAwAAAAAAAAAAgeAGAAAAAAAAAAACwQ0AAAAAAAAAAASCGwAAAAAAAAAACAQ3AAAAAAAAAAAQCG4AAAAAAAAAACAQ3AAAAAAAAAAAQCC4AQAAAAAAAACAQHADAAAAAAAAAACB4AYAAAAAAAAAAALBDQAAAAAAAAAABIIbAAAAAAAAAAAIBDcAAAAAAAAAABAIbgAAAAAAAAAAIBDcAAAAAAAAAABAILgBAAAAAAAAAIBAcAMAAAAAAAAAAIHgBgAAAAAAAAAAAsENAAAAAAAAAAAEghsAAAAAAAAAAAgENwAAAAAAAAAAEAhuAAAAAAAAAAAgENwAAAAAAAAAAEAguAEAAAAAAAAAgEBwAwAAAAAAAAAAgeAGAAAAAAAAAAACwQ0AAAAAAAAAAASCGwAAAAAAAAAACAQ3AAAAAAAAAAAQCG4AAAAAAAAAACAQ3AAAAAAAAAAAQCC4AQAAAAAAAACAQHADAAAAAAAAAACB4AYAAAAAAAAAAALBDQAAAAAAAAAABIIbAAAAAAAAAAAIBDcAAAAAAAAAABAIbgAAAAAAAAAAIBDcAAAAAAAAAABAILgBAAAAAAAAAIBAcAMAAAAAAAAAAIHgBgAAAAAAAAAAAsENAAAAAAAAAAAEghsAAAAAAAAAAAgENwAAAAAAAAAAEAhuAAAAAAAAAAAgENwAAAAAAAAAAEAguAEAAAAAAAAAgEBwAwAAAAAAAAAAgeAGAAAAAAAAAAACwQ0AAAAAAAAAAASCGwAAAAAAAAAACAQ3AAAAAAAAAAAQCG4AAAAAAAAAACAQ3AAAAAAAAAAAQCC4AQAAAAAAAACAQHADAAAAAAAAAACB4AYAAAAAAAAAAALBDQAAAAAAAAAABIIbAAAAAAAAAAAIBDcAAAAAAAAAABAIbgAAAAAAAAAAIBDcAAAAAAAAAABAILgBAAAAAAAAAIBAcAMAAAAAAAAAAIHgBgAAAAAAAAAAAsENAAAAAAAAAAAEghsAAAAAAAAAAAgENwAAAAAAAAAAEAhuAAAAAAAAAAAgENwAAAAAAAAAAEAguAEAAAAAAAAAgEBwAwAAAAAAAAAAgeAGAAAAAAAAAACCc/cBAAAAACyMce0+AQAAAIA1CzcAAAAAAAAAABBYuAEAAAB4oznv3Sc8sr4DAAAAfJyFGwAAAAAAAAAACAQ3AAAAAAAAAAAQCG4AAAAAAAAAACAQ3AAAAAAAAAAAQCC4AQAAAAAAAACAQHADAAAAAAAAAACB4AYAAAAAAAAAAALBDQAAAAAAAAAABIIbAAAAAAAAAAAIBDcAAAAAAAAAABAIbgAAAAAAAAAAIBDcAAAAAAAAAABAILgBAAAAAAAAAIBAcAMAAAAAAAAAAIHgBgAAAAAAAAAAAsENAAAAAAAAAAAEghsAAAAAAAAAAAgENwAAAAAAAAAAEAhuAAAAAAAAAAAgENwAAAAAAAAAAEAguAEAAAAAAAAAgEBwAwAAAAAAAAAAgeAGAAAAAAAAAAACwQ0AAAAAAAAAAASCGwAAAAAAAAAACAQ3AAAAAAAAAAAQCG4AAAAAAAAAACAQ3AAAAAAAAAAAQCC4AQAAAAAAAACAQHADAAAAAAAAAACB4AYAAAAAAAAAAALBDQAAAAAAAAAABIIbAAAAAAAAAAAIBDcAAAAAAAAAABAIbgAAAAAAAAAAIBDcAAAAAAAAAABAILgBAAAAAAAAAIBAcAMAAAAAAAAAAIHgBgAAAAAAAAAAAsENAAAAAAAAAAAEghsAAAAAAAAAAAgENwAAAAAAAAAAEAhuAAAAAAAAAAAgENwAAAAAAAAAAEAguAEAAAAAAAAAgEBwAwAAAAAAAAAAgeAGAAAAAAAAAAACwQ0AAAAAAAAAAASCGwAAAAAAAAAACAQ3AAAAAAAAAAAQCG4AAAAAAAAAACAQ3AAAAAAAAAAAQCC4AQAAAAAAAACAQHADAAAAAAAAAACB4AYAAAAAAAAAAALBDQAAAAAAAAAABIIbAAAAAAAAAAAIBDcAAAAAAAAAABAIbgAAAAAAAAAAIBDcAAAAAAAAAABAILgBAAAAAAAAAIBAcAMAAAAAAAAAAIHgBgAAAAAAAAAAAsENAAAAAAAAAAAEghsAAAAAAAAAAAgENwAAAAAAAAAAEAhuAAAAAAAAAAAgENwAAAAAAAAAAEAguAEAAAAAAAAAgEBwAwAAAAAAAAAAgeAGAAAAAAAAAAACwQ0AAAAAAAAAAASCGwAAAAAAAAAACAQ3AAAAAAAAAAAQCG4AAAAAAAAAACAQ3AAAAAAAAAAAQCC4AQAAAAAAAACAQHADAAAAAAAAAACB4AYAAAAAAAAAAALBDQAAAAAAAAAABIIbAAAAAAAAAAAIBDcAAAAAAAAAABAIbgAAAAAAAAAAIDh3HwAAAADAwhjX7hMAAAAAWLNwAwAAAAAAAAAAgYUbAAAAgDea8959wiPrOwAAAMDHWbgBAAAAAAAAAIBAcAMAAAAAAAAAAIHgBgAAAAAAAAAAAsENAAAAAAAAAAAEghsAAAAAAAAAAAgENwAAAAAAAAAAEAhuAAAAAAAAAAAgENwAAAAAAAAAAEAguAEAAAAAAAAAgEBwAwAAAAAAAAAAgeAGAAAAAAAAAAACwQ0AAAAAAAAAAASCGwAAAAAAAAAACAQ3AAAAAAAAAAAQCG4AAAAAAAAAACAQ3AAAAAAAAAAAQCC4AQAAAAAAAACAQHADAAAAAAAAAACB4AYAAAAAAAAAAALBDQAAAAAAAAAABIIbAAAAAAAAAAAIBDcAAAAAAAAAABAIbgAAAAAAAAAAIBDcAAAAAAAAAABAILgBAAAAAAAAAIBAcAMAAAAAAAAAAIHgBgAAAAAAAAAAAsENAAAAAAAAAAAEghsAAAAAAAAAAAgENwAAAAAAAAAAEAhuAAAAAAAAAAAgENwAAAAAAAAAAEAguAEAAAAAAAAAgEBwAwAAAAAAAAAAgeAGAAAAAAAAAAACwQ0AAAAAAAAAAASCGwAAAAAAAAAACAQ3AAAAAAAAAAAQCG4AAAAAAAAAACAQ3AAAAAAAAAAAQCC4AQAAAAAAAACAQHADAAAAAAAAAACB4AYAAAAAAAAAAALBDQAAAAAAAAAABIIbAAAAAAAAAAAIBDcAAAAAAAAAABAIbgAAAAAAAAAAIBDcAAAAAAAAAABAILgBAAAAAAAAAIBAcAMAAAAAAAAAAIHgBgAAAAAAAAAAAsENAAAAAAAAAAAEghsAAAAAAAAAAAgENwAAAAAAAAAAEAhuAAAAAAAAAAAgENwAAAAAAAAAAEAguAEAAAAAAAAAgEBwAwAAAAAAAAAAgeAGAAAAAAAAAAACwQ0AAAAAAAAAAASCGwAAAAAAAAAACAQ3AAAAAAAAAAAQCG4AAAAAAAAAACAQ3AAAAAAAAAAAQCC4AQAAAAAAAACAQHADAAAAAAAAAACB4AYAAAAAAAAAAALBDQAAAAAAAAAABIIbAAAAAAAAAAAIBDcAAAAAAAAAABAIbgAAAAAAAAAAIBDcAAAAAAAAAABAILgBAAAAAAAAAIBAcAMAAAAAAAAAAIHgBgAAAAAAAAAAAsENAAAAAAAAAAAEghsAAAAAAAAAAAgENwAAAAAAAAAAEAhuAAAAAAAAAAAgENwAAAAAAAAAAEAguAEAAAAAAAAAgEBwAwAAAAAAAAAAwbn7AAAAAAAWxrh2nwAAAADAmoUbAAAAAAAAAAAILNwAAAAAvNGc9+4THlnfAQAAAD7Owg0AAAAAAAAAAASCGwAAAAAAAAAACAQ3AAAAAAAAAAAQCG4AAAAAAAAAACAQ3AAAAAAAAAAAQCC4AQAAAAAAAACAQHADAAAAAAAAAACB4AYAAAAAAAAAAALBDQAAAAAAAAAABIIbAAAAAAAAAAAIBDcAAAAAAAAAABAIbgAAAAAAAAAAIBDcwC979xdq2VUfcHzt+2fuzJTmwRIQLrYSUgmRmkgUBnHGBARr+9CApNoH8aWpmBiR4FMf8pCHClIEUyJWqoT0oUEp+OKDKNhGKUFEjRaxaWoROxAQpQ3tOIkxpw87Pb25c+feu87ZZ68/v88HKTMnNLPWj3Bm37O/Z20AAAAAAAAAgAyCGwAAAAAAAAAAyCC4AQAAAAAAAACADIIbAAAAAAAAAADIILgBAAAAAAAAAIAMghsAAAAAAAAAAMgguAEAAAAAAAAAgAyCGwAAAAAAAAAAyCC4AQAAAAAAAACADIIbAAAAAAAAAADIILgBAAAAAAAAAIAMghsAAAAAAAAAAMgguAEAAAAAAAAAgAyCGwAAAAAAAAAAyCC4AQAAAAAAAACADIIbAAAAAAAAAADIILgBAAAAAAAAAIAMghsAAAAAAAAAAMgguAEAAAAAAAAAgAyCGwAAAAAAAAAAyCC4AQAAAAAAAACADIIbAAAAAAAAAADIILgBAAAAAAAAAIAMghsAAAAAAAAAAMgguAEAAAAAAAAAgAyCGwAAAAAAAAAAyCC4AQAAAAAAAACADIIbAAAAAAAAAADIILgBAAAAAAAAAIAMghsAAAAAAAAAAMgguAEAAAAAAAAAgAyCGwAAAAAAAAAAyCC4AQAAAAAAAACADIIbAAAAAAAAAADIILgBAAAAAAAAAIAMghsAAAAAAAAAAMgguAEAAAAAAAAAgAyCGwAAAAAAAAAAyCC4AQAAAAAAAACADIIbAAAAAAAAAADIILgBAAAAAAAAAIAMghsAAAAAAAAAAMgguAEAAAAAAAAAgAyCGwAAAAAAAAAAyCC4AQAAAAAAAACADIIbAAAAAAAAAADIILgBAAAAAAAAAIAMghsAAAAAAAAAAMgguAEAAAAAAAAAgAyCGwAAAAAAAAAAyCC4AQAAAAAAAACADIIbAAAAAAAAAADIILgBAAAAAAAAAIAMghsAAAAAAAAAAMgguAEAAAAAAAAAgAyCGwAAAAAAAAAAyCC4AQAAAAAAAACADIIbAAAAAAAAAADIILgBAAAAAAAAAIAMghsAAAAAAAAAAMgguAEAAAAAAAAAgAyCGwAAAAAAAAAAyCC4AQAAAAAAAACADIIbAAAAAAAAAADIILgBAAAAAAAAAIAMghsAAAAAAAAAAMgguAEAAAAAAAAAgAyCGwAAAAAAAAAAyCC4AQAAAAAAAACADIIbAAAAAAAAAADIILgBAAAAAAAAAIAMO6UXAAAAAMARhmG/9BIAAAAAOJoTbgAAAAAAAAAAIIMTbgAAAABqtFhcLr2E63L6DgAAABCcE24AAAAAAAAAACCD4AYAAAAAAAAAADIIbgAAAAAAAAAAIIPgBgAAAAAAAAAAMghuAAAAAAAAAAAgg+AGAAAAAAAAAAAyCG4AAAAAAAAAACCD4AYAAAAAAAAAADIIbgAAAAAAAAAAIIPgBgAAAAAAAAAAMghuAAAAAAAAAAAgg+AGAAAAAAAAAAAyCG4AAAAAAAAAACCD4AYAAAAAAAAAADIIbgAAAAAAAAAAIIPgBgAAAAAAAAAAMghuAAAAAAAAAAAgg+AGAAAAAAAAAAAyCG4AAAAAAAAAACCD4AYAAAAAAAAAADIIbgAAAAAAAAAAIIPgBgAAAAAAAAAAMghuAAAAAAAAAAAgg+AGAAAAAAAAAAAyCG4AAAAAAAAAACCD4AYAAAAAAAAAADIIbgAAAAAAAAAAIIPgBgAAAAAAAAAAMghuAAAAAAAAAAAgg+AGAAAAAAAAAAAyCG4AAAAAAAAAACCD4AYAAAAAAAAAADIIbgAAAAAAAAAAIIPgBgAAAAAAAAAAMghuAAAAAAAAAAAgg+AGAAAAAAAAAAAyCG4AAAAAAAAAACCD4AYAAAAAAAAAADIIbgAAAAAAAAAAIIPgBgAAAAAAAAAAMghuAAAAAAAAAAAgg+AGAAAAAAAAAAAyCG4AAAAAAAAAACCD4AYAAAAAAAAAADIIbgAAAAAAAAAAIIPgBgAAAAAAAAAAMghuAAAAAAAAAAAgg+AGAAAAAAAAAAAyCG4AAAAAAAAAACCD4AYAAAAAAAAAADIIbgAAAAAAAAAAIIPgBgAAAAAAAAAAMghuAAAAAAAAAAAgg+AGAAAAAAAAAAAyCG4AAAAAAAAAACCD4AYAAAAAAAAAADIIbgAAAAAAAAAAIIPgBgAAAAAAAAAAMghuAAAAAAAAAAAgg+AGAAAAAAAAAAAyCG4AAAAAAAAAACCD4AYAAAAAAAAAADIIbgAAAAAAAAAAIIPgBgAAAAAAAAAAMghuAAAAAAAAAAAgg+AGAAAAAAAAAAAyCG4AAAAAAAAAACCD4AYAAAAAAAAAADIIbgAAAAAAAAAAIIPgBgAAAAAAAAAAMghuAAAAAAAAAAAgg+AGAAAAAAAAAAAyCG4AAAAAAAAAACCD4AYAAAAAAAAAADIIbgAAAAAAAAAAIIPgBgAAAAAAAAAAMghuAAAAAAAAAAAgg+AGAAAAAAAAAAAyCG4AAAAAAAAAACCD4AYAAAAAAAAAADIIbgAAAAAAAAAAIIPgBgAAAAAAAAAAMuyUXgAAAAAARxiG/dJLAAAAAOBow2JxufQaAAAAgDk8+cTF0ksAONql932j9BIAAAAgg+AGAAAAOqezARqivAEAAKAJghsAAADok84GaJryBgAAgJoJbgAAAKArOhugM8obAAAAKiS4AQAAgB7obIDuKW8AAACoh+AGAAAAGqazAWIS3wAAAFCW4AYAAADao7MBGClvAAAAKEJwAwAAAG0Q2QAcQ3kDAADAnAQ3AAAAUDWdDUAW5Q0AAAAzENwAAABAjXQ2AGtS3gAAALA5ghsAAACoiM4GYHLKGwAAACYnuAEAAIDydDYAM1DeAAAAMBXBDQAAABSjswEoRXwDAADAOgQ3AAAAMDedDUA9lDcAAACsQHADAAAAcxDZAFROeQMAAMDpCW4AAABgg3Q2AM1R3gAAAHAiwQ0AAABMT2cD0AHlDQAAANcjuAEAAIDJ6GwAuqS8AQAA4BDBDQAAAKxLZwMQhPIGAACAkeAGAAAAVqSzAYhMfAMAABCZ4AYAAADy6GwAOEh5AwAAEJDgBgAAAE4msgHgRMobAACAOAQ3AAAAcF06GwBWoLwBAADonuAGAAAADtPZADAJ5Q0AAECvBDcAAADwCp0NABuivAEAAOiM4AYAAIDodDYAzEZ5AwAA0AfBDQAAAEHpbAAoS3wDAADQLsENAAAAsehsAKiN8gYAAKA5ghsAAAD6J7IBoAnKGwAAgFYIbgAAAOiWzgaARilvAAAAKie4AQAAoDc6GwC6obwBAACok+AGAACATuhsAOiY8gYAAKAqghsAAADaprMhmhpuug/Dfkqpko+VHvyre+6+8bnSq4D51PAmAAAAgOAGAACAJulsiKPCm+tVBTcHvfej77r/wpXSq4D5VPj+AAAAEITgBgAAgJbobIij5vvo1QY3S3d/8J0P3vVC6VXAfGp+xwAAAOiS4AYAAIDaiWyIpv4b5/UHN6M73/P2h+8ZSq8CZlX/GwgAAEAfBDcAAABUSmdDTE3cLG8luEkpXXj3hU98YLf0KqCAJt5MAAAA2iW4AQAAoC46GyJr5QZ5Q8FNSun2S3eklB6573zphUAZrbyxAAAAtEVwAwAAQBV0NgTX1h3xtoKb0S1vue2zH7uh9CqgpLbeZwAAAConuAEAAKAknQ2kBu+CtxjcpJRef+sbH3/oNaVXAeU1954DAABQIcENAAAABehsYKnFO9+NBjfJOTdwjRbfggAAAGoguAEAAGA+Ohu4Vot3u9sNbm6/dEdK6ZH7zpdeCFSnxfciAACAggQ3AAAAbJbIBo7R6B3udoOblNKFd1/4xAd2S68C6tXo+xIAAMDMBDcAAABshM4GTtTuXe2mg5uU0p3vefvD9wylVwG1a/c9CgAAYAY7pRcAAABAV3Q2QP3Ont956IsvaW7geMu/05U3AAAA13LCDQAAABPQ2UCuptCklYcAACAASURBVG9gt37CTUrp999/55//4a9LrwIa0/QbFwAAwLSccAMAAMDqdDZAo86e3/nk13cevOuF0guBljjzBgAAYMkJNwAAAGTT2cCaWr9X3cEJNyml9370XfdfuFJ6FdC81t/QAAAAVuOEGwAAAE5LZwN05tGnzmtuYE2OvQEAAGIS3AAAAHAckQ1M7ru/dcul0msgpbR3zidjMCXlDQAAEIpHSgEAAHAEnQ1sTge3ovt4pFRK6d6H/+j9b/hF6VVAtzp4uwMAALge3+MBAADg/+lsAICpOPMGAADomOAGAAAAnQ0Q1N657S/89MY/ft3PSi8EOqe8AQAA+iO4AQAAiEtnAwR35ux26SVALMobAACgG4IbAACAcHQ2AKMzZ7dfvPrr0quAiA5ejYhvAACAFgluAAAAotDZQA2+9uJvXyq9Bg5yyA0U59gbAACgRYIbAACAnolsoDYvvuA8lYqc2VPbQEWUNwAAQEMENwAAAB3S2QCcxu7e9q8kUFAf5Q0AAFA/wQ0AAEA/dDZQvz/4zcull8Cr7O5tp0XpRQDXobwBAACqJbgBAABons4GYDW74yOlrpZeB3AS5Q0AAFAbwQ0AAMCKZC4Ards9s/XW558pvQogQ1UXYOofAACITHADAABwhKru5QAAUKHTXzFKcwAAoD/DYuHB4QAAQGjaGmBmf/P0DY9//MulV7GWYdhPKbX+sdKnvnpvSunNP/9R6YUAoWlxAACgUVulFwAAAAAQy5/e9nzpJZBSStu7PhkDAAAAVuRjBQAAAACCcrwNAAAAsBrBDQAAAMDc7v7gO0svIbrPfPNDOzs+GQMAAABW5GMFAAAAgLk9eNcLpZcQ3db2cOt//HPpVQAAAACtEtwAAAAAFHDne95eeglxfe5b95deAgAAANA2wQ0AAABAAQ/fM5ReQlCf//aHU0q3/OQHpRcCAAAANExwAwAAAFDGk09cLL2EoIYttRMAAACwFsENAAAAQDG3X7qj9BJieew7D2xtDTc/+3TphQAAAABtE9wAAAAAFPPIfedvecttpVcRxWPffSAN6aZnvld6IQAAAEDzBDcAAAAAJX32Yze8/tY3ll5F/x777gMppZv+RW0DAAAATEBwAwAAAFDY4w+9xjk3G6W2AQAAAKYluAEAAAAo77Mfu+H2S3eUXkWfHvvOA2mhtgEAAACmJLgBAAAAqMIj952/8O4LpVfRm89/+8Mvv7y46Rm1DQAAADClndILAAAAAOAVn/jA7pNPXHzoi4t/+Ptvll5L8z73rftTSr/74++XXggAAADQIcENAAAAQF0evmd48omLn/z63pf++mul19Kkz3zzQymlre3hlp/8oPRaAAAAgD4JbgAAAABq9OBdLzz5xMVHnzq/d27n8Y9/ufRyGvCpr96bUtre3XrTcz8svRYAAACgc8Nicbn0GgAAAEp68omLpZcAcLK/feY1e+e2z5zdTimdObu9vbNVekWFbW8PKaXdve3dve2U0u6Zrbc+/0zpRQFku/S+b5ReAgAAsAon3AAAAAA04P1v+EXpJVRpkdLVlNL//V8AAACAWUT/LhQAAAAAAAAAAGQR3AAAAAAAAAAAQAbBDQAAAAAAAAAAZBDcAAAAAAAAAABABsENAAAAAAAAAABkENwAAAAAAAAAAEAGwQ0AAAAAAAAAAGQQ3AAAAAAAAAAAQAbBDQAAAAAAAAAAZBDcAAAAAAAAAABABsENAAAAAAAAAABkENwAAAAAAAAAAEAGwQ0AAAAAAAAAAGQQ3AAAANTuSz97beklAAA0w7UTAAAwg53SCwAAAOC6Hn3qfEoppecf/bfz91+4Ung1AADVe/Sp8+O10/hbV1AAAMCGCG4AAADq9V8/f6H0EgAAWuLyCQAAmIdHSgEAANTr6pWXlv8rvRYAgAYcvHy6euWlh764KL0iAACgT064AQAAqNerO5vdYusAAGjEUZmyiygAAGB6TrgBAACo19X/+dXyfx/59JXSywEAqNpHPn3l4OXT+L/SiwIAAPrkhBsAAIBK/dlfPl96CQAALfEUTgAAYDaCGwAAgEq5YwQAkMXlEwAAMBvBDQAAQKXOnvcjGwBABpdPAADAbPz4AQAAUCl3jAAAshx5+fSRT1955L7z8y8GAADom09vAaB2w7A/7b9wsbhc858LwNLZ39gtvQQAgJa4fAJojg8/AWiX4AYAyhh/ojvxx7DJf/Ab/53V/rkAHOSEGwCALC6fAFZzys8qN/TnTv7v9OEnAPPw4wcANGDCH9Wyfpgs9ecCMDrqjtGvC6wDAKAR1w9uXEQB1MuHnwA0aqv0AgAAAAAAYF1/8eXt0ksAAAACccINAABApZxwAwBwesc+T8pFFAAAMDHBDQAAQKX2zvmWNgDAabl2AgAA5uSRUgAAAAAAAAAAkMEJNwAAAJXaO+dHNgCA03LtBAAAzMlPIAAAAJVy0wgA4PRcOwEAAHPyEwgAAABEcel93yi9BFYxDPvjLxaLy1O9Mv56+Y9WW9LK/+9wpCefuFh6CQAAAHBaghsAAIAafeGnN+6dK70IuiCy4UhaGSq0fL9S3rCavXPbpZcAAAAEIrgBAACo0Zmz7hixFp1NB4Zh/1AWs7lXoCrKG1bj8gkAAJiT4AYAAKAZX/rZa+++8bnSq6BqOpsuLZ8ANfkrUDnlDQAAANUS3AAAANTIV7TJorNhNWN/47Qb6qe84TRcPgEAAHMS3AAAANTozJ47RpxMZ9O9gk+VOs1ZOJOclyP3IYvyhmO4fAIAAOYkuAEAAIDG6GwC6vipUiemP3Ckg++E4hsAAADmJ7gBAACo0e5RX9F+x+Lf518J9dDZVOJgILKMVzb3ykZVUrpobliTY28YHXn59IrFjOsAAABiENwAAADU6Og7RldnXweliWwoZZKzcGQ0zEx5E9xxwY2LKAAAYGqCGwAAAKiOzqZmByOSa4OSCV8Ze5fl6S+be+U0Oz1k/DfoaaiW8gYAAIBNE9wAAADUaPfM1hGv+nJ273Q2HOnaMmbaV9QzdEx5E8rRl08jF1EAAMDUBDcAtGf9k+0PcWsBgArt7F7/jhHd0dlwpGsf6rS5V6B7ypsIXD4BAABzEtwAAABAGTobgPkpbwAAAJiE4AaA9jiQBoAI3vzzH33/tbeWXgUbobOhNi6wiengu7H4pg/bTrgBAABmJLgBAACo1M6Om0Zd0dkAVMuxN31w7QQAAMxJcAMAAFCpre2h9BJYl8gGoC3Km6a5dgIAAOYkuAEAAICJ6WyYymJxeRj2U0rDsD8++Glzr4y/9XgpGClvWnTLT37wo9/5vdKrAAAAohDcAAAAVGrbt7Rbo7MB6I/ypi0unwAAgNkIbgAAACo1bLlj1AadDRs12yE342+X/xQ4RHnTBJdPAADAbAQ3AAAAldpyx6huOhv6I7WB01De1MzlEwAAMBvBDQAAAGTQ2TCbTR9pc+QrwOkd/BtBfAMAABCN4AYAAKBWvqFdE50NAMdw7E0tXD4BAABzEdwAAADA0UQ2FDf/ITfjr512AytT3gAAAAQhuAEAAIBX0dnA8cYo5+AvZqMEoiHKGwAAgL4JbgAAAGq1KL2AYHQ21OZQXHJta7KJV8ZDbpbn31xr/sjm0J+uuaE5yptZHXX5dNMz35t9HQAAQP8ENwAAAJV6+eVX3TK6+dmnS62kbzobqrVMW5aJyTyvVF60aG5ol/JmBjc9871nb76t9CoAAIAQBDcAAACVuvnZp//1pjeVXkW3dDawmjF2KXvODbROebNRi5cdEggAAMxBcAMAAFCvX734cukl9EZnQ5ZSZ8xMuwugWgf/VhLfTMXlEwAAMA/BDQAAQL1eeskdo2nobCDLWP+cmP5og2BCjr2ZissnAABgHoIbAACAev33f744/uJtV58tu5IWiWxY37VBycyvjOHLMOyP/3S2V8bfLv8pMCflzZre9NwP/+nszcvfuogCAAA2RHADAABQr7ddffYrv3zdu879tPRCWqKzAaAPypuVjZHNV375upRSOld4MQAAQK8ENwAAAFVT25ySzoYuFTxix9k2UA/lzWpcRAEAABsluAEAAKBhOhu6Nz7pKR0oYOZ8BaiK8gYAAKAeghsAAADao7MBIDLlDQAAQHGCGwAAAJqhsyGggk+VGg+8cdoN1Ozg34ziGwAAgDkJbgAAAKidzobgSj1VarG4PAz7w7CvuYEmOPYGAABgToIbAAAAaiSyAYDVKG8AAABmILgBAACgIjobWFoeLTOeNFPkFWfbQNOUNwAAAJsjuAEAAKA8nQ0AbI7yBgAAYHKCGwAAAIrR2cAxDp4uc+1JM3O+AnRDeQMAADAVwQ0AAABz09nAaYyPdlrmL+Nvi7xyaCVAB5Q3AAAAaxLcAAAAMBOdDQDU5uDfzuIbAACA0xPcAAAAsFk6G1jNoRNlPFUK2DTH3gAAAJye4AYAAIDpiWxgfQWfIXXoFf0NRKO8AQAAOJHgBgAasLzbEeTPBaBdOhsA6InyBoAZ+PATgEYNvqIEAJWb/Ae/U/7tX+rPBZifG0jr09lANOO1ogs8CMiF0+RcRwHB+fATgHY54QYAalfqRzU/IgJwIveHIBSRDZCceQPA1Hz4CUC7BDcAAADk0dnAnJZfvV3eEij7CsBIeQMAAAQnuAEAAOBUdDYAwLUOXiGIbwAAgDgENwAAABxHZwNlXXu0TKlXHHIDnMixNwAAQByCGwAAAA4T2UA9PFIKaJHyBgAA6J7gBgAAgFfobACAaSlvAACAXgluAAAAotPZQM3qeaTUaHnmDUAW5Q0AANAZwQ0AAEBQOhsAYH7KGwAAoA+CGwAAgFh0NtCKYdhfHjCzPFem+CuLxWWH3ACTUN4AAABNE9wAAACEoLMBpqK5AaZ18CpFfAMAALRCcAMAANAznQ20a3nAzKFf1/AKwIY49gYAAGjFTp2nE3vFK17xile84hWveMUrXvHKbK/849/dlPryjj/5cSo9Va94xStTvVKzJhYJtK6/S7VDvJcCAECjnHADAADQifEb4e7ZAAA9GUviFKC8AQAA2jIsvzgFAAAQU+sPLPDQKGB+Y9sX9mOl4NtPJhB+AsW33/rF2yHNXcsV/w+guOATCL79FH4Cwbefwk8g+PZT+AkE334ygfATOHL7TrgBAABoUnP3ZoD+DAeeVA4wm+VVUGflDQAA0JZpgpvgKVMKP4Hg20/hJxB8+yn8BIJvP5lA+AkE334KP4Hg208mUE4lqU3w/wCCbz+Fn8A82/eEOIDjKW8AAICCnHADAADQjEpSGwCAqihvAACA+QluAAAAaqezgZhqPkBoefqOp0oBVVHeAAAAs5kmuPHBSvAJBN9+Cj+B4NtP4ScQfPvJBMJPIPj2U/gJBN9+MoFZ1JzaBP8PIPj2U/gJBN8+QP2UNwAAwKY54QYAAKBGNac2wDyWp8hUziE3QM2UNwAAwIYIbgAAAOoitQEAmJzyBgAAmNY0wc34javIX2YKPoHg20/hJxB8+yn8BIJvP5lA+AkE334KP4Hg208dTWC1wKWb7a8s+ASCbz+Fn8A82695vMsJtHIMD8DS+nFz8L8EAQCA0VbpBQAAAADQqvF+s+wGAAAAiEZwAwAAAAAAAAAAGaZ5pJTDM4NPIPj2U/gJBN9+Cj+B4NtPJhB+AsG3n8JPIPj2U/gJBN9+Cj+B4NtP4Scwz/brPzam/hUCAAAAbIgTbgAAAABYl/gGAAAACGWaE24AAAAAmFbNxwiNec1yhWobAAAAIJppTrgZhv3gH6wEn0Dw7afwEwi+/RR+AsG3n0wg/ASCbz+Fn0Dw7afwEwi+/RR+AsG3n8JPIPj2AQAAAPBIKQAAAADWMh51I0ICAAAA4vBIKQAAAIAa1d+v1L9CAAAAgA2ZJrip+Zni8wg+geDbT+EnEHz7KfwEgm8/mUD4CQTffgo/geDbT+EnEHz7KfwEgm8/hZ9A8O0fYxj2DQcAAACIwAk3AAAAADWquVwZz7Y5tEIH3gAAAABxbJVeAAAAAAAAAAAAtGSa4GYY9oN/hyn4BIJvP4WfQPDtp/ATCL79ZALhJxB8+yn8BIJvP4WfQPDtp/ATCL79FH4Cwbd/PeOBNyYDAAAAROCRUgAAAADVaSJbaWKRAAAAAJvgkVIAAAAAAAAAAJBhmhNuxhODIws+geDbT+EnEHz7KfwEgm8/mUD4CQTffgo/geDbT+EnEHz7KfwEgm8/hZ/ADNuvfMLj2TZHLnJ83lbl6wcAAABYkxNuAAAAAAAAAAAgg+AGAAAAAAAAAAAyTPNIqWOOEQ4i+ASCbz+Fn0Dw7afwEwi+/WQC4ScQfPsp/ASCbz+Fn0Dw7afwEwi+/RR+AjNsf/wjKnfMIj1VCgAAAOibE24AAAAAAAAAACDDNCfcAAAAADChyo+HOf6MnyaO5wEAAABYxzTBTeWfAc0g+ASCbz+Fn0Dw7afwEwi+/WQC4ScQfPsp/ASCbz+Fn0Dw7afwEwi+/RR+AsG3f6LF4vIw7HuqFAAAANAxj5QCAAAAAAAAAIAMHikFAAAAUJ0mnsp04iIdcgMAAAD0apoTbsZTgif5VzUq+ASCbz+Fn0Dw7afwEwi+/WQC4ScQfPsp/ASCbz+Fn0Dw7afwEwi+/RR+AsG3DwAAAIATbgAAAACqU/nBMGNvdPwiNUkAAABAx6Y54QYAAAAADhpzHNkNAAAA0KVpTrip/EtXMwg+geDbT+EnEHz7KfwEgm8/mUD4CQTffgo/geDbT+EnEHz7KfwEgm8/hZ9A8O0DAAAA4IQbAAAAAAAAAADIMM0JNwAAAABMqIknMZ1ykcOw70wgAAAAoDPTnHAzDPtNfAy0OcEnEHz7KfwEgm8/hZ9A8O0nEwg/geDbT+EnEHz7KfwEgm8/hZ9A8O2n8BMIvn0AAAAAnHADAAAAUJ3Kj4QZe6PTLFKZBAAAAHRpmhNuAAAAAOBaY5QjuwEAAAA6M80JN5V/6WoGwScQfPsp/ASCbz+Fn0Dw7ScTCD+B4NtP4ScQfPsp/ASCbz+Fn0Dw7afwEwi+fQAAAACccAMAAADABjnkBgAAAOiP4AYAAAAAAAAAADJM80ip8StKkY9TDj6B4NtP4ScQfPsp/ASCbz+ZQPgJBN9+Cj+B4NtP4ScQfPsp/ASCbz+Fn8AM22/iPJgmFgkAAACwCU64AQAAAGAOAh0AAACgG9OccAMAAADAhCo/PWiFM37UNgAAAEBPpgluKv8MaAbBJxB8+yn8BIJvP4WfQPDtJxMIP4Hg20/hJxB8+yn8BIJvP4WfQPDtp/ATCL59AAAAADxSCgAAAICNGysl59wAAAAAfRDcAAAAAAAAAABAhmkeKbXCc7s7E3wCwbefwk8g+PZT+AkE334ygfATCL79FH4Cwbefwk8g+PZT+AkE334KP4Hg2y+iwqNxJlmS/4oAAACgUdMENwAAAABFFOwwKkxAZrbaBIZhP7cy6XjUK0wDAAAAqIFHSgEAAABAMR3nRAAAANCxwXdoAAAAAJjHOk/j6jtM8RkdAFA/T1YFgIOccAMAAADATMbbMyukM33XNinABgEAAKAzghsAAAAAahfhi9SaGwAAAGiI4AYAWMsw7LsxAAAQzToXgSsfctN9c9P9BgEAAKAnghsAAAAA2tB3kiJkBwAAgIbslF4AAAAAAIc10V40sUgAAACATRDcAABr6ftLxgAAbM4w7K9wMen6EwAAAKiB4AYAAACgOt1nJU7HAQAAAJq2VXoBAAAAAAAAAADQEsENALCWYdj37WQAgGjWvwgcj/BxJQkAAAA0SnADAAAAAAAAAAAZBDcAAAAAAAAAAJBhGM/vBQAAAICZjY+U8vEUAEATXLwBwEE7pRcAAAAAwGHjzQwAAAAA6uSRUgAAAACUpC4CAAAAmuOEGwBgLQ6SBQDYhMqvrya8CFTbAAAAAC1ywg0AAAAAAAAAAGQQ3AAAAABQzHhMjnNuAAAAgLZ4pBQAsJbKH3YAAMAmuAgEAAAAgnPCDQAAAAAAAAAAZBDcAAAAAFCSp0oBAAAAzRHcAABrGYZ9t0YAAKJxEQgAAAAEt1N6AQAAAAAc1kTO0sQiAQAAADbBCTcAAAAAVEHBAwAAALTCCTcAwFoWi8ullwAA0KGAV1lqGwAAAKAhTrgBAAAAAAAAAIAMghsAAAAAyhsP9XHODQAAANAEwQ0AsJZh2HdTBAAgGheBAAAAQHCCGwAAAACq4JAbAAAAoBWCGwAAAAAAAAAAyLBTegEAQNvGbyEDABCKi0AAAAAgOMENAAAAQHWCP1ZpGPY1PQAAAEDNPFIKAAAAAAAAAAAyOOEGAFjL+N1r3z8GAJhW5ddXG70IDH66DwAAANAEJ9wA/9veHSW3kesAFBVSvQvuf2leh94H5iWO4ziGrRbJxjmf/piipEyVTN8GAAAAYCHZ8chuAAAAgJUJbgAAAAAAAAAAoMBKKQDgWxZfdgAAwBl8CQQAAACaM+EGAAAAgLXYKgUAAAAsTnADAAAAAAAAAAAFghsA4FsihiePAQC6ecKXQENuAAAAgJUJbgAAAAAAAAAAoEBwAwAAAAAAAAAABZHjeQEAAABYh1VKr7m/AgBYQX5H9d0MAJIJNwAAAAAAAAAAUHDMPgAAAAAAb3luOJn0AwAAAKzJhBsA4Fsihr+CAAB087QvgRke+cIJAAAArEZwAwAAAAAAAAAABYIbAAAAAAAAAAAoCBvBAQAAAFhZrpRyiwUAMJdvZQDwmgk3AAAAAAAAAABQILgBAAAAAAAAAIACwQ0A8C0RI2fJAgDQx5O/BObaAl87AQAAgHUIbgAAAAAAAAAAoCDyCSEAAAAA1mGay9+4ywIAAABWYMINAAAAAAAAAAAUHLMPAAAAAMBb5rj8ydQfAAAAYB0m3AAAAACwgYyQZDcAAADACgQ3AAAAANREDOELAAAA0JngBgAAAAAAAAAACgQ3AAAAAOzBVikAAABgEcfsAwAAAACwmQxfAAAAANoy4QYAAAAAAAAAAAoENwAAAABsw1YpAAAAYAWCGwAAAABqIobkBQAAAOhMcAMAAADATgy5AQAAAKY7Zh8AAAAAgLe2qEm2OCQAAADAGUy4AQAAAAAAAACAgsgZvAAAAACwkZyv42oLAAAAmMKEGwAAAAAAAAAAKBDcAAAAAFATMXLADAAAAEBPghsAAAAA9pPLpHQ/AAAAwBSCGwAAAAAAAAAAKDhmHwAAAACAzeR0GQAAAIC2TLgBAAAAYEu2SgEAAACzCG4AAAAAAAAAAKBAcAMAAABATcQwVwYAAADoTHADAAAAwK5slQIAAACmENwAAAAAAAAAAEBB5GNAAAAAALCpnHDjmgsAAAB4mmP2AQAAAAD4jQVJAAAAAIuzUgoAAAAAAAAAAAqslAIAAACgZsEVTgseCQAAALgwE24AAAAAAAAAAKBAcAMAAAAAAAAAAAVWSgEAAABwBbZKAQAAAE9jwg0AAAAAAAAAABQIbgAAAAAAAAAAoEBwAwAAAEBNxMj9TUvJZVILHgwAAAC4HsENAAAAAAAAAAAUCG4AAAAAuAhDbgAAAIDnOGYfAAAAAIDNZNcCAAAA0JYJNwAAAAAAAAAAUCC4AQAAAOA6bJUCAAAAnkBwAwAAAEBNxFC0AAAAAJ0dsw8AAAAAwG92aVl2OScAAADAw5lwAwAAAMAF6YEAAACA85hwAwAAALCW+/1l9hG2p7YBAAAATmXCDQAAAAAAAAAAFAhuAAAAALianBJkzg0AAABwEsENAAAAADURQ8sCAAAAdCa4AQAAAAAAAACAAsENAAAAABdkqxQAAABwnmP2AQAAAADYTLYsAAAAAG2ZcAMAAADANRlyAwAAAJxEcAMAAAAAAAAAAAWCGwAAAABqIoaxMQAAAEBnghsAAAAALstWKQAAAOAMghsAAAAAAAAAACg4Zh8AAAAAgM3k2BgMznk4/7QAAADYRfglFgAAAIBryzLmsfdgapvzuLEEAABgfSbcAAAAAEDZ/f5yRsfTnIwJAACAXQhuAAAAgK/z13HggTJjihgyJgAAABb3Y/YBAAAAAOAZ9GFbyNTGhwUAAMDiwsMiAAAAAJTsuErppDPv+FZswRsLAADA4gQ3AAAAALRwRsNhEMvZ3F4CAACwJiulAAAAAOCL5CCn8vYCAACwrGP2AQAAAAB4x5txLD8nqSzyE37K98SomzNYLAUAAMCyTLgBAAAAoCZi7NiXnFfG7PhubMTbCwAAwILCAyIAAAAAlOw7d+Skk+/7hmzB2wsAAMCCTLgBAAAAgG+xVepU3l4AAAAWJLgBAAAAoOZ+f9l03Ih0Y1M+OAAAAFYjuAEAAACA71KEAAAAQCvH7AMAAAAAwHVobk4VMTadrgQAAMDFmHADAAAAQE3E2DcrOW8UjRAEAAAA+jDhBgAAAAAeQ3MDAAAATQhuAAAAAIDPWmS4kbYJAACAucKvpgAAAAB0k9XIGTdj5/2XF7FIcJMu/D4DAACwOBNuAAAAAICa6aXLUt0PAAAADf2YfQAAAAAAeLbsRc6INs77Ly9ikRe4yDEAAABoS3ADAAAAQE3EEDp0tkjsssgxAAAA6CmmT38FAAAA4DUBwTOddDmWH+KFb97WeYHrnAQAAIBWBDcAAAAAaxHcPNkZ92N9PsQVbhc1NwAAADyf4AYAAACApk4NNZo0N24XAQAA6OmYfQAAAAAAuCAlCgAAAFzYj9kHAAAAAIA5solpMooGAAAAeCDBDQAAAAA1EUOkAgAAAHQmuAEAAAAAAAAAgALBDQAAAAB92SoFAAAAfMEx+wAAAAAAbCYjFQAAAIC2TLgBAAAAoDVDbgAAAIAqwQ0AAAAAAAAAABQIbgAAAACoiRjmwQAAAACdCW4AAAAA6M5WKQAAAKBEcAMAAAAAAAAAAAXH7AMAAAAAsJmcBwMAAADQlgk3AAAAAGCrFAAAAFAguAEAAAAAAAAAY6OCMwAAEdxJREFUgALBDQAAAAA1EcMkGAAAAKAzwQ0AAAAA3G62SgEAAACfJrgBAAAAAAAAAICCY/YBAAAAANhMToIBAAAAaCvcjwAAAAAsxUqjFbg0AwAAAD5gpRQAAAAAAAAAABSYcAMAAABATc7gufC10uVfIAAAAPBNJtwAAAAAAAAAAECB4AYAAAAAAAAAAAqslAIAAACAt2yVAgAAAD5gwg0AAAAAAAAAABQIbgAAAAAAAAAAoEBwAwAAAEBNxMiNSxeWy6Qu/zIBAACArxHcAAAAAAAAAABAgeAGAAAAAAAAAAAKIqfjAgAAAABv5EopF2gAAADAGybcAAAAAAAAAABAgeAGAAAAAN6Xs21yzg0AAADAT4IbAAAAAGoihgYFAAAA6ExwAwAAAAAAAAAABYIbAAAAAPgrW6UAAACAPx2zDwAAAADAZrJBAQAAAGjLhBsAAAAAAAAAACgQ3AAAAADAR2yVAgAAAN4Q3AAAAABQEzHUJwAAAEBnghsAAAAAAAAAACgQ3AAAAADAP9gqBQAAALx2zD4AAAAAAJvJ+gQAAACgLcENAAAAwFqMUQEAAABYnJVSAAAAAPBZcigAAADgZsINAAAAwGrWX9iU0cn653w4tQ0AAACQTLgBAAAAgE/Jxkh2AwAAAAhuAAAAAAAAAACgwEopAAAAAGoaLpMCAAAAeM2EGwAAAAD4LFulAAAAgJvgBgAAAAAAAAAASgQ3AAAAANREDCNeAAAAgM4ENwAAAABQYKsUAAAAILgBAAAAAAAAAICCY/YBAAAAANhMjngBAAAAaMuEGwAAAACosVUKAAAAmhPcAAAAAAAAAABAgeAGAAAAgJqIYbiLITcAAADQmeAGAAAAAAAAAAAKBDcAAAAAAAAAAFAQOfwWAAAAAKjKlVJu2AAAAKAbE24AAAAAAAAAAKBAcAMAAAAAAAAAAAWCGwAAAABqIkauUiKXSXk3AAAAoBvBDQAAAAAAAAAAFAhuAAAAAAAAAACgIHLsLQAAAADwNblSyj0bAAAA9GHCDQAAAAAAAAAAFAhuAAAAAAAAAACgQHADAAAAQE3EyCVKpFwm5T0BAACAPo7ZBwAAAADgHVlvZMlxexVzLPITAAAAgM7CLQkAAADAOkxJ2Z3bNgAAAOjASikAAAAAAAAAACiwUgoAAABgIeaj7Mt0IgAAAOjDhBsAAAAAeICMpWQ3AAAA0IHgBgAAAICaiCErAQAAADoT3AAAAAAAAAAAQIHgBgAAAAAew1YpAAAAaOKYfQAAAAAANpNZCQAAAEBbJtwAAAAAAAAAAECB4AYAAAAAHsZWKQAAAOhAcAMAAABATcQQlAAAAACdCW4AAAAA4JEMuQEAAIDLE9wAAAAAAAAAAEDBMfsAAAAAAGwmJ7gAAAAAtGXCDQAAAAA8mK1SAAAAcG2CGwAAAAAAAAAAKBDcAAAAAFATMcxuAQAAADoT3MCK3FoCAADA7myVAgAAgAsT3MAEH9+1uYkDAAAAAAAAgJUJbmCOv1U1+fN8Bg4AAADWdL+/+NUVAAAA6ExwAxP8baa02gYAAACuxFYpAAAAuCrBDczx542b2gYAAAAAAAAAtiC4gWleNzdqGwAAADYSMUxtAQAAADoT3MBMr5sbtQ0AAABcj61SAAAAcEmCG1iC2gYAAAAAAAAAdhH+zA8TmW0DAAAAHbgBAAAAgIsx4QamcdcGAAAAAAAAADsS3MAcahsAAAAAAAAA2JTgBiZQ2wAAALC1iJG/2/JJeQngTQMAAIDLENzAHGobAAAAAAAAANiU4AYmUNsAAAAAAAAAwL7CH/4BAAAA4AnsmAYAAIDLOGYfAAAAAIBfsskAAAAAYGVWSgEAAAAAAAAAQIGVUgAAAADUWI30Zd46AAAAuAYTbgAAAAAAAAAAoEBwAwAAAABPkrNtcs4NAAAAsK9j9gEAAAAA2IyNSAAAAEBzJtzAfHEbcfNkGwAAAAAAAADsQXADAAAAAM9jqxQAAABcgOAGAAAAgJqIoRcBAAAAOhPcAAAAAAAAAABAgeAGAAAAAJ7KVikAAADY3TH7AAAAAABsJnsRAAAAgLZMuAEAAAAAAAAAgALBDQAAAAA8m61SAAAAsDXBDQAAAAA1EUMpAgAAAHQmuAEAAAAAAAAAgALBDQAAAABMYKsUAAAA7OuYfQAAAAAANpOlCAAAAEBbJtwAAAAAwByG3AAAAMCmBDcAAAAAAAAAAFAguAEAAACgJmIYygIAAAB0JrgBAAAAgGlslQIAAIAdCW4AAAAAAAAAAKDgmH0AAAAAADaTQ1kAAAAA2jLhBgAAAABmslUKAAAAtiO4AQAAAAAAAACAAsENAAAAADURwzgWAAAAoDPBDQAAAABMZqsUAAAA7EVwAwAAAAAAAAAABYIbAAAAAGru95ecyMIDGXIDAAAAGxHcAAAAAAAAAABAgeAGAAAAAAAAAAAKBDcAAAAA1EQMm4/OYKsUAAAA7EJwAwAAAAAAAAAABYIbAAAAAAAAAAAoENwAAAAAUHO/v+TyIx7OVikAAADYguAGAAAAAAAAAAAKBDcAAAAAAAAAAFBwzD4AAAAAAL/YJUSKGPZ2AQAAwLJMuAEAAAAAAAAAgAITbgAAAAAWssVQkxzDs8VRN2XQEQAAACzOhBsAAAAAau73F7XNqfLtld0AAADAsgQ3AAAAAAAAAABQILgBAAAAgOUYcgMAAAArE9wAAAAAUBMxhCAAAABAZ4IbAAAAAAAAAAAoENwAAAAAwIpslQIAAIBlHbMPAAAAAMBmMgQBAAAAaMuEGwAAAAAAAAAAKBDcAAAAAMCibJUCAACANQluAAAAAKiJGBIQAAAAoDPBDQAAAAAAAAAAFByzDwAAAADAO3KETG4Uur1aKrTIT3ia+/0lRwp58wEAAGAdghsAAAAAapQfAAAAQHPhfgSmi9u43W73m/8ZAQAAgPe9mXgEAAAAzPVj9gEAAAAAAAAAAGAnghsAAAAAaiJGDlwBAAAA6ElwAwAAAACry2VSOicAAABYhOAGAAAAAAAAAAAKjtkHAAAAAGAzOW0FAAAAoC0TbgAAAABgA7ZKAQAAwDoENwAAAAAAAAAAUCC4AQAAAKAmYpizAgAAAHQmuAEAAACAPdgqBQAAAIsQ3AAAAAAAAAAAQMEx+wAAAAAAbCbnrAAAAAC0ZcINAAAAAGzDVikAAABYgeAGAAAAAAAAAAAKBDcAAAAA1EQME1YmMuQGAAAAphPcAAAAAAAAAABAwTH7ANDRu4+gxe23H+bDaj1FjM4vHwAAAAAAAIDFmXADPNvHI68NxAYAAFjf/f7iSYm5bJUCAACAuUy4gQneXErmbJv77ddN2eVvLf82w6bJywcAAAAAAABgaybcwEKa5CZ/ewivycsHAAAAAAAAYHeCG1hFq9zkz+am1csHAADYXcSwzGg6W6UAAABgIsENrCFut2a5yetrQbUNAAAAAAAAABs5Zh8A+H9tc7vdLvZQ2r8Cmvv95eczkWobAAAAAAAAAHZhwg1M9l9uMvsYAAAA8Hn3+4sHJ1ZgqxQAAADMYsINzNR8uMvPl59zbtq+DwAAAAAAAADsxYQbmEZtc/v/y/dAHgAAAHyN36kBAABgCsENzKG2uf3+8t0PAgAAbCQnlc4+BQAAAMA0ghuYQG1ze+/la24AAAAAAAAA2EK0/ZM/TPSZpuTC/29GjA9eXfMaCQAAYAt+d1uNTwQAAACe7Jh9AKCdj6//7vcXQ24AAIC29vqFaK/TAgAAADyQ4AYm8MDZx7w/AAAAAAAAAKzMSikAAAAA2J6tUgAAAPBMP2YfAAAAAIDNRAz7pAAAAIDOBDcAAAAAAAAAAFAguAEAAACA7eUyKZOHAAAA4DmO2QcAAAAAYDPZdgAAAAC0ZcINAAAAAAAAAAAUCG4AAAAA4ApslQIAAICnEdwAAAAAUBMxVB0AAABAZ4IbAAAAALgIQ24AAADgOQQ3AAAAAAAAAABQcMw+AAAAAACbyTEqAAAAAG2ZcAMAAAAA12GrFAAAADyB4AYAAAAAAAAAAAoENwAAAADURAwDVAAAAIDOBDcAAAAAcCm2SgEAAMDZBDcAAAAAAAAAAFBwzD4AAAAAAJvJASoAAAAAbZlwAwAAAABXY6sUAAAAnEpwAwAAAAAAAAAABYIbAAAAAGoihtEp6zPkBgAAAM4juAEAAAAAAAAAgALBDQAAAAAAAAAAFESOlgUAAAAAridXSrkDBAAAgMcy4QYAAAAAAAAAAAoENwAAAAAAAAAAUCC4AQAAAKAmYuSiItaXy6R8XgAAAPBYghsAAAAAAAAAACgQ3AAAAAAAAAAAQEHkUFkAAAAA4KpypZSbQAAAAHgUE24AAAAAAAAAAKBAcAMAAAAAAAAAAAWCGwAAAABqIkauKGIXuUzKpwYAAACPIrgBAAAAAAAAAIACwQ0AAAAAXJ8hNwAAAPBAx+wDAAAAALCZTDcAAAAA2jLhBgAAAAAAAAAACgQ3AAAAANCCrVIAAADwKIIbAAAAAGoihmgDAAAA6ExwAwAAAAAAAAAABYIbAAAAAOjCVikAAAB4iGP2AQAAAADYTEYbAAAAAG2ZcAMAAAAAAAAAAAWCGwAAAABoxFYpAAAA+D7BDQAAAAA1EUOuAQAAAHQmuAEAAACAXgy5AQAAgG8S3AAAAAAAAAAAQMEx+wAAAAAAbCbnowAAAAC0ZcINAAAAALRjqxQAAAB8h+AGAAAAAAAAAAAKBDcAAAAA1EQMk1EAAACAzgQ3AAAAANCRrVIAAADwZYIbAAAAAAAAAAAoOGYfAAAAAIDN5GQUAAAAgLbC/QgAAADAIiz3YRaXhAAAAFBipRQAAAAAAAAAABRYKQUAAACwil2mjOQknl1Oy8fMVQIAAIAvMOEGAAAAAPrKcEp2AwAAACWCGwAAAAAAAAAAKAizfwEAAACgOWvCAAAAoMSEGwAAAAAAAAAAKBDcAAAAAAAAAABAgeAGAAAAgJqIkRuIuIxcJuVjBQAAgE8S3AAAAAAAAAAAQIHgBgAAAAAAAAAACiKnxQIAAAAAzeVKKReGAAAA8E8m3AAAAAAAAAAAQIHgBgAAAAAAAAAACgQ3AAAAANREjNw9xMXkMikfLgAAAPyT4AYAAAAAAAAAAAoENwAAAADAfwy5AQAAgM84Zh8AAAAAgM1kkwEAAADQlgk3AAAAAAAAAABQILgBAAAAAH6xVQoAAAD+SXADAAAAQE3EUGMAAAAAnQluAAAAAAAAAACgQHADAAAAAPzGVikAAAD42DH7AAAAAABsJmsMAAAAgLZMuAEAAAAAAAAAgALBDQAAAADwlq1SAAAA8AHBDQAAAAA1EUOHAQAAAHQmuAEAAAAAAAAAgALBDQAAAADwDlulAAAA4G+O2QcAAAAAYDPZYQAAAAC0ZcINAAAAAPA+Q24AAADgXYIbAAAAAAAAAAAoENwAAAAAUBMxjDwBAAAAOhPcAAAAAAB/ZasUAAAA/ElwAwAAAAAAAAAABcfsAwAAAACwmRx5AgAAANCWCTcAAAAAwEdslQIAAIA3BDcAAAAAAAAAAFAguAEAAACgJmIYdgIAAAB0JrgBAAAAAP7BVikAAAB4TXADAAAAAAAAAAAFkc+mAAAAAAB8LCfcuFEEAAAAE24AAAAAAAAAAKBAcAMAAAAAAAAAAAWCGwAAAABqIkauFqKbXCbl0wcAAADBDQAAAAAAAAAAFAhuAAAAAAAAAACgIHIMLAAAAADAZ+RKKfeKAAAAdGbCDQAAAAAAAAAAFAhuAAAAAAAAAACgQHADAAAAQE3EyKVC9JTLpPwbAAAAoDPBDQAAAAAAAAAAFAhuAAAAAAAAAACgIHIALAAAAADA5+VKKbeLAAAA9GTCDQAAAAAAAAAAFAhuAAAAAICynG2Tc24AAACgG8ENAAAAADURQ2YBAAAAdCa4AQAAAAAAAACAAsENAAAAAPAVtkoBAADQ1jH7AAAAAABsJjMLAAAAgLZMuAEAAAAAAAAAgALBDQAAAADwRbZKAQAA0JPgBgAAAICaiCGwAAAAADoT3AAAAAAAAAAAQIHgBgAAAAD4OlulAAAAaOiYfQAAAAAANpOBBQAAAEBb/wNIlljfgD5YLgAAAABJRU5ErkJggg==;" vertex="1" parent="1">
          <mxGeometry width="3024" height="1274" as="geometry" />
        </mxCell>
        <mxCell id="0Z_29NWZbNLmMxx830fi-2" value="" style="shape=image;verticalLabelPosition=bottom;labelBackgroundColor=default;verticalAlign=top;aspect=fixed;imageAspect=0;image=data:image/png,iVBORw0KGgoAAAANSUhEUgAAC9AAAAT6CAIAAACIn/0kAAAACXBIWXMAAAsTAAALEwEAmpwYAAAgAElEQVR4nOzdQXKbShRAUdqlXbD/pWkd/IFsnI9iyTeJAzjnjEhXSn5j6vJ6LMt1AgAAAPi3jTFP0+Q9CQAAAACf8bL3AAAAAAAAAAAAcCaCGwAAAAAAAAAACAQ3AAAAAAAAAAAQCG4AAAAAAAAAACAQ3AAAAAAAAAAAQCC4AQAAAAAAAACAQHADAAAAAAAAAACB4AYAAAAAAAAAAALBDQAAAAAAAAAABIIbAAAAAAAAAAAIBDcAAAAAAAAAABAIbgAAAAAAAAAAIBDcAAAAAAAAAABAILgBAAAAAAAAAIBAcAMAAAAAAAAAAIHgBgAAAAAAAAAAAsENAAAAAAAAAAAEghsAAAAAAAAAAAgENwAAAAAAAAAAEAhuAAAAAAAAAAAgENwAAAAAAAAAAEAguAEAAAAAAAAAgEBwAwAAAAAAAAAAgeAGAAAAAAAAAAACwQ0AAAAAAAAAAASCGwAAAAAAAAAACAQ3AAAAAAAAAAAQCG4AAAAAAAAAACAQ3AAAAAAAAAAAQCC4AQAAAAAAAACAQHADAAAAAAAAAACB4AYAAAAAAAAAAALBDQAAAAAAAAAABIIbAAAAAAAAAAAIBDcAAAAAAAAAABAIbgAAAAAAAAAAIBDcAAAAAAAAAABAILgBAAAAAAAAAIBAcAMAAAAAAAAAAIHgBgAAAAAAAAAAAsENAAAAAAAAAAAEghsAAAAAAAAAAAgENwAAAAAAAAAAEAhuAAAAAAAAAAAgENwAAAAAAAAAAEAguAEAAAAAAAAAgEBwAwAAAAAAAAAAgeAGAAAAAAAAAAACwQ0AAAAAAAAAAASCGwAAAAAAAAAACAQ3AAAAAAAAAAAQCG4AAAAAAAAAACAQ3AAAAAAAAAAAQCC4AQAAAAAAAACAQHADAAAAAAAAAACB4AYAAAAAAAAAAALBDQAAAAAAAAAABIIbAAAAAAAAAAAIBDcAAAAAAAAAABAIbgAAAAAAAAAAIBDcAAAAAAAAAABAILgBAAAAAAAAAIBAcAMAAAAAAAAAAIHgBgAAAAAAAAAAAsENAAAAAAAAAAAEghsAAAAAAAAAAAgENwAAAAAAAAAAEAhuAAAAAAAAAAAgENwAAAAAAAAAAEAguAEAAAAAAAAAgEBwAwAAAAAAAAAAgeAGAAAAAAAAAAACwQ0AAAAAAAAAAASCGwAAAAAAAAAACAQ3AAAAAAAAAAAQCG4AAAAAAAAAACAQ3AAAAAAAAAAAQCC4AQAAAAAAAACAQHADAAAAAAAAAACB4AYAAAAAAAAAAILL3gMAAAAAHMUY894jfGhZrnuPAAAAAMArG24AAAAAAAAAACCw4QYAAADglS0yAAAAAHyGDTcAAAAAAAAAABAIbgAAAAAAAAAAIBDcAAAAAAAAAABAILgBAAAAAAAAAIBAcAMAAAAAAAAAAIHgBgAAAAAAAAAAAsENAAAAAAAAAAAEghsAAAAAAAAAAAgENwAAAAAAAAAAEAhuAAAAAAAAAAAgENwAAAAAAAAAAEAguAEAAAAAAAAAgEBwAwAAAAAAAAAAgeAGAAAAAAAAAAACwQ0AAAAAAAAAAASCGwAAAAAAAAAACAQ3AAAAAAAAAAAQCG4AAAAAAAAAACAQ3AAAAAAAAAAAQCC4AQAAAAAAAACAQHADAAAAAAAAAACB4AYAAAAAAAAAAALBDQAAAAAAAAAABIIbAAAAAAAAAAAIBDcAAAAAAAAAABAIbgAAAAAAAAAAIBDcAAAAAAAAAABAILgBAAAAAAAAAIBAcAMAAAAAAAAAAIHgBgAAAAAAAAAAAsENAAAAAAAAAAAEghsAAAAAAAAAAAgENwAAAAAAAAAAEAhuAAAAAAAAAAAgENwAAAAAAAAAAEAguAEAAAAAAAAAgEBwAwAAAAAAAAAAgeAGAAAAAAAAAAACwQ0AAAAAAAAAAASCGwAAAAAAAAAACAQ3AAAAAAAAAAAQCG4AAAAAAAAAACAQ3AAAAAAAAAAAQCC4AQAAAAAAAACAQHADAAAAAAAAAACB4AYAAAAAAAAAAALBDQAAAAAAAAAABIIbAAAAAAAAAAAIBDcAAAAAAAAAABAIbgAAAAAAAAAAIBDcAAAAAAAAAABAILgBAAAAAAAAAIBAcAMAAAAAAAAAAIHgBgAAAAAAAAAAAsENAAAAAAAAAAAEghsAAAAAAAAAAAgENwAAAAAAAAAAEAhuAAAAAAAAAAAgENwAAAAAAAAAAEAguAEAAAAAAAAAgEBwAwAAAAAAAAAAgeAGAAAAAAAAAAACwQ0AAAAAAAAAAASCGwAAAAAAAAAACAQ3AAAAAAAAAAAQCG4AAAAAAAAAACAQ3AAAAAAAAAAAQCC4AQAAAAAAAACAQHADAAAAAAAAAACB4AYAAAAAAAAAAALBDQAAAAAAAAAABIIbAAAAAAAAAAAIBDcAAAAAAAAAABAIbgAAAAAAAAAAIBDcAAAAAAAAAABAILgBAAAAAAAAAIBAcAMAAAAAAAAAAIHgBgAAAAAAAAAAAsENAAAAAAAAAAAEghsAAAAAAAAAAAgENwAAAAAAAAAAEAhuAAAAAAAAAAAgENwAAAAAAAAAAEBw2XsAAAAAgKMYY957hA8ty3XvEQAAAAB4ZcMNAAAAAAAAAAAENtwAAAAAvLJFBgAAAIDPsOEGAAAAAAAAAAACwQ0AAAAAAAAAAASCGwAAAAAAAAAACAQ3AAAAAAAAAAAQCG4AAAAAAAAAACAQ3AAAAAAAAAAAQCC4AQAAAAAAAACAQHADAAAAAAAAAACB4AYAAAAAAAAAAALBDQAAAAAAAAAABIIbAAAAAAAAAAAIBDcAAAAAAAAAABAIbgAAAAAAAAAAIBDcAAAAAAAAAABAILgBAAAAAAAAAIBAcAMAAAAAAAAAAIHgBgAAAAAAAAAAAsENAAAAAAAAAAAEghsAAAAAAAAAAAgENwAAAAAAAAAAEAhuAAAAAAAAAAAgENwAAAAAAAAAAEAguAEAAAAAAAAAgEBwAwAAAAAAAAAAgeAGAAAAAAAAAAACwQ0AAAAAAAAAAASCGwAAAAAAAAAACAQ3AAAAAAAAAAAQCG4AAAAAAAAAACAQ3AAAAAAAAAAAQCC4AQAAAAAAAACAQHADAAAAAAAAAACB4AYAAAAAAAAAAALBDQAAAAAAAAAABIIbAAAAAAAAAAAIBDcAAAAAAAAAABAIbgAAAAAAAAAAIBDcAAAAAAAAAABAILgBAAAAAAAAAIBAcAMAAAAAAAAAAIHgBgAAAAAAAAAAAsENAAAAAAAAAAAEghsAAAAAAAAAAAgENwAAAAAAAAAAEAhuAAAAAAAAAAAgENwAAAAATMtynaZpjHnvQQAAAAA4AcENAAAAAAAAAAAEghsAAAAAAAAAAAgENwAAAAAAAAAAEAhuAAAAAAAAAAAgENwAAAAAAAAAAEAguAEAAAAAAAAAgEBwAwAAAAAAAAAAgeAGAAAAAAAAAAACwQ0AAAAAAAAAAASCGwAAAAAAAAAACAQ3AAAAAAAAAAAQCG4AAAAAAAAAACAQ3AAAAAAAAAAAQCC4AQAAAAAAAACAQHADAAAAAAAAAACB4AYAAAAAAAAAAALBDQAAAAAAAAAABIIbAAAAAAAAAAAIBDcAAAAAAAAAABAIbgAAAAAAAAAAIBDcAAAAAAAAAABAILgBAAAAAAAAAIBAcAMAAAAAAAAAAIHgBgAAAAAAAAAAAsENAAAAAAAAAAAEghsAAAAAAAAAAAgENwAAAAAAAAAAEAhuAAAAAAAAAAAgENwAAAAAAAAAAEAguAEAAAAAAAAAgEBwAwAAAAAAAAAAgeAGAAAAAAAAAAACwQ0AAAAAAAAAAASCGwAAAAAAAAAACAQ3AAAAAAAAAAAQXPYeAAAAAIB3Y8w/PV+W61+eBAAAAICPCG4AAAAA3n3UuwAAAADASnADAAAAcCA22QAAAAAcn+AGAAAA4J3eBQAAAICnXvYeAAAAAAAAAAAAzkRwAwAAAAAAAAAAgeAGAAAAAAAAAAACwQ0AAAAAAAAAAASCGwAAAAAAAAAACAQ3AAAAAAAAAAAQCG4AAAAAAAAAACAQ3AAAAAAAAAAAQCC4AQAAAAAAAACAQHADAAAAAAAAAACB4AYAAAAAAAAAAALBDQAAAAAAAAAABIIbAAAAAAAAAAAIBDcAAAAAAAAAABAIbgAAAAAAAAAAIBDcAAAAAAAAAABAILgBAAAAAAAAAIBAcAMAAAAAAAAAAIHgBgAAAAAAAAAAAsENAAAAAAAAAAAEghsAAAAAAAAAAAgENwAAAAAAAAAAEAhuAAAAAAAAAAAgENwAAAAAAAAAAEAguAEAAAAAAAAAgEBwAwAAAAAAAAAAgeAGAAAAAAAAAAACwQ0AAAAAAAAAAASCGwAAAAAAAAAACAQ3AAAAAAAAAAAQCG4AAAAAAAAAACAQ3AAAAAAAAAAAQCC4AQAAAAAAAACAQHADAAAAAAAAAACB4AYAAAAAAAAAAALBDQAAAAAAAAAABIIbAAAAAAAAAAAIBDcAAAAAAAAAABAIbgAAAAAAAAAAIBDcAAAAAAAAAABAILgBAAAAAAAAAIBAcAMAAAAAAAAAAIHgBgAAAAAAAAAAAsENAAAAAAAAAAAEghsAAAAAAAAAAAgENwAAAAAAAAAAEAhuAAAAAAAAAAAgENwAAAAAAAAAAEAguAEAAAAAAAAAgEBwAwAAAAAAAAAAgeAGAAAAAAAAAAACwQ0AAAAAAAAAAASCGwAAAAAAAAAACAQ3AAAAAAAAAAAQCG4AAAAAAAAAACAQ3AAAAAAAAAAAQCC4AQAAAAAAAACAQHADAAAAAAAAAACB4AYAAAAAAAAAAALBDQAAAAAAAAAABIIbAAAAAAAAAAAIBDcAAAAAAAAAABAIbgAAAAAAAAAAIBDcAAAAAAAAAABAILgBAAAAAAAAAIBAcAMAAAAAAAAAAIHgBgAAAAAAAAAAAsENAAAAAAAAAAAEghsAAAAAAAAAAAgENwAAAAAAAAAAEAhuAAAAAAAAAAAgENwAAAAAAAAAAEAguAEAAAAAAAAAgEBwAwAAAAAAAAAAgeAGAAAAAAAAAAACwQ0AAAAAAAAAAASCGwAAAAAAAAAACAQ3AAAAAAAAAAAQCG4AAAAAAAAAACAQ3AAAAAAAAAAAQHDZewAAAACAAxlj3nuEn1uW694jAAAAAPDKhhsAAAAAAAAAAAhsuAEAAAB4Z5EMAAAAAE/ZcAMAAAAAAAAAAIHgBgAAAAAAAAAAAsENAAAAAAAAAAAEghsAAAAAAAAAAAgENwAAAAAAAAAAEAhuAAAAAAAAAAAgENwAAAAAAAAAAEAguAEAAAAAAAAAgEBwAwAAAAAAAAAAgeAGAAAAAAAAAAACwQ0AAAAAAAAAAASCGwAAAAAAAAAACAQ3AAAAAAAAAAAQCG4AAAAAAAAAACAQ3AAAAAAAAAAAQCC4AQAAAAAAAACAQHADAAAAAAAAAACB4AYAAAAAAAAAAALBDQAAAAAAAAAABIIbAAAAAAAAAAAIBDcAAAAAAAAAABAIbgAAAAAAAAAAIBDcAAAAAAAAAABAILgBAAAAAAAAAIBAcAMAAAAAAAAAAIHgBgAAAAAAAAAAAsENAAAAAAAAAAAEghsAAAAAAAAAAAgENwAAAAAAAAAAEAhuAAAAALbGmMeY954CAAAAgIO67D0AAAAAwOEsy3V9Xsub9fDXTgAAAAD4Nmy4AQAAAAAAAACAYPjKCgAAAGB620njVQkAAAAAT9lwAwAAALA1xrzeCQUAAAAAG4IbAAAAAAAAAAAILnsPAAAAAHBo66qb9bapXzsBAAAA4NsQ3AAAAABsqWQAAAAAeGB4fwQAAAAwve2k8aoEAAAAgKde9h4AAAAAAAAAAADORHADAAAAsDXGfFt4AwAAAAD3LnsPAAAAAHBoa3mz3jb1aycAAAAAfBs23AAAAAAAAAAAQDB8ZQUAAAAwve2k8aoEAAAAgKdsuAEAAAAAAAAAgEBwAwAAAAAAAAAAgeAGAAAAYGuM+XbDFAAAAADcu+w9AAAAAMChreXNslx/82R9BgAAAODUbLgBAAAAAAAAAIBg+LIKAAAAYHrbSeNVCQAAAABP2XADAAAAAAAAAACB4AYAAAAAAAAAAALBDQAAAMDWGPPthikAAAAAuHfZewAAAACAQ1vLm2W5/ubJ+gwAAADAqdlwAwAAAAAAAAAAwfBlFQAAAMD0tpPGqxIAAAAAnrLhBgAAAAAAAAAAAsENAAAAAAAAAAAEghsAAACArTHm2w1TAAAAAHDvsvcAAAAAAIe2ljfLcv3Nk/UZAAAAgFOz4QYAAAAAAAAAAILhyyoAAADgRL7ipqfb65HbL3tVAgAAAMBTNtwAAAAAp/EVtc3X/SwAAAAA35XgBgAAAAAAAAAAAsENAAAA8K+7v0ZqjNnaGwAAAAA+ctl7AAAAAIBP+boCZoz5vrm5/7vr//mdkwd/CAAAAICzsOEGAAAAAAAAAACC4bMqAAAA4Cy+aMnN7fWIDTQAAAAAfJINNwAAAMA5fOmVUl/0ywAAAAB8S5e9BwAAAAAIHmyg+bUVNWobAAAAACpXSgEAAABM0/97HddLAQAAAPCADTcAAADAN/FFlcy6Amf95QOeaIMAAAAA/qaXvQcAAAAAAAAAAIAzcaUUAAAAwDS5RgoAAACAT7PhBgAAAAAAAAAAAsENAAAAAAAAAAAEghsAAACArTHm2w1TAAAAAHDvsvcAAAAAACeztjjLcq0n6z8BAAAAOC/BDQAAAMAj9+kMAAAAAP+44VURAAAAwPTxBhrBDQAAAAAbNtwAAAAAPKKzAQAAAGBDcAMAAADwbt1nczS6HwAAAIDjeNl7AAAAAAAAAAAAOBMbbgAAAADe3RbJ3PbcWCoDAAAAwE8JbgAAAAAeWS+ZWvubP3UCAAAAwEkJbgAAAAC2NDEAAAAAPDC8PwIAAACYXCMFAAAAwKe97D0AAAAAAAAAAACcieAGAAAAYGuM+bbwBgAAAADuCW4AAAAAAAAAACAQ3AAAAAAAAAAAQHDZewAAAACAw1mW6/q83i21Hv6pEwAAAABOyoYbAAAAAAAAAAAIhm+qAAAAAKa3DTRelQAAAADwlA03AAAAAFtjzOsNUAAAAACwIbgBAAAAAAAAAIBAcAMAAAAAAAAAAMFl7wEAAAAADmdZrnuPAAAAAMBxCW4AAAAAHhljvj2sFc6fOgEAAADgpFwpBQAAAAAAAAAAwfBNFQAAAMD0toHm9qrkx2cAAAAA2LDhBgAAAAAAAAAAAsENAAAAAAAAAAAEl70HAAAAADgcl0kBAAAA8IANNwAAAAAAAAAAENhwAwAAAPChMebbw7rz5k+dAAAAAHBeNtwAAAAAbI0xr4kMAAAAAGwMn1UBAAAATG9LaG6vSn58BgAAAIANG24AAAAAAAAAACC47D0AAAAAwOHYbQMAAADAAzbcAAAA/Mfe/YRYlp51AD7frdvd02pQEjIwHCWQSRyNiGTj4GKEGXCjggpuFMV2l40oCE3AhbgQ4mw0LkRc6IQEdSCgG7czYAakcRHxT3RM90iTXEcmiTiaTHf1dM9xcdO361ZV37pf1Tnn+/c8FMntryp13je3uvrec37n/QAAAAAAIILADQAAAAAAAAAARBC4AQAAADguhD6EPnUVAAAAAGRqmboAAAAAgKxtkjfDsBp3BQAAAIBCmXADAAAAAAAAAAARgnuqAAAAALqHE2icKgEAAADgTCbcAAAAAAAAAABABIEbAAAAAAAAAACIIHADAAAAcFwI/XqHKQAAAAA4SeAGAAAAAAAAAAAiCNwAAAAATOLojJz1yBxTcwAAAADqsExdAAAAAEB2hmG1frCJyJxvBQAAAIAqCdwAAAAATGKTvzn2GAAAAIDSBad7AAAAALqHY2mcKgEAAADgTIvUBQAAAABkJ4TetlAAAAAAPI7ADQAAAAAAAAAARBC4AQAAAAAAAACACMvUBQAAAABkZxhWqUsAAAAAIF8CNwAAAADRQug3oZwQ+vWDqBUAAAAAyiVwAwAAAPBYO6IzAAAAADRL4AYAAADguHWqZsc0mqOfOvll+6wAAAAAUC6BGwAAAIDHEp0BAAAA4CSBGwAAACBTM2zeJD0DAAAAwDksUhcAAAAAcIoZ0jY7jjIMK1kcAAAAAB7HhBsAAAAgX5OmXubJ9AAAAABQH4EbAAAAIF8yMQAAAABkyJZSAAAAQI7m2dHpcUcJoZf1AQAAAOBxTLgBAAAAcjRP3iWE/mTmZn3o9fqmjM2XjbgyT6gIAAAAgNEJ3AAAAAD5mjSSYoYNAAAAAOcT3EoFAAAAZGi2NMyxITROlQAAAABwpkXqAgAAAABOMU/wRbwGAAAAgHOwpRQAAACQo/0n3Jw7NBNCH0IvcwMAAABALIEbAAAAIDt77u400bZT9pYCAAAAYDeBGwAAAKBsE8VuAAAAAOBxFqkLAAAAADhuGFb7DJi5+BAaY2wAAAAAOAcTbgAAAIBSTbT309FvuBmfs1kscQUAAACAcZlwAwAAAAAAAAAAEYJbnQAAAIBCjTvhZqJ5OQAAAADUx5ZSAAAAQKkmCsdI3gAAAACwmy2lAAAAAAAAAAAggsANAAAAAAAAAABEsKUUAAAAwBabSQEAAACwmwk3AAAAAAAAAAAQQeAGAAAAAAAAAAAi2FIKAAAAYEsIffdwY6n14+7IPlPjrti+CgAAAKBEJtwAAAAAAAAAAECE4D4qAAAAgO7IyBmzZwAAAADYzZZSAAAAAFtEbQAAAADYzZZSAAAAAAAAAAAQQeAGAAAAAAAAAAAiCNwAAAAAbAmhD6FPXQUAAAAA+RK4AQAAAAAAAACACAI3AAAAAAAAAAAQIQzDKnUNAAAAAOllvo2UczgAAAAA+TDhBgAAAAAAAAAAIixTFwAAAACQEYNkAAAAADiTCTcAAAAAW0LoM99eCgAAAIC0BG4AAAAAAAAAACCCwA0AAAAAAAAAAERYpi4AAAAAIC/DsEpdAgAAAABZM+EGAAAAAAAAAAAiCNwAAAAAAAAAAEAEgRsAAACALSH0IfSpqwAAAAAgX8vUBQAAAADka5O8GYbV1CsAAAAAlMKEGwAAAAAAAAAAiBDcRAUAAADQPRw541QJAAAAAGcy4QYAAAAAAAAAACII3AAAAAAAAAAAQASBGwAAAIAtIfTr7aUAAAAA4FQCNwAAAAAAAAAAEEHgBgAAAAAAAAAAIixTFwAAAACQl2FYpS4BAAAAgKwJ3AAAAAA8Vgj9+sEmhTPdCgAAAAClsKUUAAAAAAAAAABECG6iAgAAAOgejpwZhtXmQeqKAAAAAMiUCTcAAAAAAAAAABBB4AYAAAAAAAAAACIsUxcAAAAAkBebSQEAAACwmwk3AAAAAAAAAAAQQeAGAAAAAAAAAAAiCNwAAAAAbAmhD6FPXQUAAAAA+RK4AQAAAAAAAACACMvUBQAAAADkazPqZhhWU68AAAAAUAqBGwAAAIAtEjAAAAAA7BacQgIAAADoHo6ccaoEAAAAgDMtUhcAAAAAAAAAAAAlEbgBAAAA2BJCv552AwAAAACnErgBAAAAAAAAAIAIAjcAAAAAAAAAABBhmboAAAAAgLwMwyp1CQAAAABkzYQbAAAAgK57mLMJoU9dCAAAAAC5E7gBAAAAAAAAAIAIAjcAAAAAW0LozbkBAAAAYIdl6gIAAAAA8rVJ3qw3nJp0BQAAAIBSmHADAAAAAAAAAAARgpuoAAAAANbWU2ecLQEAAABgNxNuAAAAAAAAAAAggsANAAAAAAAAAABEELgBAAAA2BJCv95bCgAAAABOJXADAAAAAAAAAAARBG4AAAAAAAAAACDCMnUBAAAAAHkZhlXqEgAAAADImgk3AAAAAAAAAAAQQeAGAAAAAAAAAAAi2FIKAAAAYEsIffdwY6n14+7IPlPTrQAAAABQChNuAAAAAAAAAAAgQnATFQAAAMDaZupMZ/AMAAAAAI9nSykAAACALaI2AAAAAOxmSykAAAAAAAAAAIggcAMAAAAAAAAAABEEbgAAAAC2hNCH0KeuAgAAAIB8CdwAAAAAAAAAAEAEgRsAAAAAAAAAAIiwTF0AAAAAQF6GYZW6BAAAAACyZsINAAAAAAAAAABEMOEGAAAA4LFC6NcPNmNvplsBAAAAoBQm3AAAAABsCaHfpGEAAAAA4KTgJioAAACAtaM5G+dMAAAAAHgcE24AAAAAAIp369UXbr36QuoqAAAAWrFMXQAAAABAXsy2AS7itZefe+rJS6mrAAAAYFoCNwAAwGjS3lT99POvJDw6cG5Hd3Gak1QNMJ0333o3Vebm1qsveFEEAAAwA1tKAQAANXjzrXdTlwCcR6q0TdpDA0zKxlIAAAAzMOEGAAAYR8JLO9I2ULr5h83sTtusP2sEDnARCYfcAAAAMAMTbgAAgBG4kRoAIB9emwEAAEzNhBsAAKBsxttABezuBFQp7ZCbW6++8PTzr6Q6OgAAQPVMuAEAAC7KZlLAuSXctmnHoYdhZT8pYBReqwAAANRK4AYAALgQGxYAAOTJ6zQAAIDp2FIKAAA4v7RXcdwyDhVIuJlUCP2ZY2w25W2+ctIVY3WgSmk3lgIAAGAiAjcAAABAYvMHTXYHfdafFX8BKnDr1Reefv6V1FUAAABUSOAGAAA4J+NtgOqdzNzMuQJUI+2QG5kbAACAKQjcAAAA5yFtA4wo4cZSAPOwsRQAAEBlFqkLAAAAANqVcKzLjkMPw8q8GaAmaaPSAAAAVTLhBgAAiGa8DTAi0RagETaWAgAAqIkJNwAAQBxpGwAAAAAAGmfCDQAAAMCWEPpu+tE766PszyggqIAhNwAAANUQuAEAACIYbwOMKzZ0MpZ9wiupagPqJnMDAABQB4EbAABgX2nTNgCVMbEGAAAAoFwCNwAAQBmMt4Eq5Rk6ybMqoBqG3B+gcm0AACAASURBVAAAAFRgkboAAACgDDaTAtIKobfHE8AojC0EAAC4OBNuAACAs7kqA7RpE/HZzLypeMVcH5jTm2+9e/P2vYQFPP18woMDAADUwIQbAAAgd8bbADMzTQcAAACA3Uy4AQAAzvDSi8+mLeAjH7qctgCgQetxLyeHvrSzAgAAAMAOAjcAAABAASRCAAAAAMiHLaUAAAAAtgj3AFO7efte6hIAAAC4EIEbAAAAAAAAAACIIHADAAAAAAAAAAARBG4AAIAzXLt+I3UJALMKoU9dAgAAAABZE7gBAAAAAAAAAIAIAjcAAAAAAAAAABBB4AYAAABgyzCsUpcAAAAAQNYEbgAAgEq89vJzqUsAAAAAAKAJAjcAAAAAAAAAABBhmboAAAAAgLyE0K93lQqhX69sNpmacwUAAACAbJlwAwAAAAAAAAAAEUy4AQAAADjdyWEzc64AAAAAkC0TbgAAAAC2yL4AAAAAsJvADQAAAAAAAAAARBC4AQAAAAAAAACACAI3AABA7m7evpe6BKAtIfSpSwAAAAAgawI3AAAAAAAAAAAQQeAGAAAAAKAh167fSF0CAABA8QRuAAAAALYMwyp1CQAAAABkTeAGAAAAAAAAAAAiCNwAAAAAAAAAAEAEgRsAAACALSH0qUsAAAAAIGvL1AUAAAAAZGqTvBmG1fwrAAAAAGTLhBsAAAAAgHG89vJzqUsAAABgDibcAAAAAGzZzJg5OWxmzhWgDp+79YFfevobqasAAABgZCbcAAAAAABM4o/+/rv+978PU1cBAADA+Ey4AQAAivS5Wx/ous794gBAzt7+xt3UJQAAADAJgRsAAKBIb331W13XdU+nrgOoUQi9DZ6AUbz99XXgxmlYAACA2thSCgAAKNLhnfuHd+6nrgIAYJe779y/+8793/gTc24AAABqI3ADAAAU6e2v333763c/+TmZGwAgU5/4/W/e/db99UfqWgAAABiZWaYAAEB5tm8T974GGJn9pIBR3H1HzgYAAKBaTkwDAADlcZs4AJC/sAipSwAAAGAqAjcAAEB53C8OAOTvie9w9hUAAKBa3vIBAADlcb84MKkQertKARcncAMAAFAxb/kAAIDyuHwFAOTPKxYAAICKecsHAACUx+UrAAAAAAAScpIaAAA427XrN1568dnUVTwicANMarOfVAh9whWgdNuvWIZkdQAAADABJ6kBAIDyuHwFAOTvytYrlneT1QEAAMAEBG4AAICy/c5fhd/+OZkbYBInh83MuQKU7mhE+A++sPyN5+4kLAYAAIBxCdwAAADluXJ8Sym3jANjCqEXfwFGceXqQeoSAAAAmITADQAAUJ4nBG4AgOxJ2wAAAFRM4AYAACiPy1cAQP6uXHX2FQAAoFre8gEAAABssZ8UMIqDS4vUJQAAADAVgRsAAKAwf/ov33PlauoiAAAAAABomHssAACAwhxcWhz72HzqtZefS1gYAAAAAACNELgBAAAA2BJCn7oEAAAAALImcAMAAAAAMJ+bt++lLgEAAICLErgBAAAAABjZZ/79/alLAAAAYEICNwAAAABbhmGVugQAAAAAsiZwAwAAAAAAAAAAEZapCwAAAADIVAj9+sFm5s2cKwAAAABky4QbAACgADdv30tdAtCQTfYFAAAAAE5lwg0AAADA6U4Om5lzBQAAAIBsmXADAAAAAAAAAAARBG4AAIDC/Mr3/3fqEoDKGTYDAAAAwG4CNwAAAAAAAAAAEEHgBgAAAAAAAAAAIgjcAAAAAGwJoU9dAgAAAABZW6YuAAAAAACgNstlSF3C6a5dv5G6BAAAgBqYcAMAAAAAAAAAABFMuAEAAMqT7S3jQB2GYZW6BKB4l59w6hUAAKBm3vUBAAAAAIzs8hMHR//4M+//z1SVAAAAMAWBGwAAoDxuGQcAAAAAICEnqQEAgPIcu2UcYFwh9HaVAi7IyxUAAIC6CdwAAAAAAIzs8hWBGwAAgJoJ3AAAAOVxyzgwjxD69YPNwJs5VwAAAADIlsANAABQHreMA5MSeQEubnl5sfXnB4nqAAAAYBoCNwAAQHlcwQLmcTJ5M+cKULRLl7fzwXcS1QEAAMA0Fmd/CQAAQNddu34jdQkAAMVYXl4c/UhdDgAAACMz4QYAACiPW8aBSYXQmzcDAAAAwA4CNwAAQHmO3yYucAMAZGZ5yVQbAACAmgncAAAAAACM4LWXn9s8Xi4FbgAAAGomcAMAAJTHLePA1ELoU5dwnF2uoCwHy5C6BAAAACbkJDUAAFCe5XJx9CN1OQAAx/3QV/85dQkAAABMyIQbAACgPG4ZByZllgwwisWBVywAAADVcicoAAAAwJYM95MCSrQ4CJuP1LUAAAAwMhNuAACA8rhqBQDkb7HwigUAAKBaAjcAAEB5BG4AgAIEr1gAAACqJXADAACUx/3iwKSGYZW6BKAGXq8AAABUTOAGAAAokPvFAQAAAABIZ5G6AAAAgGgf/fI/hK7bfAAAZGg48gEAAEBlBG4AAICqvPbyc6lLAIoXQr95sP44+qk5V0ZtC5jb8N6w/vjol/8hdS0AAACMzJZSAABAkTZ3iruCBQDkaXjPaBsAAIBqCdwAAABFcgULmMEwrLJaAcryzH/8479+6IdTVwEAAMAkBG4AAIAiCdwA05F0AcZy7/BB6hIAAACYhMANAABQpPcEbgCA7B2+8+BH//f11FUAAAAwvkXqAgAAAPZy8/a9o3/8wdv/dO/wgbvGAYCcSdsAAADUSuAGAAAo1eE7D37kv76UugqgQiH0qUsAAAAAIGsCNwAAQKncMg4AAAAAQBICNwAAAAAAAAAAEEHgBgAAAGDLMKxSlwAAAABA1gRuAAAAAAAAAAAggsANAAAAAMBMbt6+l7oEAAAARiBwAwAAALAlhD51CQAAAABkTeAGAAAAAAAAAAAiCNwAAAAAAAAAAEAEgRsAAACALcOwSl0CAAAAAFlbpi4AAAAAIEch9OsHm/xN2hUAAAAA8mHCDQAAAAAAAAAARDDhBgAAAGBLCP0wrE6Olkm7AnBx167fSF0CAABAJUy4AQAAAAAAAACACAI3AADAvtwSDQAAAAAAncANAAAAwDG2cwIAAABgN4EbAAAAAAAAAACIIHADAAAAAAAAAAARBG4AAAAAtoTQpy4BAAAAgKwJ3AAAAAAAAAAAQASBGwAAAAAAAAAAiCBwAwAAALBlGFapSwAAAAAgawI3AAAAAAAAAAAQQeAGAAAAAAAAAAAiCNwAAAAAAAAAAECEZeoCAAAAAADKcOvVF1KXAAAAQBYEbgAAAACA1knSAAAAEEXgBgAAqM2ZF8yefv6VeSoBihZCv34wDKscVoDzmTNJ89STl958693ZDgcAAEBCAjcAAEBz9rzwJpcDADkzkwYAAICEBG4AAICqPPXkpbG+1f6X8URzoEonR8ukXYGmlBumMeQGAACgEQI3AAAAFyWaAwB7KjdJAwAAAEcJ3AAAAPUYcbzNRERzAKiVJM2GITcAAAAtELgBAADIkWgOAJmQpAEAAICTBG4AAIBK5D/eZiKiOQCcjyTNdAy5AQAAqJ7ADQAAQCtEcwAaIUkDAAAAUxO4AQAAinHz9r2PfOjyqZ9qdrzNRERzAPIkSVMQQ24AAADqJnADAADA+YnmAIxCkgYAAADKInADAAAUz3ibIojmAG2SpGmZITcAAAAVE7gBAAAgL6I5wEUIuAAAAAAzELgBAADKZrxNy1xWZ3Q3X3mm86MFjMeQGwAAgFotUhcAAAAAAABAkULoU5cAAJCGwA0AAFAw420AgMx5uQJUT+YGAGiTwA0AAAAAAADnMQyrTuYGAGiSwA0A1MlpDqAF7hcHAIrgRQtQt3XmBgCgNQI3AFAhaRsAAAAAZiNzAwA0SOAGAGqzTts4zQFUz53iAEBBvHQBAACozDJ1AQDAmKRtgKldu37jpRefTV0FUJXf/MtF13WXnzhYf3Rdd7Bs9wahg4Nw+cpB13WXrhxcurxYXl50Xbe8dLC8tPiFD34ldXUAAGcLoXduCgBogcANANRD2gZoh3vEoTg/8WtvLS8trlxddl135erBlavLI4/bjddE+Yuvfd/BpXBwsDhYhsUidF23OAg/vbyVui5gX089eenNt95NXQXAHGRuAIAWCNwAQCWkbQCA3Pzqpw8P79w/vHP/8M6D1LVU628efCSErgvdT4abqWsBAOi6rhuGVQi9zA0AMJ1MXmkI3ABADaRtgKYYbwP5+/XPdod37qeuoi1/895HhveGB/eHn3nijdS1AI/11JOXbt6+l7oKgMmtMzepqwCAtmSSQZlNDpfGBG4AoHg5vKQAAFj71Bfe9823D7vO5eRkPv/2h37+u2+nrgJa9Ief+fo+X/bxj12duhKAHDhVRX0avJKt34q11i/1ySTdK3ADAGWTtgFaY7wN5OyP/+2DXXc3dRUA49szTHMmaRugTS7rQqFa+8vb2sl2/dbnaHet9dsl+pUlcAMABWvhBRPAMW9944xNap78gLc5kK/DO/evXPWXFMjIWEkaptbg+9/WWtZv9Rq8bN9Uv41o7TnNZHrEbPTbiNZ+PzfYbzfvr2snuQCgVA2emgHYx5mJnA3RHBjdJ37ga5/62vtSV9E6+0nBhjDNMdeu30hdwvmtrwm1dsGAirX2I91av2v6rVsj/R6bllF9y9U3eEyb/bYTM2qt3y5RjMz5ZQAokrQNwMXtGc2Ry4Eon3zu/7qu+/XPpq6jPT+1uNktnOmhFZI0bWrtgr1+qUxroxTa/JFusN+usTO0DT7FrfXbNfAj3XKMrIWneP5NppyGAaB4LbwkOqaFV0Uta/D5ba3l1vqtgJE5cA6f/uWu65Zdt/zFT+37N4jz+amDm6lLgJEJ07BDa6+i9Vu31vrt2mtZxqhurT2/XXtP8VqD5/E8xdXzFI/L6WC2tPYXrGuv5db67dpruc1XBqlLmFtrz3Jr/Taotae4tX5bY2QOnPTnn/zOYys/+1v/s+Pr7919cPmJgykrKtgvfPArqUuAC5GkAaA1rb39by2D0trz2zX5FLfWb9fYNRdPcfVmeIr3Pc/b4IWBZltuR2v9dlpuQGv9dg3/rm6n5db67dprubV+Yc3IHBr317/7PSfW3nv4n+/OXQ0wEmEaAKK0dp9k10zLLfT4OJ7iKrXWb9f2jkuNaPwpHr3ls8/eNnv5timblqv/G7XRWsut9ds13HI7/XZabkBr/XZNttwaTzGxjMwBIDlJGjLU4OtqLVevtX7XWrjId0xrLbfWb9deyw3+7mqz5db67dp7ijstX8Cu07JHcyeN/F+s5YSVzKbZHEan5ar557B6fqpboGXg3IzMAeB8hGko1HoyfFOXfxpsuTUNPsVabkRTJ3/afIq79gIZXUst+6muXmubanUTtPzYk63NXtjrtFy11lpurd9Oy23Qcguaeiu+puUWNNgyGTIyB6ARkjRA6Rq8wtdsy6mrmFVrLbfWb9dey+vfV1quW84/1Uf/0Tx5GeV8K6ceZZTvbCWflc36KN/5lLOozV7V67RcNS23QMstaLbldvrttNwGLUPmjMwByJkwDXRNvrTWcgu03ILWWp6032MnW3K7oNvOSue5qH3laOYmh3qOrkByW+dGj/5oNvJPvpYTVjKbBlvumryqp+UWaLkFDbYMUDQjcwBGJEkDECWTS31WrFhxuR1I4uh1hJPXFKxYmWfl2yc9G0wkNNhy95jYad203IIGW+6aDCVouQUNttw12bWWoUFyOQDCNGQik4ujVqyMsgI07thvgxwuu1qxYiXVCqSybDB30mDLXZPvRhpsuWuyay03osFr1Q223KYGn2gtAzvYygqO+sLffyt1CZzTF790J3UJAE3I7VKfFStWXG4HoDVh/V/t/LPU4IVqAaO0lcymwZa7Ji9heqIb0WDLXZNda7kRVXb90ovPJjz6Mx++kvDo5O/1Nw5TlwC0TuCGHT7+sasJj37t+o2ERwcYdw+gfd5oJzliZWcAAIAdlu38w9/gVWpRm7SVzKnBrhtsuav0ku1unuh2nK/rOrZqrqOLKA223FXX9Z/93vemLgEAAICmzR9t2fOIMjcA0I4mpnDLnaStZE4Ndt1gy932X+rKrl/uo8GWuya7brDlrtWuAQAAANox1qnsEPr9oy2jHHSfIw7DKqowAKBoBQduzndNrsEreQ223DXZdYMtAzhzAamk3VIKAACAEo0bRtnnu60/NdZB96xf5gYA2rF0kR4ol3csAAAAAAClmD9zM+5BZW4AgKMKnnDjZQpA6cYNfe65g/LMRwQAAAAANjZhlG6M02syNwBAQkv/0gMwvyTz1Uof6ub9OcDa628cPvPhK6mrAAAA4JzWYZRupPNdMjcAQCoFT7gBoFCb4MsobzX3vBtmrJtmxv1WsQcFAAAAgAqsz62Vm4DZc05P2szNiGcUZYYA4FSL1AUA0JbNu9DZsi8jjqjd84ijS3JQAAAAAJjUJnYz27ca/YhnfrcRjwgA5MaEGwDmM25wZM+0zfqBtA0AAAAA5KbonZ72nNOz5zic0TmjCABTM+EGgJmMO2Zm/7TNnNN0xpXkfTgAAAAAzKnoOTd7frc9x+EAAGURuAFgDqNv6nTmd5t/ms64xp3NAwAAAADZaiRzY3spAKiMLaUAmFaSTZ3qSNuI2gAAAADQiKP7Lo1i/72lxjpi1EGd+gOACphwA8CEpG2KOCIAAAAAJDf/CbEkp+Cc9wOAaphwA8BUkgRfpG0AZnDt+o2XXnw2dRUAAADURuYGACiICTcATELapogjAkB9nvnwldQlAAAAAAD1M+EGgPGVnrYZdyesqINK2wAAAAAAAED+BG4AGNn5giObjMupdn+3o//b3d8nirQNAAAAAAAAcCqBGwDGtMm7FBp8SXXEVAcFAAAAAAAAzkHgBoAsXCRuUkFUpYIWAAAAAAAAoB0CNwCMSXAEAAAAAAAAqN4idQEAAAAAAAAAAFASgRsAAAAAAAAAAIggcAMAAAAAAAAAABEEbgAAAABgHF/80p3UJQAAAABzWKYuAAAAAACgcp9+6R9TlwAAAMCYBG4AAAAAAM5PmAYAAKBBAjcAAAAAAKcTpgEAAOBUYRhWqWsAAAAY2d99/sdTl0Ayr79xmLoEoF1f/NKd1CUQQZgGAACAczPhBgAAqNCP/fzfnvk1QjkAUDFhGgAAACYlcAMAADRqn1BOJ5cDAFmSpwEAACAtgRsAAIBd5HIAYGbCNAAAAORP4AYAAGAEcjkAsA9hGgAAAOogcAMAADCffXI5QjkAFEqYBgAAgHYI3AAAAOTFsBwAMiRMAwAAAEcJ3AAAABRJLgeAsQjTAAAAQCyBGwAAgJrJ5QAgTwMAAACjE7gBAABALgegVMI0AAAAkITADQAAAPvaJ5cjlAMwFmEaAAAAyJbADQAAAGMyLAdgH8I0AAAAUDSBGwAAABKQywEqJkwDAAAA1QvDsEpdAwAAAFzI0VzO628cJqykGteu30hdQhoh9KlLOIMzOQAAAAA5ELgBAAAA+LZ14MbZEgAAAAB2W6QuAAAAAAAAAAAASiJwAwAAAAAAAAAAEQRuAAAAAAAAAAAggsANAAAAAAAAAABEELgBAAAAAAAAAIAIAjcAAAAAAAAAABBB4AYAAAAAAAAAACII3AAAAAAAAAAAQASBGwAAAAAAAAAAiCBwAwAAAAAAAAAAEQRuAAAAAAAAAAAggsANAAAAAAAAAABEELgBAAAAAAAAAIAIAjcAAAAAAAAAABBB4AYAAAAAAAAAACII3AAAAAAAAAAAQASBGwAAAAAAAAAAiCBwAwAAAAAAAAAAEQRuAAAAAAAAAAAgwjJ1AQAAAAB5CaFPXcIuw7BKXQIAAABA60y4AQAAAAAAAACACCbcAAAAAGwxQgYAAACA3Uy4AQAAAAAAAACACAI3AAAAAAAAAAAQQeAGAAAAAAAAAAAiCNwAAAAAAAAAAEAEgRsAAAAAAAAAAIggcAMAAAAAAAAAABEEbgAAAAAAAAAAIILADQAAAAAAAAAARBC4AQAAAOi6rguh77puGFapCwEAAAAgdwI3AAAAAAAAAAAQQeAGAAAA4JH1nBsAAAAA2EHgBgAAAAAAAAAAIgjcAAAAAAAAAABAhGXqAgAAAAAyMgyr9YPN3lKZrAAAAACQDxNuAAAAAAAAAAAgQnCbFAAAAED3cKiMUyUAAAAAnMmEGwAAAIBHNns5AQAAAMDjCNwAAAAAAAAAAEAEgRsAAAAAAAAAAIggcAMAAADwyDCsUpcAAAAAQO6WqQsAAAAAqFYI/UTfWTAIAAAAICGBGwAAAIBHpovIAAAAAFANgRsAAACAqZhDAwAAAFAlgRsAAACALVIyAAAAAOy2SF0AAAAAAAAAAACUROAGAAAA4BHjbQAAAAA4k8ANAAAAAAAAAABEELgBAAAAAAAAAIAIAjcAAAAAj4TQpy4BAAAAgNwJ3AAAAAAAAAAAQASBGwAAAAAAAAAAiCBwAwAAAPDIMKxSlwAAAABA7gRuAAAAAAAAAAAggsANAAAAAAAAAABEELgBAAAAeCSEPnUJAAAAAORO4AYAAAAAAAAAACII3AAAAAAAAAAAQASBGwAAAIBHhmGVugQAAAAAcidwAwAAAAAAAAAAEQRuAAAAAAAAAAAggsANAAAAwCMh9KlLAAAAACB3AjcAAAAAAAAAABBB4AYAAAAAAAAAACII3AAAAAA8Mgyr1CUAAAAAkDuBGwAAAAAAAAAAiLBMXQAAAABARkLoU5ewL8N4AAAAAFIx4QYAAAAAAAAAACKYcAMAAACwxeQYAAAAAHYz4QYAAAAAAPj/9u4gt40sWcNohpGrqLv/pWVvI96AslJ8LpGKsq0IkucMGoaAavz2TMTHuAAAQIHgBgAAAODkvA0AAAAAdwluAAAAAAAAAACgQHADAAAAAAAAAAAFghsAAACAU8SKWN0rAAAAABhNcAMAAAAAAAAAAAWCGwAAAAAAAAAAKNi7BwAAAAAMknl0TwAAAABgOhduAAAAAAAAAACgQHADAAAAAAAAAAAFghsAAACAU8SKWN0rAAAAABhNcAMAAAAAAAAAAAWCGwAAAAAAAAAAKNi7BwAAAAAMknl0TwAAAABgOhduAAAAAAAAAACgQHADAAAAAAAAAAAFghsAAACAU8SKWN0rAAAAABhNcAMAAAAAAAAAAAWCGwAAAAAAAAAAKNi7BwAAAAAMknl0TwAAAABgOhduAAAAAAAAAACgQHADAAAAAAAAAAAFghsAAACAU8SKWN0rAAAAABht7x4AAAAAMM6jNDeZR/cEAAAAgFfkwg0AAAAAAAAAABS4cAMAAABwcjMGAAAAgLtcuAEAAAAAAAAAgALBDQAAAAAAAAAAFAhuAAAAAE4RK2J1rwAAAABgNMENAAAAAAAAAAAUCG4AAAAAAAAAAKBg7x4AAAAAMEjm0T0BAAAAgOlcuAEAAAAAAAAAgALBDQAAAAAAAAAAFAhuAAAAAE4RK2J1rwAAAABgNMENAAAAAAAAAAAUCG4AAAAAAAAAAKBg7x4AAAAAMEjm0T0BAAAAgOlcuAEAAAAAAAAAgALBDQAAAAAAAAAAFAhuAAAAAE4RK2J1rwAAAABgNMENAAAAAAAAAAAUCG4AAAAAAAAAAKBg7x4AAAAAMEjm8f7n97el3n/Y+xMAAAAAhnDhBgAAAAAAAAAACsJ3pAAAAAC2nxdlfFQCAAAAwF0u3AAAAACcItb7W04AAAAA8K8ENwAAAAAAAAAAUCC4AQAAAAAAAACAgr17AAAAAMAgmUf3BAAAAACmc+EGAAAAAAAAAAAKXLgBAAAAOEWs7gllrvIAAAAAfDMXbgAAAAAAAAAAoMCFGwAAAID/z80YAAAAAG5w4QYAAAAAAAAAAApcuAEAAAA4uW0DAAAAwF0u3AAAAAAAAAAAQIHgBgAAAAAAAAAACgQ3AAAAAKeIFbG6VwAAAAAwmuAGAAAAAAAAAAAKBDcAAAAAAAAAAFCwdw8AAAAAGCTz6J4AAAAAwHQu3AAAAAAAAAAAQIHgBgAAAAAAAAAACgQ3AAAAAKeIFbG6VwAAAAAwmuAGAAAAAAAAAAAKBDcAAAAAAAAAAFCwdw8AAAAAGCTz6J4AAAAAwHQu3AAAAAAAAAAAQIHgBgAAAAAAAAAACgQ3AAAAAKeIFbG6VwAAAAAwmuAGAAAAAAAAAAAKBDcAAAAAAAAAAFCwdw8AAAAA6Hd5Rirz6B4CAAAAwANw4QYAAAAAAAAAAAoENwAAAAAAAAAAUCC4AQAAADhFrMvzUgAAAADwGcENAAAAAAAAAAAUCG4AAAAAAAAAAKBg7x4AAAAAMEjm0T0BAAAAgOkENwAAAABvIlb3hP9OKgQAAADwbTwpBQAAAAAAAAAABS7cAAAAALzJPC5HblyLAQAAAOAGF24AAAAAAAAAAKBAcAMAAAAAAAAAAAWelAIAAAA4eUwKAAAAgLtcuAEAAAAAAAAAgALBDQAAAAAAAAAAFAhuAAAAAE4RK2J1rwAAAABgNMENAAAAAAAAAAAUCG4AAAAAAAAAAKBg7x4AAAAAMEjm0T0BAAAAgOlcuAEAAAAAAAAAgALBDQAAAAAAAAAAFAhuAAAAAE4RK2J1rwAAAABgNMENAAAAAAAAAAAUCG4AAAAAAAAAAKBg7x4AAAAAMEjm0T0BAAAAgOlcuAEAAAAAAAAAgALBDQAAAAAAAAAAFAhuAAAAAE4RK2J1rwAAAABgNMENAAAAAAAAAAAUCG4AAAAAAAAAAKBg7x4AAAAAMEjm0T0BAAAAgOlcuAEAAAAAAAAAgALBDQAAAAAAAAAAFAhuAAAAAE4RK2J1rwAAAABgNMENAAAAAAAAAAAUCG4AAAAAAAAAAKBg7x4AAAAAMEjm0T0BAAAAgOlcuAEAAAAAAAAAgAIXbgAAAADeRKzuCb/FeR4AoQRA3AAAEmRJREFUAACA7+HCDQAAAAAAAAAAFLhwAwAAAPAm87gcuXEqBgAAAIAbXLgBAAAAAAAAAIACF24AAAAATm7bAAAAAHCXCzcAAAAAAAAAAFAguAEAAAAAAAAAgALBDQAAAMApYkWs7hUAAAAAjCa4AQAAAAAAAACAgr17AAAAAMBQ76duMo8JPwEAAABgCMENAAAAwEndAgAAAMBd4VMkAAAAgMs5GZ+TAAAAAPAVP7oHAAAAAAAAAADAIxHcAAAAAJwi1uXaDQAAAAB8RnADAAAAAAAAAAAFghsAAAAAAAAAACjYuwcAAAAADJJ5dE8AAAAAYDoXbgAAAAAAAAAAoEBwAwAAAAAAAAAABYIbAAAAgFPEiljdKwAAAAAYTXADAAAAAAAAAAAFghsAAAAAAAAAACjYuwcAAAAADJJ5dE8AAAAAYDoXbgAAAAAAAAAAoEBwAwAAAAAAAAAABYIbAAAAgFPEiljdKwAAAAAYTXADAAAAAAAAAAAFghsAAAAAAAAAACjYuwcAAAAAL+Gb32nKPL75PwQAAADgdQhuAAAAgNM3ZzF/T8SSzgAAAADwlwhuAAAAgDd/tbb5zvzlabIhAAAAAGYS3AAAAABXXvwwzCXWefF/BAAAAABu+9E9AAAAAAAAAAAAHokLNwAAAAB/kfetfodTQwAAAMBMghsAAACAN+9xjEoGAAAAgBsENwAAAMC2/UxMHBT54/yTAgAAADwfwQ0AAADAG3EMAAAAAF/xo3sAAAAAwCARy3tSAAAAANwmuAEAAAAAAAAAgAJPSgEAAAAnx10AAAAA4C4XbgAAAIBt27bMo3vCn/Sf/zqZx5P9UwAAAADwx7lwAwAAALwRmgAAAADAV7hwAwAAAAAAAAAABYIbAAAAgFPEiljdKwAAAAAYTXADAAAAPBXFDAAAAAB/2949AAAAAJjimTqViJV5dK8AAAAA4DkJbgAAAICnSm0yj9/568h0AAAAALhLcAMAAAC80ZoAAAAAwFf86B4AAAAAAAAAAACPRHADAAAAcIpYz/TAFgAAAAB/g+AGAAAAAAAAAAAKBDcAAAAAAAAAAFCwdw8AAAAAGCTz6J4AAAAAwHQu3AAAAAAAAAAAQIHgBgAAAAAAAAAACgQ3AAAAwFOJWNtvvAwVsS7/DwAAAADwmb17AAAAADCF0AQAAAAAvsKFGwAAAOC/34OZ6cn+OgAAAABM48INAAAAsG0ilZ/8OwAAAABwlws3AAAAAAAAAABQILgBAAAAAAAAAIACT0oBAAAAW8TqnvAn/c6zUJd/Cg9LAQAAAHCDCzcAAAAAAAAAAFDgwg0AAADgoAsAAAAAFAhuAAAAAE7aIwAAAADu8qQUAAAAAAAAAAAUCG4AAAAAAAAAAKBAcAMAAABwilgRq3sFAAAAAKMJbgAAAAAAAAAAoCAyj+4NAAAAAM2e76qNz3wAAAAA/h4XbgAAAAAAAAAAoGDvHgAAAAAwhaswAAAAAHyFCzcAAAAAAAAAAFAguAEAAAA4RayI1b0CAAAAgNEENwAAAAAAAAAAUCC4AQAAAAAAAACAgsg8ujcAAAAAdLq8IeVDEgAAAAC+yIUbAAAAAAAAAAAoENwAAAAAAAAAAECB4AYAAADgFLEuL0wBAAAAwGcENwAAAAAAAAAAUCC4AQAAAAAAAACAgr17AAAAAMAgmUf3BAAAAACmc+EGAAAAAAAAAAAKBDcAAAAAAAAAAFDgSSkAAACAU8Tafj4sdfnz9uGdqd6fAAAAADCECzcAAAAAAAAAAFAQviMFAAAAvLhfr9r4wAQAAACAGzwpBQAAAHCS2gAAAABwlyelAAAAAAAAAACgwIUbaHC5T36br1QCAAAAAAAAwEwu3AAAAACcItZXviYBAAAAwCtz4QYa3Lhec/lU13kbAAAAAAAAABjLhRsYRG0DAAAAAAAAAPO5cANTqG0AAAAm8HsZAAAAAHe5cAMjqG0AAAAAAAAA4FEIbqCf2gYAAAAAAAAAHojgBpqpbQAAAEaJWJff1AAAAADgM4Ib6KS2AQAAAAAAAICHI7iBNmobAAAAAAAAAHhEe/cAeFFqGwAAgJn8pgYAAADAXS7cQAO1DQAAAAAAAAA8LhduoM0lu/mMHAcAAAAAAAAAZnLhBgAAAOAUsW5/QQIAAAAAXLiBBq7XAAAAAAAAAMDjcuEGAAAAAAAAAAAKXLgBAAAAODlKCgAAAMBdghsAAACAbdu2iNU94c/TDwEAAAD8DZ6UAgAAAAAAAACAAhduAAAAALbt5zGYy50bh2EAAAAAuMGFGwAAAAAAAAAAKBDcQL+IfyL+6V4BAAAAAAAAAHyJJ6UAAAAATh6TAgAAAOAuF24AAAAAAAAAAKBAcAMAAAAAAAAAAAWCGwAAAIBTxIpY3SsAAAAAGE1wAwAAAAAAAAAABYIbAAAAAAAAAAAo2LsHAAAAAAySeXRPAAAAAGA6F24AAAAAAAAAAKBAcAMAAAAAAAAAAAWCGwAAAIBTxIpY3SsAAAAAGE1wAwAAAAAAAAAABYIbAAAAAAAAAAAo2LsHAAAAAAySeXRPAAAAAGA6F24AAAAAAAAAAKBAcAMAAAAAAAAAAAWCGwAAAIBTxIpY3SsAAAAAGE1wAwAAAAAAAAAABYIbAAAAAAAAAAAo2LsHAAAAAAySeXRPAAAAAGA6F24AAAAAAAAAAKBAcAMAAAAAAAAAAAWCGwAAAIBTxIpY3SsAAAAAGE1wAwAAAAAAAAAABYIbAAAAAAAAAAAo2LsHAAAAAAySeXRPAAAAAGA6F24AAAAAAAAAAKBAcAMAAAAAAAAAAAWCGwAAAIBTxIpY3SsAAAAAGE1wAwAAAAAAAAAABYIbAAAAAAAAAAAo2LsHAAAAAAySeXRPAAAAAGA6F24AAAAAAAAAAKBAcAMAAAAAAAAAAAWCGwAAAIBTxIpY3SsAAAAAGE1wAwAAAAAAAAAABYIbAAAAAAAAAAAo2LsHAAAAAIzw8SWp53tVKvPongAAAADwPFy4AQAAAAAAAACAAhduAAAAALbNDRgAAAAAvsyFGwAAAIBTxHq+96QAAAAA+LMENwAAAAAAAAAAUCC4AQAAAAAAAACAgr17AAAAAMAgmUf3BAAAAACmc+EGAAAAAAAAAAAKBDcAAAAAAAAAAFAguAEAAAA4RayI1b0CAAAAgNEENwAAAAAAAAAAUCC4AQAAAAAAAACAAsENAAAAwCnzyDy6V5y8bwUAAAAw0N49AAAAAGCo99jlPcFp+QkAAAAA07hwAwAAADDXqHM7AAAAAFyET22gXcQ/27Zl/q97CAAAwIu63JK5fEjy8c8AAAAA8K9cuAEAAAAAAAAAgALBDQAAAAAAAAAAFOzdAwAAAAAG8ZgUAAAAAHe5cAMAAAAAAAAAAAWCGwAAAAAAAAAAKBDcAAAAAJwiVsTqXgEAAADAaIIbAAAAAAAAAAAoENwAAAAAAAAAAEDB3j0AAAAAYJDMo3sCAAAAANO5cAMAAAAAAAAAAAWCG4aKWN0TAAAAAAAAAAD+heCGHrd7GrUNAAAAXSKWX0sBAAAAuE1wQ5vPPr68/Dzz+N45AAAAAAAAAABfIrihx6Wn+bW5UdsAAAAAAAAAAMMJbmjza3OjtgEAAKBd5uE3UwAAAABuE9zQ6WNzo7YBAAAAAAAAAB7C3j2AV5d5RKxybfPLW1QPLrsHAAAAAAAAAABf5cINDJCxZXSPAAAAYNu27f1rIQAAAADwGRduaPZ+2+bygeZXj9w818tTuW2xrdhWbk/19wIAAAAAAACAp+TCDZ0+viR1+V9fIgQAAAAAAAAAhhPc0OZjbXOhuQEAAKBd5vHV86sAAAAAvCrBDT1+rW0uNDcAAAAAAAAAwHCCG9p89n1BzQ0AAAAAAAAAMJnghh63r3O73Q0AAECXiOVLIAAAAADcJrhhKM0NAAAAAAAAADCT4AYAAAB4aZd7Nr74AQAAAMDX7d0DAAAAAAZR3gAAAABwlws3MNTlG5YAAAAAAAAAwDQu3ECPiHXjS5NqGwAAgG/2Ir+Iud8DAAAA8Ee4cANtPvsw9/Jzn4ECAAAAAAAAwEwu3ECPzCNi/XrnRm0DAADQ4v0XMb+XAQAAAHCXCzfQ5vLp7dsnuduR2+FTXQAAAAAAAACYT3ADnT42N2obAACACTIPv5oBAAAAcJvgBppd3bnxkS4AAAAAAAAAjCe4gSnUNgAAAAAAAADwEAQ30MxtGwAAgFEi1uU3NQAAAAD4jOAGOqltAAAAAAAAAODhCG6gjdoGAAAAAAAAAB7R3j0AXpTaBgAAYCa/qQEAAABwlws30MZnuAAAAAAAAADwiAQ30ENtAwAAAAAAAAAPSnADAAAAcIpYl1eAAQAAAOAzghsAAAAAAAAAACgQ3AAAAAAAAAAAQMHePQAAAABgkMyjewIAAAAA07lwAwAAAAAAAAAABYIbAAAAAAAAAAAoENwAAAAAnCJWxOpeAQAAAMBoghsAAAAAAAAAACgQ3AAAAAAAAAAAQMHePQAAAABgkMyjewIAAAAA07lwAwAAAAAAAAAABYIbAAAAAAAAAAAoENwAAAAAXIlYEat7BQAAAABzCW4AAAAAAAAAAKBAcAMAAAAAAAAAAAV79wAAAACAWTKP7gkAAAAAjObCDQAAAAAAAAAAFAhuAAAAAAAAAACgQHADAAAAcCViRazuFQAAAADMJbgBAAAAAAAAAIACwQ0AAAAAAAAAABTs3QMAAAAAZsk8uicAAAAAMJoLNwAAAAAAAAAAUCC4AQAAAAAAAACAAsENAAAAwJWIFbG6VwAAAAAwl+AGAAAAAAAAAAAKBDcAAAAAAAAAAFCwdw8AAAAAmCXz6J4AAAAAwGgu3AAAAAAAAAAAQIHgBgAAAAAAAAAACjwpBQAAAHAlYm3blnlc/rB9eGSq9ycAAAAADOHCDQAAAAAAAAAAFITvSAEAAACv7P2ezY2fAAAAAMBHnpQCAAAAuCK1AQAAAOA2wQ0AAADA21Wb1yEqAgAAAPgdP7oHAAAAAAAAAADAI3HhBgAAAODq4svl2o0bMAAAAAB8xoUbAAAAAAAAAAAoENwAAAAAAAAAAECBJ6UAAAAArnhMCgAAAIDbXLgBAAAAAAAAAIACwQ0AAAAAAAAAABQIbgAAAACuRKyI1b0CAAAAgLkENwAAAAAAAAAAUCC4AQAAAAAAAACAgr17AAAAAMAsmUf3BAAAAABGc+EGAAAAAAAAAAAKBDcAAAAAAAAAAFAguAEAAAC4ErEiVvcKAAAAAOYS3AAAAAAAAAAAQIHgBgAAAAAAAAAACvbuAQAAAACzZB7dEwAAAAAYzYUbAAAAAAAAAAAoENwAAAAAAAAAAECB4AYAAADgSsSKWN0rAAAAAJhLcAMAAAAAAAAAAAWCGwAAAAAAAAAAKNi7BwAAAADMknl0TwAAAABgNBduAAAAAAAAAACgQHADAAAAAAAAAAAFghsAAACAKxErYnWvAAAAAGAuwQ0AAAAAAAAAABQIbgAAAAAAAAAAoGDvHgAAAAAwS+bRPQEAAACA0Vy4AQAAAAAAAACAAsENAAAAAAAAAAAUCG4AAAAArkSsiNW9AgAAAIC5BDcAAAAAAAAAAFAguAEAAAAAAAAAgIK9ewAAAADALJlH9wQAAAAARnPhBgAAAAAAAAAACgQ3AAAAAAAAAABQILgBAAAAuBKxIlb3CgAAAADmEtwAAAAAAAAAAECB4AYAAAAAAAAAAAr27gEAAAAAs2Qe3RMAAAAAGM2FGwAAAAAAAAAAKBDcAAAAAAAAAABAgeAGAAAA4ErEiljdKwAAAACYS3ADAAAAAAAAAAAFghsAAAAAAAAAACjYuwcAAAAAzJJ5dE8AAAAAYDQXbgAAAAAAAAAAoEBwAwAAAAAAAAAABYIbAAAAgCsRK2J1rwAAAABgrr17AAAAAADf5NeQKPNoWQIAAADw0AQ3AAAAAP9SojhyAwAAAMBnBDcAAAAAr8I9GwAAAIA/QnADAAAAoEQBAAAAoOBH9wAAAAAAAAAAAHgkghsAAACAKxErYnWvAAAAAGAuwQ0AAAAAAAAAABQIbgAAAAAAAAAAoGDvHgAAAAAwS+bRPQEAAACA0Vy4AQAAAAAAAACAAsENAAAAAAAAAAAUCG4AAAAArkSsiNW9AgAAAIC5BDcAAAAAAAAAAFAguAEAAABe1+WSTebRPQQAAACAR7J3DwAAAACYRX8DAAAAwG0u3AAAAAAAAAAAQIHgBgAAAAAAAAAACgQ3AAAAAFciVsTqXgEAAADAXP8HuDX0vMUFJTIAAAAASUVORK5CYII=;" vertex="1" parent="1">
          <mxGeometry x="50" y="1360" width="3024" height="1274" as="geometry" />
        </mxCell>
        <mxCell id="0Z_29NWZbNLmMxx830fi-3" value="" style="shape=image;verticalLabelPosition=bottom;labelBackgroundColor=default;verticalAlign=top;aspect=fixed;imageAspect=0;image=data:image/png,iVBORw0KGgoAAAANSUhEUgAAC9AAAAT6CAIAAACIn/0kAAAACXBIWXMAAAsTAAALEwEAmpwYAAAgAElEQVR4nOzdWXajyBZAUfDyLDT/oXkceh/k4lEQQNBGt/eqj8pMWcLVyAgd3dt/v38dAAAAAA3r+0/XdS4TAQAAAET6SX0AAAAAAAAAAABQEsENAAAAAAAAAAAcILgBAAAAAAAAAIADBDcAAAAAAAAAAHCA4AYAAAAAAAAAAA4Q3AAAAAAAAAAAwAGCGwAAAAAAAAAAOEBwAwAAAAAAAAAABwhuAAAAAAAAAADgAMENAAAAAAAAAAAcILgBAAAAAAAAAIADBDcAAAAAAAAAAHCA4AYAAAAAAAAAAA4Q3AAAAAAAAAAAwAGCGwAAAAAAAAAAOEBwAwAAAAAAAAAABwhuAAAAAAAAAADgAMENAAAAAAAAAAAcILgBAAAAAAAAAIADBDcAAAAAAAAAAHCA4AYAAAAAAAAAAA4Q3AAAAAAAAAAAwAGCGwAAAAAAAAAAOEBwAwAAAAAAAAAABwhuAAAAAAAAAADgAMENAAAAAAAAAAAcILgBAAAAAAAAAIADBDcAAAAAAAAAAHCA4AYAAAAAAAAAAA4Q3AAAAAAAAAAAwAGCGwAAAAAAAAAAOEBwAwAAAAAAAAAABwhuAAAAAAAAAADgAMENAAAAAAAAAAAcILgBAAAAAAAAAIADBDcAAAAAAAAAAHCA4AYAAAAAAAAAAA4Q3AAAAAAAAAAAwAGCGwAAAAAAAOAlff/p+0/qowCAqwQ3AAAAAAAAAABwwG/qAwAAAAAAAABa8f3+pT4EALiBCTcAAAAAAADAg6Y7pKyUAqAOghsAAAAAAADgKcG8ZpngqHAAKIuVUgAAAAAAAMAjhoxmukZq+PvtvGb8U/unAMiW4AYAAAAAAAB4SjCaWSY42yQ4AORGcAMAAAAAAAA84lwfE5/g6G8ASEVwAwAAAAAAANzjoQ5GWANAbgQ3AAAAAAAAwA3GxU8vkOAAkJbgBgAAAAAAALiHDgaARvykPgAAAAAAAACgBmobANohuAEAAAAAAABOenONFADkQ3ADAAAAAAAAnKG2AaBZv6kPAAAAAAAAACjPUNsMa6TG8sZWKQAaYcINAAAAAAAAcMZGXtP3n+Gv6e+8clAA8AYTbgAAAAAAAIDDprVN5GCb6VCc5S8BoCAm3AAAAAAAAAD7ZhNrtn2/f8Nf099Zu9tzDwEACZlwAwAAAAAAAOy4pYOZNTfDLxU2AJRIcAMAAAAAAADse2j304nVVACQnJVSAAAAAAAAwA4pDABMCW4AAAAAAACAAMueAGCNlVIAAAAAAADAf0htAGCbCTcAAAAAAABAgDVSALBGcAMAAAAAAAD8h9QGALYJbgAAAAAAAIDAGqm+/0x/c/ZLAGiZ4AYAAAAAAABatyxp1obcLBMcFQ4ADfpNfQAAAAAAZCH+LRYAACoznAouT/9mvzP8cjuvGf/UySQAdRPcAAAAABAmwQEAaEf8md70ljFfJcEBoEqCGwAAAAC6LvT+xzK4keAAAFTpxpM654cANKL3Mw8AAACgcWsbBNZuucsVJwCA/PX9x2kbAJxmwg0AAAAAsWKm4AR/03s5AAD5iKyoAYANghsAAAAAzguWNHZRAQDkz/kYAFxhpRQAAABA6+JXSl18iG2uUwEAAAClMOEGAAAAgMfF7KKa/o74BgDgXn3/cYoFADcS3AAAAACQQEyCAwDALcYTLdkNANxFcAMAAABAFrz3AwDwhNn+0O1fAgCRflIfAAAAAAAAAPCgsadZC2umswb7/jP89caRAUCxTLgBAAAAAACAas0im+Avt/Oa8U8NwgGAkeAGAAAAAAAA6nFiS9T0xjFfKMEBAMENAAAAAAAAVOKJVVCqGgBYEtwAAAAAAABAPV7oYyQ4APCT+gAAAAAAAACAe0hhAOAdghsAAAAAAAAo2BNrpACAbVZKAQAAAAAAQJGkNgCQigk3AAAAAAAAUDBrpADgfSbcAAAAAAAAQJGkNgCQigk3AAAAAAAAUIzZGqm+/wx/rd0AAHiC4AYAAAAAAADKEBnTLBMcFQ4A3MtKKQAAAAAAACjAEM3M1kgtt0p9v3/BvKbvP+ONxxtYSgUA5whuAAAAAAAAoAyRfUwwytkeciPBAYBDBDcAAAAAAABQgIspzPTLVTUAcJHgBgAAAAAAADI13QP1KAkOABwiuAEAAAAAAIDsbG+AAgDS+kl9AAAAAAAAAECYwTMAkCcTbgAAAAAAACA7UhsAyJkJNwAAAAAAAJAFa6QAoBQm3AAAAAAAANCusXFJPlFGbQMABRHcAAAAAAAA0Khp47LsXd5McIZH/37/8gmAAIANghsAAAAAAABaNDYu018ubzDzXAezds8SHADIkOAGAAAAAACAtgQTlmXOEgxuHqpwxnuIuSsJDgAkJ7gBAAAAAACgUX3/2WhWgn90V4Uzm6+zQYIDABkS3AAAAAAAANCuo63MoQpnd0vUORIcAEhOcAMAAAAAAED91sKaWybWRK6jiry3E1Q1APCy3k9fAAAAgMbFrzMAACjUoYkyaxVO8JYbj+X8CgAqZsINAAAAAAAA1drOXyLH2wxfu/z9jS4nOPNGggMA1RDcAAAAAAAAUKfdYTORFc6hdVTxZQ8AUC7BDQAAAAAAAJWb9S7bk2aCw2m273P7Dm3wBID6CG4AAAAAAACoynSwTeTSqG4ziLk+tEZtAwCV6f10BwAAAGicj1wDANXYjWCGc57IVmb3BGljZVXff5xfAUDFTLgBAAAAAACgBsv8ZRnWbMy2OXTj4MMFv3DjZgBAuQQ3AAAAAAAAFC84tG87hdn+zZh1VBurpjbyGgkOAFRAcAMAAAAAAEDZIldkrpUukRXObBDOxsNN/yimqgnO5pHjAEDOBDcAAAAAAAAUL7K2Cd5sY1BN5D0cOpLIkmb2cJGPDgC8Q3ADAAAAAABA2SIzlEO1SswUnOmfXklhll+7sdBKcwMAORDcAAAAAAAAUL8rncrGGqntEOeK2WPNFloBAGn9pD4AAAAAAAAAeMQtecq4y2kj2Xlt6ozxNgCQCRNuAAAAAAAAqM29k2BySG0AgKyYcAMAAAAAAEBVNjZAnfDmGikAoBQm3AAAAAAAAFCPcQPUo/cPADTOhBsAAAAAAACq8nRtY40UACC4AQAAAAAAoB5P1zBqGwCgs1IKAAAAAAAAIn2/f+NKKeUNALRMcAMAAAAAAABhMTukJDgA0CDBDQAAAAAAAASMJc1UTFUjwQGA6gluAAAAAAAAICymmDmX4PT9R44DAOUS3AAAAAAAAEDA6SAm8gtn+6okOABQkJ/UBwAAAAAAAAC5CK6Ruu77/Rv+mv5O8NGnBzD7JQCQD8ENAAAAAAAAdN1jtc2amASn++9RDQmOCgcAkrNSCgAAAAAAAOYLnpKYPfrwy+28ZvxT66gA4E2CGwAAAAAAAOi6XJuVmCk4UxIcAHiB4AYAAAAAAABKzVMKPWwAKJ3gBgAAAAAAgBblsEPqCfV9RwCQoZ/UBwAAAAAAAABvG/cuAQCcILgBAAAAAACgRcMkmL7/iG8AgKOslAIAAAAAAKA5a3uXxvjGYiYAYIPgBgAAAAAAgCb0/WeW0cRUNRIcAGBJcAMAAAAAAEDl4pdGSXAAgBiCGwAAAAAAAJpwro+R4AAAS4IbAAAAAAAAKndvB6OqAQAENwAAAAAAAFSo7z+vlTESHABozU/qAwAAAAAAAICbjTueAACeILgBAAAAAACgKkNtY+oMAPAcwQ0AAAAAAAC1UdsAAI8S3AAAAAAAAFAVtQ0A8DTBDQAAAAAAAMUb1kgBALzjN/UBAAAAAAAAwHlSGwDgfYIbAAAAAAAAivf9/o3ljZVSAMDTBDcAAAAAAAAUbCOvkeAAAA8R3AAAAAAAAFCYvv8sG5qYqkaCAwDcQnADAAAAAABAScZoZpcEBwB4iOAGAAAAAACAYgx9zOk4RoIDANxCcAMAAABA163sZQAAyNC9Jy1OgQCAE3rnEAAAAACN21jK4NoRAAAAwJIJNwAAAAB0Xdd9v3/L8mb5OxIcAOBlF3dIAQA8QXADAAAAwD/L97F2ExxvfQEAj9oYxQcAkJDgBgAAAIBVuwmOETgAwNOcXQAAGeqdowAAAAA07sqahpgPnbsABQAAAFTGhBsAAAAAzrOFCgC4Xd9/nDAAAJkT3AAAAABwJ1uoAIDTYobnAQDkQHADAAAAwLNmPY0ROADAtu/3bzw9cGIAAORJcAMAAADAq2K2UAEAbdrIayQ4AEBWBDcAAAAAJOZtMwBoWd9/licDMacHEhwAICHBDQAAAAAAAGnED7qT4AAAWRHcAAAAAAAAkMDQx5yOYyQ4AEBCghsAAAAAAADSuLeDUdUAAK8R3AAAAAAAAJDAC32MBAcAeMhP6gMAAAAAAACgFeOOJwCAoplwAwAAAAAAwOOkNgBATUy4AQAAAAAA4CV2PAEAdTDhBgAAAAAAgMdJbQCAmphwAwAAAAAAwCOskQIAaiW4AQAAAAAA4H5qGwCgYlZKAQAAAAAAcLOhtvl+/8bsxkopAKAmghsAAAAAAADut1bYSHAAgAoIbgAAAAAAALjZGNPEVDUSHACgOIIbAAAAAAAArhp3SO3eUoIDAFRAcAMAAAAAAMAlYx9zjgQHACiO4AYAAACgafEfRgcA2HDv6YSTEwAgc4IbAAAAAAAALnmhj5HgAABZ+Ul9AAAAAAAAAJTn4hopAICiCW4AAAAAAAA4Rm0DADROcAMAAAAAAMABQ21jxxMA0DLBDQAAAAAAAMeobQCAxgluAAAAAAAA2DHdIaW2AQAQ3AAAAAAAALBlWtsAANAJbgAAAAAAANgw1Dam2gAATP2mPgAAAAAAAACyNtQ245wb8Q0AgOAGAAAAAACAVRt5jQQHAGiW4AYAAAAAAID/6PvPsqGJqWokOABAIwQ3AAAAAAAA/DMWMzEkOABAswQ3AAAAAAAA/MfpOEaCAwA0QnADAAAAAADAP7dHMKoaAKBKghsAAAAAAICm9f3nzSxGggMAVOAn9QEAAAAAAACQzLjgCQCAeIIbAAAAAACARg21jZEzAABHCW4AAAAAAADapbYBADhBcAMAAAAAANAotQ0AwDmCGwAAAAAAgFb0/WdYIwUAwBWCGwAAAAAAgCZIbQAA7vKb+gAAAAAAAAB4iR1SAAC3ENwAAAAAAAA0Yahtxjk34hsAgNOslAIAAAAAAKhWzBqpvv8Mf71wPAAAdTDhBgAAAAAAoE7BhiZmsI0pOAAA2wQ3AAAAAAAAFRqimZhiRoIDAHCU4AYAAAAAAKBOp+MYCQ4AwDbBDQAAAAAAQIXu7WBUNQAAU4IbAAAAAACAGsTvkLqFBAcAaNlP6gMAAAAAAADgqnHBEwAALzDhBgAAAAAAoAZGzgAAvMaEGwAAAAAAgOKpbQAA3iS4AQAAAAAAKJI1UgAAqVgpBQAAAAAAUBipDQBAWibcAAAAAAAAFMkaKQCAVEy4AQAAAAAAKIzUBgAgLRNuAAAAAAAACjBdI9X3H1ulAAASEtwAAAAAAADkLpjXSHAAAFIR3AAAAAAAAGRtKGmma6S+37/gVikJDgDAOwQ3AAAAAAAAuQvmNRIcAIBUBDcAAAAAAABZC5Y0u7eU4AAAPEdwAwAAAAAAkJcbO5gTCc4tjwsAUDfBDQAAAAAAQEaeTl5iEhwAALb9pj4AAAAAAAAA/uPlCGaW4Lz50AAAhTLhBgAAAAAAICOSFwCA/AluAAAAAAAAEnt6jRQAAPcS3AAAAAAAAKSktgEAKI7gBgAAAAAAIJmhtrFGCgCgLIIbAAAAAACAlNQ2AADFEdwAAAAAAAAko7YBACjRb+oDAAAAAAAAuN+wqmmQVdRihxQAQAUENwAAAAAAQFWmqU3wdxLGLtMjGf9efAMAUBzBDQAAAAAAUI9gxTILbpZFzpvJy8ZjSXAAAEohuAEAAAAAAGqwUavMfmd3BE7wTm4xvduYh5DgAADkSXADAAAAAAAU71CYsrzNowlO338iv1aCAwBQCsENAAAAAABQj6FHORqjPJTgLL/kKAkOAECeBDcAAAAAAEBtrs+niUxwzg3UuSIywRHfAAA8qne+BQAAANCy2XuHLhYBUJCNyS67o2Uu/sjLfKiM4AYA4GmCGwAAAICmbb8f6doRAHk60dPcmOBs1zZiFwCAFghuAAAAAJo2vGU4XiN6eh4AAFy37F12f351ix9hJ75k+oVrPxC3/xQAgGoIbgAAAACaFvOu4QYXlwB4WWTR8lCCE/zCo8cGAEAFBDcAAAAATTv61qAVVACksr3IKf7LN8QkOBuPbpkUAEA7BDcAAAAATbv4WXz9DQCvmf7QueVHjEFuAACcJrgBAAAAaNq9yy+8cwnAc16oPI+OtOlMtQEAaJXgBgAAAKBp9wY3wTvf4NoUANvW1kid2A91+tHX7ufiiisAAIomuAEAAABo2qPBzdrDrXGpCoDR0R8Z91aeMTHNyz9DAQDIiuAGAAAAoGlp3yxcvjnqahUAXah3OZFsnk5w4kfXGHIDANCs39QHAAAAAEC7TuwHAaB6wRj0+kqp5ZcEu8/dNVLbbY2xNwAAjTDhBgAAAKBp3hcEIB9HB8ZcHDCzVu1sT76JCW66xWweP2oBACpjwg0AAAAAAJCRQ7XNlZBl+bUbA2wiH264QXCajgQHAKAmghsAAAAAACAL7wy2OX0A8Q83vaUEBwCgSj+pDwAAAAAAACDWvbVN33/WFkvNXHy4WYITvLfpkUQeFQAAqZhwAwAAAAAAlGeWpJwIYrajlqenzuxOwdnYbwUAQHKCGwAAAAAAoBgbG5qCtwzaHZOTZMDMLMEx5AYAIGeCGwAAAAAAIGvLWS/LUGY3wRm/JHIpVfLpMskPAACADYIbAAAAAAAgU/FTXnYTnOkvd1sWsQsAANsENwAAAAAAQI4iR9GsmX1VzBopnQ0AAJEENwAAAAAAQF4upjZB23cVP0oHAAC6rvtJfQAAAAAAAAD/90RtE/OIxtsAABDPhBsAAAAAACAv77cvahsAAA4x4QYAAAAAAMjIO+3LdIeU2gYAgKMENwAAAAAAQFumtQ0AAJxgpRQAAAAAANCQobYZptqM5Y0hNwAAHCK4AQAAAAAA2rKR10hwAACIIbgBAAAAAAAaMi1pYqoaCQ4AAEuCGwAAAAAAoHJ9/4nMZSQ4AADEENwAAAAAAADVGuOY0yQ4AAAsbQU38bl3ESr7dgAAAAAAgEj3vkEgwQEAIBDcXG+981HT9wIAAAAAABz1Tu8Sn+DobwAA6vD/4GbZppR7zhfsbMr9dgAAAAAAgHg5zLxfO4DpsUlwAADK9Vt3Z1Pu9wIAAAAAAJyQ7fD74T2L5eFJcAAASvT/CTflnr3pbAAAAAAAgK6EYGV6bJEJTs7fDgBAs37LPUvT2QAAAAAAADPFvVmwm+DMKiIJDgBADn73b5IZnQ0AAAAAABBUx1sGswQnOAKnk+AAACRVRnAT3Lfq3BEAAAAAABqX/w6p62bfXTDBAQDgZVkHNzobAAAAAABgTbPdyTLBSXUkAADNyjG4sTQKAAAAAACI4R0EAACSyCi40dkAAAAAAADxvI8AAEAq6YMbnQ0AAAAAABCp7z/j+wjjWwzeWQAA4GXJghudDQAAAAAAcMjyzYW1G3jTAQCAR70a3ATPg53yAgAAAAAAu4Z3GaZvK8S8xSDBAQDgCW8ENzobAAAAAADgut03FyQ4AAC848HgxtIoAAAAAADgLufeZYhPcLyLAQBAvPuDG50NAAAAAABw3UMdzNod9v1n/CMJDgAA237vGpyoswEAAAAAAO6yfN/hOcM7Gm8+IgAApeuDvxvfyuhsAAAAAIrmE/wA5Gk6bwYAAHLTz6YjLi1PZ4O3dNYLAAAAUCLBDQAAAMBRv+PfTa+qTJOa7QmKRV+LUccDAAAAAEA+XLcHAKAUv8GT17X4JniD4ljCCgAAAAAAWXHpHgCAsvTTX+xmNEXHN8uDL+XIAQAAAJ5jpRQAOfDzCACAsvTf79+JjGatNM/wVFhnAwAAALDBG5wAAAAAR/W726O6U/FN8ms0OhsAAACAGIIbAFLp+48fQAAAFOp3+ouY+GYp+FXTL3/tdDnP9AcAAAAAAJiJfxsCAAAy1D/Uo7y5c0pnAwAAAHCaCTcAvM9PHwAASve7f5NT1obljH9//TTa0igAAAAAACjU9/tnpRQAAOV6asLN6uNdnkajswEAAAC4kRkDAKRy42d0AQDgZU9NuFkznjQHx95062fVOhsAAAAAAChUsO8chtwsb7a8JQAA5Obt4Ga0u3OqC51qd06yAQAAAACgKMHh94Pda/4SHAAA8pQsuJmKjG9ePaa7eUkAAAAAAECzIq+Nx9zM9XYAAHKQRXAztRvflHUCvZHtAwAAAABAC65c2JfgAACQp+yCm6nxzLi4sTc2YQEAAAAA0LK+/zx0YTw+wXFlHgCA52Qd3IxKGXujswEAAAAAgJenv7sUDwDA+/qiT0ODp+zvf0c6GwAAAKBcZgAAcC8/WQAAaEEZE27WpN05pbMBAAAAAIAlV8sBAKhe2RNugp4ee6OzAQAAAGpiDgEAAADAUWVPuAmaXh4a45jrY290NgAAAAAAsKTdBACgQRUGN1PXd07pbAAAAAAAYE1w6jwAAFSv8uBmFBx7063HNzobAAAAAACI4fo5AAAN6hs/D95N7yv459P3nwq+CwAAAOAh9oAAAAAAHNXKhJs121NtilbZtwMAAAAAQCZ8zhMAAFoPbqbGlwcxO6eyZRkWAAAAAAAP8VFPAAAYCG4C1sbejH+fYcKiswEAAAAA4B2uPwMAQO+0OF6w3E/7D1BnAwAAAFw0XF5wSQGAQ3L+hCoAALzAhJsD8tk5pbMBAAAAAOAdff+JuQQtwQEAoCmCmzNS7ZzS2QAAAAAA8Kbg6Pcu7uq0BAcAgIoJbq4Kxjf3jr3R2QAAAAAA8L5DawclOAAANEVwc6d7d07pbAAAAAAASOvKdWkJDgAAFRPcPGJ351S3/uJBZwMAAAAAQA5uvzotwQEAoBqCm8ftxjfDDXQ2AAAAAAAk1/efN69OuxIOAECheueyqSwLm0Ed/0YObfYFAAAAEppdo/ByHqBZRssAAEA8E26SGV+xzK5qFf2SZq0iAgAAAEqhvwFonGd+AACIYcJNXoLBSv7/juzDAgAAgHLN5tRuf5zGS34AAACATnCTs/zjG50NAAAAVGB7MbT+BqBuff/xZA4AACcIbgqwdmEr1b87nQ0AAADUZDu4Cd54jUsEAGU59CMAAACYEtwUJuHYG50NAAAAVOnKu636G4ByqW0AAOAKwU3B3olvdDYAAABQtxvfcNXfABTEMikAALhCcFODJ3ZO6WwAAACgEc9NONDfAAAAALUS3NTmYnyjswEAAIDWvLZSRH8DkJYdUgAAcCPBTc3id07pbAAAAKBZqd5/fWdZNgCD8VnXMy0AANziN/UB8KDpC6fx1ZQPkwEAAAA5mF2F2L5kAcB1wxOv8gYAAG4huGnF+Nrp4s6pzHmtCAAAAIXyWh7gURtPs1ZNAQDACYKb5gTH3nSFpyo+AwcAAAAAMNP3n+X13rUrwNMbS3AAAGCX4KZpuzunMn9BtexsMj9gAAAAAIAXHPqM4mzV1PROpgmOq68AADAluOGf4M6pPOMbnQ0AAAAAwK5DF06nNw4mOMbeAADAVO/kmA3Bj0Gk+m9GZwMAAABP8AYqADFmPy/GC7Z+ggAA0CYTbtiSw84pnQ0AAAAAwK6ntz7t3rkEBwCApghuiPX+zqlZauNFGgAAAABAUHBa+aNcsAUAoHFWSnHJ2qu4K/9d6WwAAADgTVZKAZTOMzkAALzPhBsuCe6c6k7NDrU6CgAAAADgHFdTAQDgZSbc8Ijg5Jvgf2w6GwAAAEjLXAQAAACAo0y44RHjRbrg2JvtLwEAAAAAYFvff1xTBQCAhAQ3PGtt51TwBkU7sUULAAAAAOCo7U82AgAA7xDc8J5gfDN9cVhiquLFLQAAAADwvhKvpgIAQE16J+WktRas5P9f5uzI8z9gAAAACBpe4XphCwAAABDPhBsSW9s5le2GJp0NAAAAAPCyvv+4FAkAAFkR3JCRnHdOLSfxeH0LAAAAALzAXnsAAMiQ4IZMjTlLcOxN91bvorMBAAAAABKy+A8AAPIkuCF3uzunugdebepsAAAAAIBMfL9/4xVLFyoBACATghtKshvfXH+1OUttvHwFAAAAABJau0Rp8g0AAKTVOx2nAsEdxof+29bZAAAA0Cxv2QJkJfJpefkpRM/nAADwJhNuqMHsJeXy77c/BRK8KwAAAACAlwU/Wxg0XMlc3r7vP9PrpS54AgDAQwQ3VCVy55TOBgAAAADI06FrldMbBy9+GnsDAAAPsVKKJqx9LqSm//6XI2QBAAAghvdiASo2e5J3FREAAO5iwg1NCO6c6qp4eRk/YxYAAAAAyNCji59277mCa6QAAJCE4Ia2RO6cKsIstSnoyAEAAACAwcsfqHMVEQAA7mKlFHTdysvaPP/v0NkAAABwLyulAFLxDAwAAOUy4Qa6bmXn1PTvk7/oXSZByQ8JAAAAALjIVT4AACiUCTewKoexNzobAAAAnma+AsCb+v7jKRcAACpgwg2smr7uHcOX18beWB0FAAAAAJUJfsYPAAAokeAGory2c0pnAwAAAABVMlEMAABqIriBY4Jjb7rL8Y3VUQAAAABQPRf9AACgGr3ze7hFcBjs7v9fOhsAAACSM3EBAAAA4CgTbuAewck3G2NvrI4CAAAAgOr1/celPwAAqJLgBu43voRe2zm1vGUdXD4AAAAAgEHweiAAAFANwQ08KDj2pj4Vf2sAAAAAcIXPpwEAQK16p/vwvmqm3ViMBQAAUIHhxZ3XdAAAAADxTLiBBHZ3TmV+lVNnAwAAAABLs5Xr42U0F9AAAKA+ghtIaW3nVJ4vxZeDebI6PAAAAABIKBxO6jEAACAASURBVGbxep7X/QAAgBMEN5CLYHyTydgbI20AAAAAYENwPV/MZTQJDgAAFEpwAznKZOeUzgYAAAAAIsVcPYtPcFyLAwCAzPXO2qEUazNpb/+/2OooAACApnhnFyAry5k3ff/xLA0AALkx4QaKEdw51d06ddZIGwAAAACI8VytONzn7EqdOBIAAHIjuIEiBeOb0zundDYAAAAAEG9tFvWNptfovt+/YH/TuZQHAADpCG6geNPRsuNvxsQ3VkcBAAAAwDkvX0lz4Q4AAHLTO02HKgU/ZBNMczov1wEAANpmTQkAAADAUSbcQJ12d051NV5Lrf4asVnBAAAAAKn0/cc1GQAAYCS4gfqtDbappt54YWd2ci18jwAAAADZcnEGAACYEdxAQ4Jjb7qSy5tGZvaM6vsGAQAAAPJX/VhlAADgBMENNGp351TOVxCqz1CWH5mq73sEAAAAKIiLMwAAwEzvdQIwWhuNm88TRWupTX3fIAAAkCGTGwAAAACOMuEG+L/dnVNdoiuw1Wco1X+DAAAAAAVRIgIAALsEN0DYbnzzwhWHFjYrSW0AAAAAsrI2BBoAAGBKcAPsC8Y3j469qT5Dqf4bBAAAACiXazUAAMCu3isH4Jy1z/pceVZpIUNp4XsEAADKYnMKAAAAwFGCG+AGwfgm/unF6igAAIBU1DYAXdf1/cczIQAAcIiVUsANTu+cqj5DaaElAgAAACjX7OrN+EvXcAAAgG2CG+Bm48WI6dWKWXxTfWfTNdASAQAAAFRj49KNBAcAAAgS3ABPCY696eIm35RLZwMAAABQkNnVm5iLOZbxAQAAXdf1XhUAL1tuWeqquEIhtQEAAErkbWOgQX3/ufK8t5x5c/EOAQCAEplwA9xjmdGsXWWI2Tl199E9SGcDAAAAUJDgh8EOGa7/zO5HvwgAAK0x4Qa4avciRfwk3nNfm4rUBgAAqIB3iIGmPPekN7vn5RQcAACgMibcACft5ibjDWKm10x/Pzj5Jp9rEzobAAAAgHI9dDFn924zvMwFAABcYcINcNjR4iQ4vSbyyefK194rfmcWAABAQUy4AXiH4AYAACojuAFi3TLZ5fSVhYQ7p4y0AQAAKia4AarX9x/PcgAAwO2slAJ23DXZZa2Ymd0mn51TOhsAAACAosVcjwIAADhHcAOsunekzcb9BAOajUcMxjcxXxhJagMAAABQDdd2AACAJ1gpBczdlZvE3M/yNsEPHsUcw/WdUzobAACgQVZKAQAAAJwguAH+eWh1VGRnE3lIkUd19AulNgAAQLMEN0BlNlaWAwAA3EhwA7w30uZ003MlBtqIb3Q2AAAAghugJp7TAACA1whuoF1pV0ddfKwT97C2c+rK8eTMBSYAACDGXeNOAZJzMQQAAHjTb+oDAN720Oqo4P282fR0e1dVpr8/u8MrHU+GNtIiAACAXaaBAuXylAUAALzGhBtoy/Syaf4jbY62Qedaoo2dU2VxTRwAADhh+dGF1uaDAgAAAJwguIG2XBlvk2R11In7uRLQFBrfSG0AAIDTdjew6G+AbNkhBQAAJCS4gRYdykpOrI7auLdDB3b9Cep0QLN2QTmr50ydDQAAcN2ht6vFN1CrEsuVylaEAwAAxRHcQOs2kpRSRto8ff+5jb25K28CAADorr3Lrr+BOhTxuaOlvv9kfoQAAEDdBDfAP4eurZTS2aw91l0HfPHeLj66J3AAAOC6u8ZaiG+gRLMhMSX+j2zODQAAkIrgBgjYuN5aXGrz0DyYNz/7pbMBAACe89AemRLftofW7KYqGf6PvJxqs/wuJDgAAMA7BDfAAdcvWKQaafPoYz039kZqAwAAPO2h4Gb5EGu80oEkjv6/n/x/5PirUhIcAADgHYIb4IDT02JivrC42Tkxj37uGHQ2AADAa14IboKPGOTlD7zglvrk/f7mypPVWoLjOQcAALhCcAOcEZ+VxLQjd12jyapTObdzKqtvAQAAaEHyd52nr4O8CIKnPTTrJfn8m6OCCU6GxwkAAORMcANcsn09ZXSixbm36UlrN77J/1sAAABqlTy4Ad70TuJ242ernl54Z+0UAABwmuAGuM1DicxGrVJip1LcR75u4Qo+AABky+k6NCXJTrdzC7hTLbyT4AAAAJEEN8B7rvcx5y7QZKuybyfIcHgAAMic4AaalepDQTFPOzk8NQluAACAbYIb4D33XqeoabX27s6p4pQ4fAgAANqUw7vawENumTEc87VHjydmvI3nJQAAIHOCG+A9LQx0ua70f0pSGwAAKIvgBmq1HdB0r/c3BsYAAACVEdwACdQ30OUhBcU3OhsAACiU4Abqs5a2XGloNr425gkkco2U5yIAAKAgghsgsYKakoRyTpSkNgAAUDTBDVTm0NqmjT+9q7+JOR7DbwAAgBIJboCMuLwSI59EaXok/pUBwP/Yu78YybL7sO/nVlf3TO9OFNKmBBMdx6uEkkwuE5KYBAK9lhlFwu4DHwYxbBhwomBlC5btQH+IJBrkQUJgBwgmiSBGRiTREKKFCAsybCjQwwJZgRQzkdakH0aadSwOpaXhDcSBRWkZkovZnem/lYc7c+dO/f9z/5xz7ueDAVndW119qqen61bdb/8OQKIEN5CNHV9X2XqGzcq9q9a8BT+IAACAtAhuABLWS3xjpA0AAOTEeW7IQ+O/xdRUf+PHCwAAkCvBDUAOutlzyktmAACQH8ENZKDtf8i7bD615Db95AEAAJImuAHITePxjc4GAAAyJriBDHQ8AXf3/sZPHgAAIAOCG4Cc7fiKm9QGAACy57Q3ZKONOTRbfN6Vn8iPHQAAIA+CG4ChWD++0dkAAMBwOPMNueq4v6k+3TrBjZ85AABABgQ3AIOzZM8pqQ0AAAyN4AYGYkl/s/tPAD9JAACAARLcAAxax7u8927937cDAICBcJochqmp/madJ9p+zgAAAFka970AAPpUf7Wreo2s/qJbNi+HLZ+kDQAAAIMy9wWBuW+uLGnWvM6a1wcAAEiF4AaAh6pXu+a+FhaSfTksg7sAAAAA7Zl6srxOf7NROmP4DQAAkCVbSgGwTLp7Tq3/C3kAADBkznYDyzW1+dTyG6//FpCfSAAAQBIENwCsK5X4RmoDAADrE9wAG1nnh8am0Uz9+radAgAAUiG4AWBji365rffHFLtHAQDApgQ3ELMU65Pdf6pM3UKKXwQAAGAIxn0vAID01F/hqjcuffUuRtoAAACQt1Se+TbS8K38cAkOAAAQA8ENADtZGd+0+uJXKi84AgAAwBZmp7zMfTOqp8ONL2adGzSsCwAA6J4tpQBoxdxtp5p60In5hUUAAEiLs9SQokV7PYc+/jkXxVHvP0PMvAEAALonuAGgXYteBNzuAUhqAwAAzRLcQAZ67G+i+hkSQ/oDAAAMh+AGgO7sMvam/rEevAAAoClRnSwHdrckvglN/2P3AwQAABgywQ0A/VgzvjHSBgAAWuV8OaRo/VEurfY3JsoAAABDJrgBoGfLX/ureMACAIA2CG4gObv8s+1x8ykAAIDMCG4AiMgue06lqLq/Gd9HAAAiJ7iBtDT7b3aLsbKm2gAAAJTGfS8AAB6rv2ZXvepXf/kvmxf11pzrAwAAAKU2fmdj7tPwlQsAAAAgCG4AiFb1ql/9Fb0M4psM7gIAAAAd62BC6pq37JksAABAyZZSAKRk0a/Txf9wtsWYbgAA6IAtpSB+/p0CAABEyIQbAFKyaNh1B7/qtzWpDQAAANvp/dluURx5GgsAADCX4AaAVM2Nb6LasCmqxQAAAJCoHmubXj4vAABAEmwpBUBWYthzykgbAAASYqsaYC4/HAAAAJYz4QaArPS755TUBgAAgGx4VgsAALCECTcADMLcyTcNPgjaPQoAgEQZYgEAAACwBRNuABiE6vzB3LE3YdsTDEbaAAAAkIep/E6NBwAAsJzgBoBhaWrPKakNAAAA2Zg7F7Z8fz3B8eQXAACgIrgBYLjmxjcrx97YPQoAAID8TD3DLd+cCnGMvQEAAKgUnh0BQN2i3+qb4gEUAIA8OH0OrG/utlPBzxAAAGCQTLgBgCcs2nNq0XXy44wLAADAEGyxRdTK60twAACA4RDcAMBCi+KbLF9AXHO0DwAAABlo5DngOk+K/VIHAACQK1tKAcDG5r4ume5D6tTdSfeOAACwBefCYYC6/Ief5a+sAAAABBNuAGALs9vVT11O5WXEFNcMAADA7jp7Dlh+ouynxgIAAAMkuAGA7aW755TUBgAAYLC6fxq4/DPG/yQaAABgluAGAJoxN76JrWuxexQAAMAARbV53DrLiGrBAAAAcwluAKB5Ee45JbUBAAAYpqnngxFa9BS1KI7qz689kwUAAKIiuAGAFsWw51RsU3YAAADoWHJPBssFT6VCxt4AAABRKTw/AYDuzf39wsYflKU2AACs5AQ2kIqpn1dd/ioLAADALBNuAKAHre45ZfcoAJr11mvPV5e/5UO/0eNKAIA1ZbkB08p7JMEBAAC6ZMINAMRi7tibsMkLhVIbAJpVT23m0t9ABky4gcwMOTqZve9+xAEAAO0R3ABAjDbdc8ruUQA0a2VqM0t8A4lyNhoy4x913ZDzIwAAoG2CGwCI3ZL4xkgbANqwRW0zRXwDCXFuHshefYMtP/QAAICmCG4AIBmL9pwKw3itsP4KKQAt2T21mSW+gcg59wwZ8HRpfX7oAQAATRHcAECSNt1zKl12ywLoRhupzSzxDUTIuWdInX/FAAAAvRDcAEDyco1vbJgF0I1uUptZ4huIhFP1kDT/hAEAAPoiuAGAfCzacyq5h3tTbQC60VdqM0t8Az1yth6SZjMpAACAvoz7XgAA0Jj6y6z1ZqW6HP/rsFIbgG7Ek9r8/K98LYRw/UN9rwMA0uR5EwAAQF8ENwCQp7nxTcw5S8xrA8hJPKlNeFTbAADrm5pKldDvVwAAAGRGcAMA+Zt9KTZEE7hMbYPlNWKAVsVT20htAGALi/YRnr2O51YAAABtE9wAwICs3HMqdPiyrNQGoEtSGwDIw9RTp0XPpIriqP6rF55wAQAANE5wAwADtTK+ae8F2UiG6wAMhNQGALKxzhOo8jpTv+Fg7A0AAEDjBDcAwPz4po0sRmoD0CWpDQBkYLv5NPUPmUzuzu1vgudlAAAAOyg8pwIA5pp6Qbay3cGD1AagSymmNtdv3Gp1JcAi5l5AzFr6Fzob3PhRAAAAsCkTbgCA+RrZc2qq2vHqLUDb4kltgsE2ALCb9iKYRbdZn6az3WQdAACA4RDcAACrbbHnlNQGoGNSGwDIT2fPpMpPNHfnKc/mAAAA5hLcAACbmRo5Pnt57pXz5lc/gd7FU9tIbQCgKd0/y6h/xsnk7qInegAAAATBDQCwtUV7Ts29Qq68AA30TmoDNMIcC4hBbP8S41kJAABAhAQ3AEADtthzKnV53zsgCVIboHF2BYUeqfkBAADSIrgBABq2cs+p1M/c5HRfgERJbYDGlUc1U+f7HfZAx/xDAwAASIjgBgBoy6I9p9I9c5PuyoFsxJPaBLUN5GjqCCePQzhIhX9ZAAAAaRHcAABdWBnfxPzisr0VgBhIbYDurdNPB0dHsIOiOPIvCAAAIFGCGwCga3PP3MT5O9NOJgExkNoAMVgU34RYD+QgclP/jgAAAEiO4AYA6FN1Sia2DQtiWANAiKm2kdoAFTtPQVP8MwEAAEiX4AYAiEI8e045SwREQmoDpMLOU7AF/yIAAABSJ7gBAKLT155TUhsgEvGkNkFtA2zIzlOwRFEc+eYHAADIhuAGAIhaN3tOOf0DREJqA+TEzlNQN5WgAQAAkDrBDQCQhpb2nHKyB4iE1AbIXjxbiEL3yu9z3+QAAAA5EdwAAOnZfc+pqd8u9cI30COpDTBAS3aeglx50gEAAJAZwQ0AkLZN95yS2gDxkNoABMdjDIPvcwAAgPwIbgCATKzcpGDRlfNWFEfDubOQlnhqG6kNALShOhR3TA4AAJAlwQ0AkCGbFIQB33GIXzypTVDbAEALZg/Fy/fIbgAAAHIiuAEAMjc3vlmy51QG8r53kLpXXnouhPDRjzzd90KkNgDQrupQfDK5O5XgVG86XAcAAEiX4AYAGJDq5exFe06l/np3TvcF8vb53327utx9fCO1AYBWzR6Krzw4l+AAAAAkR3ADAAzRoj2n0n2ZW2oD6eoyvpHaAEBLiuJo/ePwda650Q0CAADQPcENADB0qe85ldBSgZXai2+kNgDQnqkdo7Yw90i+vFkH+QAAAHES3AAAPJbWnlPRLgxoRFPxjdQGAFrVUhYzmdyd6njSnccJAACQJcENAMAcke85JbWBodk6vlHbAEAHWjomX3mzkTw9AQAAGCbBDQDACvHsOTX1G65eVYdhWjO+kdoAQDc6Oyxf5xMVxZGnCQAAAN0oPAEDANjCVPtSaengSmoD2XjlpefauNl6eZNuanP9xq2+lwBD1NJuOJCxmP/VCG4AAAA6Y8INAMA2Vu45FRp6Cd7uUcA6qrE3t+886HclAJC3ReV9JDxlAAAA6IzgBgBgVyvjm+1e9ZbaAABAhBycAwAAEAQ3AADNmhvfbJrOSG0AACBOjs8BAAAoCW4AANpSvRa//p5TUhsAAIhNURw5OAcAAGCK4AYAoHXr7DkltQEAgAjVD9QBAACgIrgBAOhUI3tO5aG818O5v5XB3nEAgOQ4cgMAAGARwQ0AQG+22HMqD4P9LeHB3nEAgHTlekwOAADAjkZ9LwAAgDCZ3K3+1N9fFEfln74W1rj63Zm9vxkb7B1n1gsvvtr3EgCAZYZQwAMAALA7E24AAOKS655TGdyF7Qz2jgMApCin2B0AAIBWCW4AAOKVx55TyS24KYO94wAAiSqP3xy5AQAAsA7BDQBAAuaOvalfjvOswGCLk8HecQCA1Dl4AwAAYE2CGwCAxCSx51Rs6+nMYO84AEAGHL8BAACwPsENAEDCItxzarDFyWDvOABA0oriyMEbAAAAWxDcAADkYOWeU6H9CmSwxclg7zhx+vD7L9++86DvVQBAAupHcQAAALApwQ0AQG5WxjeNRyGDLU4Ge8cBALJRHsW1d6gMAABArgQ3AAA5mxvfNJiJDLY4GewdBwDIxvKjuPJ4z5EeAAAAiwhuAACGojpb0MieU4MtTgZ7xwEAMlAUR3MP4RYd19Wvv+hjAQAAGCbBDQDA4Oy459Rgi5PB3nGY8kufOQshHF7ZDyEcXhkfPr0fQnj+29/peVkAsEr9cG6lqa2m6rfgUBAAAIAguAEAGLiN9pwabHEy2DsOUz598yKEMN4fvXPv9OT4/ODS3v17pyHcP7yy/6tfLQ6vjK998LTvNQLAfNu1MvXrTyZ35/Y3W9wsAAAAGRDcAADw0Mo9p6auNgRSG6i8/PuX/tSfCffvPRxvc//ew7amHt/80h+FH/x+TzMBiNTuh3Mrb8EIHAAAgOHwSigAANMWTbWp3jOEUwhSG6j7za9cOXz6ifccXhnPjW88zQQgTm0c0S26zYEcMAMAAAycV0IBAFhmoz2n8pD3vYMt/O7ptx5eOVtyhXp88+mbpz/wsVFXSwOAhXoZNlN+urkDIx1YAgAAZEZwAwAwXJtuF7Vyz6nUzyLkdF+gKV86eG84Pbv89LpPHg+vjEM4bnVJALDS7IFul5YfSZp/AwAAkAfBDQDAEC06A7HmL+Au2nMq3WAl3ZVD2y4/tb/ph7z8++Hj36W5AaBnkRzURbIMAAAAGie4AQAYluVlyRabRq2MbyI/xyC1gSX+6OjfC2+fbdHcGHIDQL9iPq6LeW0AAACsT3ADADAU65QlO24aNTe+ibZoiXZhEIk3n3lfOL2obyb1YMv4BgC6YKsmAAAAulR4FgoAkL0dy5LZ/ac2upFF21f1eyCaygAecvXKS8+1d+O37zxo5HbefOZ99TfPTi/qbz54++yJN985rS7ff/sshPCR/T/Z4pNev3Fri48CdlE+JnpAJHW+kwEAAOiYCTcAADlrZIjL3LE3W3x4iGPPKakNrGOqtgkhjPdH1eWzdSbfnLS2OAB4ktoGAACA7gluAADy1Ox+SWve2sox/v3uOWUPKWjKWvGN4AaADjm6AwAAoGOCGwCA3PSV2kxdWPmp5w7OaamJkdrARmbH2yyxML75RrOLAoCFHOABAADQPcENAEA++k1tyqttMbem1T2npDbQpXp8AwDtsYcUAAAAvRPcAADkIIbUZurCdnNrGtxzSmoD29lovA0AdK9+mAcAAAB9EdwAAKQtntRmyu5za7Zud6Q2AAB5c4wHAABA7wQ3AACpija1mbVkbs06N7Ky3amuI7UBAMiewzwAAABiILgBAEhPQqnNrNkyZosPn13SwFObojga4L1mkQ+///LtOw/6XgUANMnRDgAAALER3AAAJGMqUkkutWn81nbftSoDW6dLMNebz7yv7yUAwBMc7QAAABAnwQ0AQAKkNitVNzicsTd53zsAgDpHOwAAAMRGcAMAkJgdTzbkl9pMGcLYG6kNADAcjnYAAACIk+AGACAxW4cjvaQ2odfSZW58k3StkvTiScJ4f3R2etH3KgAYuqI4mnsg5/gHAACAeAhuAAASsGM4MsDUZlbqe04ltFRSN94fVZfFNwB0b2o31SXXcVAEAABAjwQ3AACJWR6OTJ116D21aeoG1/yk63yu5PacktrQmes3bv33/+i/qN48vn8uvgGgY3NLmkWHQGse/gEAAEAbBDcAAKlaOfZm7jWnZJPabPeBke85Fc9KGI5Lhw+fJB7fP7t0uFe9vx7frFnevPnM+97zxpcbXyEA2Vs/oU4ingYAACBXghsAgBzMHXsTBpba7PhJo9pzSmpDXw4u7508OA+18ibMxDd1xt4A0KyNjnzW3FbV0RQAAABtENwAAGRlndMJUpvlVu451fhnrJPa0LuDy4/bmqn45vj+WQihim/sOQXA7ubuIbWFNQ+DHV8BAADQFMENAMBw7X6+IbPUZtbK+KbBBUhtiMFUbTP15pKxN+IbALaw9cag65h7QNVU3wMAAACCGwCA4dql8Mg+tZk1N75pakm2PBiaF1589ZWXnut7FXMcXHrY0JwcT9c2W8c3ALBElwc/k8ndqcTHMRgAAABbE9wAAAxOdTphu5EtfVUvUZ0OWf41DJssMqr7BfuX9k6Pz0OtvAm7xTcAsES/CfVcRuAAAACwJsENAMBwbTqyRWoza5c9p+whRZz2a6nNVHxzUr65dnwDALOK4iieI594VgIAAEByvBIKAEAIa4xsmb1mB9JKUtYPmNK6XwzHjetX3/ufP97o6uzkYiq+mRp7E1bFN+0uF4AEzT28jIpjMwAAANYkuAEA4AmLRrYEqc0m1gmYUrxfu4vql9qZNd4fhRDOTi9CCOODUfnOs5OLMDP5Zkl8U6Y2B5f3zjpaNQBpsFsTAAAAORHcAACwUC+nQ1JPbaYsCZiGds4p/t9oJ4QwHo/Ozi7K7KZ0dnpRlTdhvfimLG/eeeVWFysGICnDOfIBAAAge4IbAABikVlqM2v9PacyM4T7mJPx+NFgm7OL8GjmzcP3bBLfvNPBWgFIisMAAAAAciK4AQCgfwMMMlbuOZXH1yG/e5S9vUe1zfnZRVXehM3jm9Pj8+0WcOP61es3jMYByMTQ5vkBAAAwKIIbAAD6JMhYtOdU6l+Z1Nc/WKO9IoRwcT7Zq9U2W8Q39bE3AAyT3SQBAADIm+AGAIB+CDJmrYxvkvhC+ZvNQJndhBAuziehNvYmrIpvzk4vQgj1+AZIhZ/etMH3EgAAABkT3AAA0DWn9NYxN76J/EsX+fIG5cPvv3z7zoMtPrBKbUIIF+eTqTfDqvimKm/+8KXf2uKzA5Hw85xG+OYBAAAgb4IbAAD64RzM+qqvVcx7TqU1hodFRqNHs20upmubJfHNeTnnZmywDSQs1y0O6VhRHPk+AQAAYCAENwAAdM1pmK3FueeU1CYrZVQzeVzehDXim6mxNx0sE2iV+IYt1L89AAAAYAgENwAAkKQY9pxy5jVbVU4zCeHJsTdh1bZTe+PRl3/hcx2tE2if+IaN+GYAAABgOAQ3AACQvO73nHKeNVdF7fJk5u2psTehFt+Um0zV4xsgP+vEN8HjwlD5ewcAAGBoBDcAAJCPDvacktrkbTJ5eKEoNotvpDYwNIsecYJHiiEpiiN/xQAAAAyW4AYAAPLU+J5TTqAOwaQqbmp9zUbxzRc/+ZkW1wdEaepBwc5TAzEVWgEAAMDQCG4AACB/u+851eCMHGI2uQghhGL0uLwpiuJxhLNGfAOwzs5THk1SV/5t+nsEAABgyAQ3AAAwIFucBJXaDMr5+UUIYS+MHr9r9DiiWRnfGG8DTBHfZKz8i3OcAAAAwGAJbgAAYKDWOQk698rDURRHQ7vjr//c577j735vmd2EEPb2RpOL2n9eO74BmLX8cWdoP29Tt+Tvy18oAAAAAzFafRUAACB3k8nd6k/fa4nF3PCoQS+8+Gqrt7+1i/NJ9ef8/KL6E0KYXDz8E0KY1IQQJpPwez9jvA2wLo87KVqU5M79e2z7YRQAAAB6Z8INAADwhOqc2WD3/hj47hjH98/29h/+bsb4iV/SeDzrpr7nVDEKk8nkzv/62Y7WB2RnmD9s07JRPTO11VQY/AMrAAAAuRLcAAAA863ccyq/02aD6ooW+cov//a/81/+xfLy+enFRvENABnb6JFx+ZUzPpYAAABgOAQ3AADAanPjm5zylJzuy+7u3zsbHyzLaKbim9d/7nNtLwmAHu34yLjOhxfFkcdfAAAA0iK4AQAANpPZnlPprrw9X/u1L/xbH/+PDy7thRDOTi7K+Ob05GJ/XoXz/37q/+56fQC0r9UCZu4tl4/IHosBAABIheAGAADYUgZ7TiW01I6dHJ+fHJ+HEA4u7Z0cny+Kb77yy7/d7zoBaEP9Yb0bk8ndqU/qMRoArHxVhQAAIABJREFUAIDICW4AAIAGJLfnlNN4yx1/5ndOrz57cDg+eXB+cPlxc1OPb772a1/oe5kANK+vSTMrP6NtpwAAAIiK4AYAAGhY5HtOxbOSyO3f+r1JCPc+8OdDCJcO9w4OxyGEMr45/szv9L06AFoUw+Pjom2nYlgbAAAABMENAADQnpV7ToVuT+lJbbZw5YtfKi9MQgghHPe4FAA6Ee1D5Oy2UwAAANAjwQ0AANCFlfFN26f37CEFAHP1tYfUFpJYJAAAAAMhuAEAALo2N75pb/yM1AYAFjEzBgAAALYjuAEAAPpURTBt7DllDykAWMlDJAAAAGxBcAMAAESh2T2npDYffv/l23ce9L0KAGI3zEdJAAAA2N2o7wUAAABMm0zuVn+qdxbFUfVnycfWrzB1CyThxvWrfS8BIHO2kQIAAIDdmXADAABEbaM9p7YbhwMAAyG1AQAAgKYIbgAAgDSs3HNq9moAwCyPlQAAALA7wQ0AAJCeRfFN9aZTiQAwy+MjAAAANEVwAwAApG2jPacAYGiK4shDIQAAADROcAMAAGRinT2nnHEEYFCm5sABAAAATRn1vQAAAIDmTSZ3qz/19xfFUfmnr4XVvfDiq30vAYCc2WYRAAAA2mPCDQAAkLm5k2+MvQFgCDzGAQAAQEsENwAAwIBU5x3tOQVA9jyoAQAAQHsENwAAwBDNHXtTv+wkJQApKoojD2EAAADQAcENAAAwdPacisrf+et/+q3Xnv+WD/1G3wsBSEz9kQsAAABom+AGAADgMXtO9evv/PU/XV5467XnQwiyG2hb+fPNT7aclH+bBrYBAABA2wQ3AAAAc9hzqmNValNn1A3A+pY/MImrAAAAoFmCGwAAgBXsOdWqualNxagbgCWK4mjuY9CiB6ZF1wcAAAA2JbgBAADYgD2nmrW8tqnIbgBm1R99VpraaiqY2QYAAAC7EdwAAABsY+WeU8EpzKXWTG3qZDcAle22iFpn26ktbhYAAAAGSHADAACwq5XxjTOXdVukNnWyG4DSjg8u63y4LagAAABgEcENAABAk+bGN8beVHasbSqyG2Dg2ng0mXub243SAQAAgOwVni0DAAC0rR7c1P2fv/RMe5/09p0H7d34FppKbWbJbmBrWoqE9PWXNfV5DW8DAACAkgk3AAAArVu059RAtJfalEy7AbLX42PHyrDGtlMAAAAMkwk3AAAAvXnlpedavf0Yhty0XdtMkd3ARky4SUXMUYuZNwAAAAyTCTcAAAC0ouPUpmTaDZClmFuWyeTuAIe3AQAAgOAGAACAhvWS2tTJboAMxDzVZkoq6wQAAIAGjfpeAAAAAFnpvbapvPXa82V5A5AcM2MAAAAgcibcAAAA0Ix4Ups6026A5JS1jbExAAAAEDPBDQAAALuKM7Wpe+u15zU3QELUNgAAABA5W0oBAAD05oUXX+17CQ2Iv7Yp2WEKiFl9Dym1DQAAAMTPhBsAAAC2lEpqU2eHKSBC9doGAAAASILgBgAAgI2lmNrUyW6AeJS1jak2AAAAkBbBDQAAABtIPbWpk90AkVDbAAAAQHJGfS8AAACAZORU21Teeu35srwB6IXaBgAAAFJkwg0AAACrZZna1Jl2A3SpKI50NgAAAJA0wQ0AAADLZJ/a1MlugLYVxVHfSwAAAAAaYEspAAAAFhpUbVOxyRTQNuNtAAAAIHUm3AAAADDHMFObOtNugDZIbQAAACAPghsAAACeILWpW5TdlJvCOHEOrKMojvy4AAAAgMzYUgoAAIDH1DZzTW0yVdY2AOvwEwMAAACyZMINAAAAIUht1lA2N//2h38vmG0DrKeahmXIDQAAAGRGcAMAADB0UpuNfPP2s7M7TAEsUnU2tqIDAACAnNhSCgAAYNDUNluY2mEKYJEqr5ntbIriqPzT+aIAAACABphwAwAAMFBSmx2VzY1pN0DdkjE2K2fb2HYKAAAAEiK4AQAAyNaH33/59p0Hs++X2jRIdgNUNhpXM7etse0UAAAApEJwAwAAMCxqmzbIboDSLq3MZHJ3Ktmp3pTgsKNqJ0QPVQAAAE0R3AAAAAyF1KZtshsYuN2zGNtO0Yaqtpm67AELAABgF4IbAACA/EltuiS7gUFptYCx7RS7qxc2S/6Thy0AAIBNFZ6cAwAA9OuVl55r78Zv33mgtumR85dETrqxo16+gFOf1LZTLLIktVnJ4xcAAMBKghsAAICetRrcfPQjT7d346zJaUuiJbjZRSRfvdngxrZThN1qmykexQAAAOaypRQAAEDOXn/jOITwHc9c6nshg2aTKchVDF2LbaeY1WBtE+w8BQAAsIAJNwAAAD1rdcLNe979+BctZDcxcKqSqMgycuVvdsiarW2W8IgGAAAMnOAGAACgZ50FNyXZTQycpCQSsoyN+HIRuc5Sm1ke1wAAgAES3AAAAPSs4+CmJLuJgdOT9K4sSIKIZA2+VkSux9pmikc3AABgIAQ3AAAAPesluCnJbnrnrCT9qiKSOi8WzVUUR74yRCue2maKhzkAACBjo74XAAAAQG9ef+O47yUM3VuvPd/LWdK5mQWDNdWRFMVR9aevJUVIbUO0oq1tQgg3rl/tewkAAABtWfabjgAAAGSvbG6MuulXea60mzEAEgrmqtck9W+S+uUBFiem2hC/aGubn/+Vr4UQrt+41fdCAAAA2iK4AQAAQHYThQ6ymyqe0BCwhPgmSNNIQbSpTXhU2wAAAORNcAMAAMBDspsYtJTdSG3YzsDjm4zvGqlT2wAAAPROcAMAAMATZDcxaDa7UdvQiEHFN9ncEbKktgEAAIiB4AYAAIA5ZDcx2D27kdrQkpXxTYrfckVxlOKyGRq1DQAAQCQENwAAACz0+hvHmpvebZfdZDl0hDjNjW+S+w6sLxiiFW1tI7UBAAAGSHADAADAMkbdRGKj7CbpKSMkrfqWS2vPqXKFca4NStGmNkFtAwAADJXgBgAAgNVkN5FYmd1IbYjEyj2nQmTfpVEtBqaobQAAACIkuAEAAGBdsptILMpu1DbEaWV80/t3bO8LgCXUNgAAAHES3AAAAOTsza+fvefdDT/1k91Eop7dxBMuwHKL4pvuFcWRfy/ET20DAAAQLcENAAAA25DdRKJ+LlY9QFr6+o7tN/SB9altAAAAYjbqewEAAABD98KLr/a9hO2V2Q29++btZ9U2sBH/ZIjZW689H21t8/O/8jW1DQAAQBDcAAAAsKPX3ziW3cQg5rOzEJXJ5O5kctecG6IV8w9zqQ0AAEBFcAMAAEADZDeRkN3AXHPzmqI4kt0Qm5h/hqttAAAA6gQ3AAAANEZ2EwnZDdTNrWpmt5Qq+xsJDj2K+Ue32gYAAGDKuO8FAAAAkJuyufmOZy71vZChq5+4/ZYP/UaPK4EelQHNbF6z6J1TH7vyOtCImFOboLYBAACYR3ADAABAK2Q3UalO5WZT3ighWN+a3ypzr7ak14GmqG0AAABSJLgBAACgRa+/cay5iUoGY2/s+MNGdmllJpO7U99v1ZsSHJoSc22zY2pz/catplYCAAAQIcENAAAA7TLqJlopxjdyB1ZqdiaNbadoVca1DQAAQPYENwAAAHRBdhO5JPacsrkPK7U9AMm2UzRIbQMAAJA0wQ0AAED/Xnjx1RDCKy891/dCWie7iV+cY28MtmF9HX+T2HaKLcSc2gS1DQAAwHoKz/wBAABi02x58553R/q7FrKbtPQY38gX2mM0Sxt8x7LccGqb6zduNXVTAAAAERLcAAAARG33+Cba4KYku0lRZ/GNcKFteQQ3RXEU+V3wnUwl5tqm8cE2ghsAACBvUb/qCgAAQLnbVCnLPadsMpWi6oRxq+WNRoGVpvZygsgNqrYBAADIngk3AAAA6dmovIl8wk1Fc5O6BuMbqU1nUp9wk/r6GZQB1jYm3AAAAHkT3AAAAKRtZXyTSnBTkt3kYZf4Rm3TJcEKdCDm1Ca0OdtGcAMAAORNcAMAAJCJReVNWsFNSXaTk/XjG6lN91IMboriKK0FM3CDrW2C4AYAAMhdeq+6AgAAMNcLL75aXd5oz6kIvf7GcZDd5KI62by8vFHbsI7q+wSSMOTaBgAAIHsm3AAAAOTslZeeS3HCTZ3sJkv1+EZq06O0JtyktVqIubbpJrUx4QYAAMhb2q+6AgAAsFw19ubWr3+s35VszbSbLM2eh1ZRsA7fJ6RCbQMAAJA9E24AAAAGJN3sJmhuBmD5nlO0wcwYaFzMqU3otrYx4QYAAMibCTcAAAADcvXazXSbG6Nuslc/Sy2+oVQUR3og0vL53327vPDRjzzd70pmmW0DAADQIMENAADAsFy9djOkPOpGdjMQ4hvK6TuQrqq8CXHEN2obAACAZgluAAAAhkh2Q0Lyjm9McFnOF4c89B7fqG0AAAAaV3jZAgAAYODSzW5KspthyqO8KYe49PjiTO8LgPy88tJz61+5g/imr9Tm+o1bvXxeAACAzphwAwAAMHSm3ZCi1MfeVPsliV3qzPthaNqefGOwDQAAQHsENwAAAIQQwtVrN9NtbkIIr79xrLkZrOTiG7XNXNWXBYap8fhGbQMAANAqwQ0AAAAPGXVDBqr4Jtryxi5Oc/myQN3u8Y3aBgAAoG2CGwAAAJ4guyEPEY69MdhmOV8WmGuL+EZtAwAA0AHBDQAAAHPIbshJDPGN2mY5XxZYx8r4RmoDAADQmcLLGQAAACyRbnNTkd2wSDfxTcypTY8bOdlDiiy98tJzvXzeMr6Jqra5fuNW30sAAABolwk3AAAALJP6qJtg2g2LVZNv2itvYq5telR9WYIvETShPvmmQb/+L/cPn94PIRxe2Q8hHD49/o+eiqjpAQAA6JfgBgAAgNXyyG40NyzS0p5Thrgs4csC8bv2wdNf/cLZ4ZXx/bdPQwiHT+//Rnjq+W9/p+91AQAAREFwAwAAwLpSz26MumEdjcQ3prYsV/+yzH6JfPUgHvfvndYunx1eGf/6v9y/9sHTJR8CAAAwEKO+FwAAAEBirl67WZY3iXr9jeOyvIGV3nrt+fLPRh+lF5mrvo3UFh+7y4fDENy+86CNm/3B7x/fv3da+3N2/97Zr36haONzAQAApMWEGwAAALZx9drNdEfdBNNu2NCaY2+kNotslMss+uoVxZEvLHTv5Ph83ru9sAwAAAyd50UAAABsKfUdpoLshq0sim/UNouUX5ldvizlx9arHV9t6MxTV/bLC+/cO63im0+9fP7DH/foCQAADJrgBgAAgJ3Ibhiyqd2mxB+LNPKVWX4j5t9AS37gY6N/emvv/r3TqrwJIbxz77THJQEAAMRAcAMAAEAD8shuNDfs4pu3ny37myV7Tg1HPX9po4OZe5u7j9IBFjms1TZT8Q0AAMAwCW4AAABoTOrZjVE3NGLRnlPDUd/7qTOTyd2pz2vbKWjK4ZWHLyPfv3cWHsU3//RW+CtXz/tcFgAAQK8ENwAAADTs6rWb6TY3QXZDowYY3/Q4ZmblJ7XtFOyoKm/Co/hmrus3bnWyHAAAgD4JbgAAAGhe6qNuguyGFlTxTa7lTZWzRBK12HYKmnL4dG0/qbdPH77zyjgEE24AAIDhEtwAAADQFtkNzJXl2Jsk9m+a3XYKWEe5h9T9e6fhyfgmhOOeVgQAANA/wQ0AAADtkt3AEnnENwmNjUlikRCbj77r65//xrvL7KZUxjcAAABDJrgBAACgCxlkN5//3bfLCx/9yNP9roRcpRjfJDHYBpjrV79QHF4ZhxAOn94/vLL/Pd/6zSVXvvz0+MHbZ9Wb9fgGAABgmAQ3AAAAdOfqtZtJNzcl5Q0dqOKbmMsbtQ2k61MvHx9c2nu4S9SVs/DV+7/+1f1rH1w2t+by049fTC7jm89/490ffdfX214qAABAnAQ3AAAAdCqDUTeVqrwJ4htaE+3Ym4S2kQKmfPrmxVNX9kMI79w7DSGcHJ8/jG8+uPDl4sOnx/drE27q8Q0AAMAweV4EAABAD3LKbkrim3h89w/98cHlvYPLeyGES5f3Di7thRD2L+8dVJcv7e0flBdG+wd74/3R//jCvX7XvKZI4huDbSB11YZQh1f2yyE3IYR37p1+6uXzH/74pYUfVYts6vENAADAMAluAAAA6E1+2U3JnlMd+9iP/n8nD86PH5xNLiYhhIPLG7/c8d+9cmV8MBqPR6O94if/Qhrbo/S155TaBlL3m1+5cnhlztZR9fhm1uWn9h+88/i/Po5vTppeHwAAQCIENwAAAPQs1+wmGHvTvo//1L2TB+fN3ubf/2fvri4nEd90NvZGagN5qMbbLLDwh+rlpx5/YD2+AQAAGCbBDQAAAFG4eu1mls1NxdibBv21nz45OT5vPLWZJb6pqG0gG5efXvaa8Mu/P/74dx3P/agHtW2kHsc3JtwAAABDJbgBAAAgFhmPuqkz9mZHf+MXw8HlvZPj1mubKVV8k0R5ExqNb8raRmoDy73y0nN9L2G1Lx28N5yeLW9uQpgT3IQnS516fAMAADBMghsAAADiMpDspiS+2dTf/vTeku1OupHc2JtQi282LW8MtoH8HNa6mftvr4xv5nv8Ud9oZFEAAADpEdwAAAAQo0FlNyV7Tq30I/94P4SL6s2Dy3sd7Cq1XHLxzUZjb9Q2kIrbdx6sc7U33vXvXq69+eCd0/Xjm/H+qLp8dnqx6GoAAADDIbgBAAAgXgPMboKxNwv8xMtPhXDa9yqWSXHPqW/efra8MBvf2EYK8jO1J9Tlp/Yfv1mPb05W3E49vgEAABgswQ0AAACxu3rt5tCam4qxN6W/9+q7ps4AH1zaOzneeLzNyfH5waW95tY1X3Jjb8KTe04ZbAO5KkOZcj7NkvhmNrh585n3dbA8AACAtAhuAAAASMAwR93UGXuTqOTim2rsDZCZKpqZ3RxqKr5Z/zbf88aXG1odAABAegQ3AAAAJEN2UzL2JlEp7jlVXZ7dcwrIwPz45hs73eb1G7d2XBUAAEASBDcAAAAkRnZTMfYmUcmNvQniG0jcOntC1eMbAAAAVhLcAAAAkKSr125qburyjm9+6rlv/MTLT/W9ilYkHd8obwAAAIDBEtwAAACQKqNuFslyz6n/6ePvfOL/uHx6ctH3QlpkzykAAACAVAhuAAAASJvsZonMxt78zH/24G9/em/NK588OD+4vO6VY5P02JuQRXxTFEeTyd2+VwHNWGc/KQAAADYluAEAACAHspuV8hh78ws/cP43fnHhfy1GxeRi0uFyupB0fJNoeVMUR30vAQAAAIid4AYAAIB8yG7WkfrYm//9h0IIe3/tp8/7XkgP7DnVgbK2Md4GAAAAWE5wAwAAQG6uXrvZRnPznneP3/z6WeM3269045t//F8fhBA+/lP3+l5IP5IeexOij2/UNgAAAMBKghsAAAAyZNTNFlLcc+rlv3elvPDRv/Un/a6kR+KbZqltyMybz7yv7yUAAADkSXADAABAtmQ320lx7M3n/+G3Vpe/+4f+uMeV9Cu5PadCLb7pq7yxhxQAAACwBcENAAAAmZPd7CLFsTf//Be/rbzwff/NN9a5/tnpxXh/1OaKemDszZrK2gYAAABgU4IbAAAABkF2s6MUx9589n95V3X5r/7Pxz2upF//wxf+1HhcjPZGP/GRZDbe6jK+MdsG6t7zxpdn3zneH52dXnS/GAAAgJgJbgAAABiQq9duam52l+LYm3/y314qL/zgP5z0u5Ie/fS/+LbRXvGJZ7/a90I20+qeU2ob8vbmM+9r6qbqk8DENwAAAEFwAwAAwNAYddOgFMfe/NLfKkK4COEihPDjv3ap7+X04JN3/kwxCj/2XX/U90I21tTYm6I40tkwEC1VMvltwwcAALAFwQ0AAABDJLtpXIrxzSf/8uN9pn7yc9/S40q697N/8N4f/c5/0/cqtrd1fFMURy0sByJ16XAvhHB8/zzsEN/c/w/fX48Ty1sDAABAcAMAAMBwyW5akuKeU3//e996eOGfvbvflXTmH/zBe38k5eamsn58U9Y2xtuQmdt3Hiy/QpndlKbimy3G3tRvDQAAYMgKLzEAAABAWC+7efPrZx2sJFcJxTeVPOKbYlSMx8Vob7S3V4z2imJUFKNQFEURwiSEpOfcLDG3vLGZFO155aXn+vrUS4Kbi+/+D6rLx/enH8KmZtWU8c173vjymjdy+C/uzP2k12/cWrFiAACALAhuAAAA4KGVzY3gphEpljch5fhmeXBzfnbxiQ98te81tmujPadgOxEGN+OPfbi6fPLgibZmSXzzrtf/YOo/1YObutE//39m36m2AQAAhsOWUgAAAPCQHaa6UW04FZKKb37yL3y9vJBueTNY6+85BTk5uLwXHqU25eXqzUuHj18WLuObJRtF1W8HAACAiuAGAAAAniC76VKK8U1V3gTxTYKq+EZ5w0BMpTbVm2FxfLP8doL4BgAAIIQguAEAAIC5ZDfdq+KbVMqbYOxNyoy9IXsHlx6lNsfzU5vl8c2yW768F0KwySIAADBwghsAAABYSHbTC2NvuvSJD3y17yX0T3xDlvYv7Z2Wqc2lWlizKr6ZymieeuFq/U2zbQAAACqCGwAAAFjh6rWbmpu+JD32JqQW3xDEN+Rlv5barB/fLFG/sgk3AADAwAluAAAAYLVy1M0rLz3X90KGK8WxNyH6Pad+9Dv/Td9LiFoV3+RR3hTF0WRyt+9V0J3xwai8cHZyEdaLb85u3p66kal9qSrvvHKr+RUDAAAkRXADAAAA63rhxVery+KbHqUY30Q49uZH1DZry2DsTVEc9b0EujbeH52dXoRaeRNWxTfvLL612ToHAABg4AQ3AAAAsI0qvlHe9MueU1v4se/6o+4/aTZSjG/K2sZ4m0H5sy9+TwhhvF9LbdaIb2btX9o7nclrDi7tLUlzAAAABkJwAwAAADsx9iYSKY69CZ3vOfWJZ7/awWcZjoTiG7XN0IzHtbDm7CKsF99M+da/+tEwbxwOAAAAQXADAAAADTL2JhLG3sz6iY/8SeO3SV0V30RY3qhtBmhvPDo/e9jQVPHNWfWepfHNEsvH4QAAAAyK4AYAAACaZ+xNJFIfexN2i2/qt0NnIhl7UxRHOpuB26sNuSnjm9mxN6EW3/zhS781dQuLRuD8yT/5fNOLBQAASI/gBgAAANpl7E0kUhx7ExZEM1MVjrAmWn3FN0Vx1NnnIk6jvaK8cHE+CWvHN0usOQIHAABgOAQ3AAAA0BFjbyKR6NibOoVNijrbc6qsbYy3GbjRXlGmNlV5E9aLbyp/9sXvKS+Ue04BAAAwRXADAAAAPTD2JhIZxDckp4OxN2obwrzUZkl88+Vf+Nyi26n2nAriGwAAgBrBDQAAAPTJ2Jt4JLrnFElrI75R2xBCGI0ebSl1MT+1mX3PlPF4NLvV1Hh/9Icv/VbjqwUAAEiR4AYAAABiYexNJIy9oRf1+KayZoVTFEc6G55QhDAJoVbehPXim7r6VlOz8Q0AAMDACW4AAAAgOsbexMPYG/o1t8IpVS1OURx1tRyic/vOg4X/rV7RLI1vvvSzn5360G//oY9Nvace3yxy/catldcBAADIhuAGAAAAombsTSSMvSE2VYvzzdvPhnZ2pyJd07HN0vhm1l4trzk32wYAAGAewQ0AAACkwdibeIhviNw6c3HI22QSQghFEUIttpmU/zcT3yxXxTfnZxf/+hdvNrRAAACA5AluAAAAID3G3sTDnlOkRYvThgh/FE8mk6IoJrWepijmlTZF+OLPfGbqY7/zv/pPywsX50/0OHtr7CoFAAAwHIIbAAAASJixN/Ew9obULWlxghwnQZNabrM8vllktPfwWlPlDQAAAEFwAwAAANkw9iYext6QH6Nx0jK5eHihGIVQi2+KogiPNpwKIXzxk9PjbUIIo71iqrApy5s/+N9+s53FAgAAJElwAwAAALkx9iYext4wBFqcCJ2fX4QQ9vZGVXkTQihG02NvZj/wz//o94XabJtgvA0AAMACghsAAADImbE38TD2hgHS4vTlUSXzOLeZjW/mjreZVY9vAAAAqAhuAAAAYBCMvYmHsTcQmm5xiuJoMrm724ry8ef+5l86O7sYj0dPDqdZGN/UjUa12TYXjz/8Sz/72aaXCQAAkDbBDQAAAAyOsTfxEN/ArE1bnKI4anM56Tk/na5p6vHNaK84P794/ec+N/uBH/jx76+/WY9vAAAAmCK4AQAAgOEy9iYq9pyClea2ON+8/Wz3K4nZ6cmC8TUhhBDGYfSvPvV/zf9vVWAzeeLda24+BQAAMCiCGwAAACAEY29iYuwNbKHZPaqSdnZyUf7v+GC0/kd94BO18Tb10TaTmasCAAAguAEAAACmGHsTFWNvYHdDa3HuvXVycGkvhHByfF5eqMc3X/nl3577UQum2zwZ3wAAAPCI4AYAAABYyNibeBh7A23IssU5/szvnPzFDx1cfqK5KX3t174w90OerY23mZpu88WfsZ8UAADAHIIbAAAAYDVjb6IivoEOJN3iTH77tXtXnw0hHByOTx6cH1zeOzk+P/7M7yy8/qOxNsWT82xMtwEAAFikmEzu9r0GAAAAIEnKm6gob6Av9QauY7fvPFjyX+9+2zOXnhpffmp85YtfWnK1D/z49899f1GE39tkvM31G7fWvzIAAEDqTLgBAAAAtmTsTVSMvQGmHP3xG+tcbfJovk3x5HybauzNOtQ2AADA0AhuAAAAgAZU8Y3yJgZVfKO8AZZ7/499X3V5UktsiqL44ic3GG8DAAAwNIIbAAAAoEnG3kTF2BtgucnF48vFqPb+jebbAAAADI/gBgAAAGiLsTdRMfYGMnP7zoMdb+E7/u731t+sxzdf+gef3fHGAQAA8ia4AQAAAFpn7E1UjL0BwqPa5vz8cWWztzdafHUAAACeILgBAAAAOmXsTVTENzBYF+eTEMJor6jeU8U3r//c5/pZEwD0Agp5AAAgAElEQVQAQDoENwAAAEA/jL2JjT2nYDj+/R/+T8oLZXZTKuMbtQ0AAMA6BDcAAABA/4y9iYqxN5C3P/c3/9LZ2eOdpMbjhztJ1eMbAAAAlhPcAAAAABEx9iY2xt7AcvVALRXnpxchhP+fvftptWVJ8wKceWpX3bZQEBSFWgglOBAnjhSxnHeD4MCROOr+FPUBHNU3cCJdI3HkQBC6pmLbglz6OtDrQKiSYhcICoI2fburm+VgVefNm5krd678E/FGxPNwBvece87asdfeOzPijV++8a1v/ypnMw7f/I9/8e/yjAkAAKA0AjcAAABAUNrehKLtDdThr/6Tv//4j0fs5uERvpG2AQAA2E7gBgAAAIhO25tohG+gUI+0zS//+Ouozbe/86n7ZvgGAACALQRuAAAAgJJoexONM6egFH/pH/+9PxlFbd6+86kbhW/+57/6D3mGBQAAUCaBGwAAAKBI2t5Eo+0NRPYX/uHf+eM/+tPht9/57Fvj8M3//tf/McegAAAACiZwAwAAABRP25totL2BOPp/8Le7rpukbYbffuezb0nbAAAA7CBwAwAAANRD25totL2BvP7f3/qbn/3hn6z8hf/7b/9TssEAAADUROAGAAAAqJO2N9FoewPp/fn/+t/+1/f/xq999+2P/vBPP/tz3xr/r/u//8+5RgUAAFABgRsAAACgctreRKPtDaT0l3/237uue/8r3//su29d1/3ad9++/fl/yT0oAACA4vX3+3vuMQAAAACk1ve33/nt7+ceBd8gfEOJxgGyxL748qtcH3rihz/6PPcQAAAAUtPhBgAAAGhO39+6rvuN3/rZ47eSN0E4cwoAAAAohcANAAAA0JZH2mbc9PfxJ53kTRjOnAIAAACCE7gBAAAAWjEEayZHbA+/Hf5CJ3wThrY3AAAAQEACNwAAAEATnqVtxrS9iUzbGwAAACAOgRsAAACgfvNjpD6k7U1kwjfwxZdf5R4CAABA0wRuAAAAgJptaWyzTtub4Jw5BQAAAKQncAMAAABU63jaZkLbm8i0vQEAAACSEbgBAAAA6rTjGKnttL0JTtsbAAAA4FICNwAAAEBtTm9ss07bm8iG5M1Pf/7Lruv+6T/6i1mHAwAAAFRC4AYAAACoSuK0zZi2N/H9y3/zfxb/XBAHAAAAeInADQAAAFCPS4+Reom2N2V5FsTpZHEAAACAJQI3AAAAQA0yNrZZp+1N6WRxAAAAgDmBGwAAAKB4YdM2E9reVEYWh9/7/T/IPQQAAADyELgBAAAAClZK1GZicbQ/+fEP0o+Ei8jiAAAAQN0EbgAAAIBSFZq2eebXf/N3h/8WvqnYsyyOIA70/a2O6zkAANACgRsAAACgSI+0Ta1bs0P4RvKmHZri0LjxWXsAAADx9bWWpQAAAIBaVdbYZjvhmyN++vNf5h7CJWRx8vq93/+DXB/6iy+/yvWhJ374o89PeR3tbQAAgLLocAMAAACUpNm0TaftDUv0xaEaDV7VAQCAogncAAAAAMWo+xip7YbkTSd8w3OyOMSnqw0AAFAugRsAAACgAC03tlmn7Q07PMviCOKQ0nBhBwAAKJHADQAAABCdtM0W2t5wnKY4JKNjGQAAUDqBGwAAACA0m7I7aHvD6WRxOJ0LOwAAUDSBGwAAACAojW2O0/aGBGRx0vviy69yD+EoF3YAAKB0AjcAAABARNI2p9P2hvRkcQAAAKiVwA0AAAAQi6jN1YbkTd/ffue3v591LLRLFqdBfX9zYQcAAKohcAMAAAAEIm2T2G/81s+Gt1rnG4J4lsURxCnacHkHAACog8ANAAAAEMVjO1bUJpnJW+3MKYLTFKdcLu8AAEB9BG4AAACA/DS2CWVI3nTCNxRCFic+l3cAAKAyAjcAAABAZtI2kWl7Q+lkcSJweQcAAOojcAMAAADk5JyRXF5957W9oT6yOAAAAOwmcAMAAADkobFNubS9oXrPsjiCONv1/c3lHQAAqJjADQAAAJCBtE0dtL2hNZMgzl//a9/ONZLghos8AABArQRuAAAAgNQcIxXB6e+/tjfQoB/+6PP5H7rIAwAALRC4AQAAANIZ9zxw2kittL2hEdrbrHB5BwAAqidwAwAAACQyP2HEwVLV0/YG6rbYzMYlHQAAaIHADQAAAHC5Z8Ga4c/HWRw7tWkkPvNF2xtogcOkNvJGAQBABXpzegAAAOBSW9rYzJvfrP99jouw3ZsyefPTn/8y2ceiERmPlPriy69yfejBD3/0+fwP9S3bIsLlFwAAOE6HGwAAAOBCG7cVx39h3vbGrmSttL2BQi2mbbo/u1yPM5Su5HPeCgAAqIMONwAAAMAljm+yanvTpouSNzrccLpmO9w8S9ssmt8L+v7mSg4AAFRA4AYAAAA437ktDSRvmnVi+EbghtO1Gbh5KW2zSM8bAACgDgI3AAAAwMk2HiN15MUn1Deqdzx5I3DD6RoM3BxP2zxMbhMtRHAuvTMCAABZCNwAAAAAp0m5aSp5c1C5u7/7wjcCN5wuV+Cm9LTNXPWBm3KvtwAAwIq33AMAAAAAKpF4x3T8UYYPXf2uLV3X/fpv/u7jP048cApYd13aplu6Ytd0MZe2AQCAWgncAAAAACfIu6E4P5dk3P/GNmethuRNJ3wDV7o0bbNRubGVEscMAABs4UgpAAAA4JCYfQgcONWsZ8kbR0pxukaOlIqQtumi3msAAICWCdwAAAAA+xWxAyp806xx+EbghtO1ELgJkrYZ9P1t3tLM9RwAAMjCkVIAAADATqUc8DHfne2+uWtLrYYzpxw4BTtES9t0H91x4lzYS7k/AgAAR+hwAwAAALysgr4CcfZlc7Ef3HXdP/9nfzf3EChY3R1uAqZtPhTk3uTqCgAAjRC4AQAAAF4TZEeTg2wJrxDEYYuKAzclpm0eJle29Bc6l1YAAGiHwA0AAACwlahNTewK7yOLw6DWwE25aZs5ty0AAOA6AjcAAADAJrYtYYUgToOqDNzUlLYZjM8QdC8DAADOInADAAAAfEw3FNhNFqdW9QVuqkzbTMwDN+M4DgAAwHYCNwAAAMAazQDgOrI4RaspcNNC1OaZ47c5mVQAAGiTwA0AAADwlLRNxewQRyaIU4RqAjctp20eJtfDl+59rqUAANAsgRsAAABgmU3Euvn6FkoWJ446AjfSNnPbAzcupAAA0DKBGwAAAGBKY5sW2CeujCBOYrnSNt2pgRtpm43cFgEAgDmBGwAAAOAbbCtCZWRxrlBB4EbaZrv5nVFmEQAAELgBAAAAvmYHEZoii7Nb6YEbaZuDhFNfYnYBAECVBG4AAACArrN3CIwI4nyo6MCNtM1Z+v426XnTuY0CAEAzBG4AAAAA24Qt0m+AfWRxHsoN3EjbXGTx2CnXWAAAqJjADQAAADRN1KZZAjecq7UgTq7AjbRNQdxhAQCgbgI3AAAA0C57gS0TuCGZKrM4JQZupG3Sm1xpW7vwtvb5AgDQGoEbAAAAaJRtMCC7crM4xQVupG0iaCrnapoBAED1BG4AAACgOU1t+AElih/EKStwI20TSt/fJj1vuuruyNI2AAC0QOAGAAAA2lLr3h7QiCBZnIICN9I2kc1vyuM4DgAAEJnADQAAADTEE+cMfDNQn5RZnFICN9I2xZGLBQCAUgjcAAAAQBNs4DEhcEM7rgjiFBG4kbYp1OT67A4OAAAxCdwAAABA/ezVMSdwA92BLE78wI20TTVKuYm7rQAA0BqBGwAAAKhcKRt1AHF8GMSJHLgRtalewDu7tA0AAA0SuAEAAIBqDRtyE6oBALs9sjhhAzfSNi2YB27y5l2kbQAAaJPADQAAANTp2W7chMoAwBE/+fEPUn649cCNtE2zAva8AQCA6gncAAAAQIXWnzWXvKHTkADOliZ5sxK4kbah72/zlK3rPAAAXETgBgAAAKry6gbbPHyjVtAIgRu4znXhm2eBG2kbJhYb3bnmAwDAiQRuAAAAoB5HHmfX9qY1AjeQwOnJm8XAjbQNW5zb88ZNBAAABG4AAACgBifuokneAFzhlPDNPHAjbcN2k5TM7tCMtA0AAHQCNwAAAFCBc59ZX3zlgUoCwEFHkjeTwI20DUfsnj8I3AAAQCdwAwAAAKVLs+ml7Q3AFV4N34wDN9I2nKLvb5OeN51bPAAAbCBwAwAAAKXKsismeVMN/Qkgmi3hmyFwI23DFeZTi3EcBwAAGBO4AQAAgCJFeAbdgVNFGwduhG8glJXkzSNwI21DMhHmGwAAEJPADQAAAJQnWjxC8qZE88BN5wsH8YzDN9I2ZDGZdbhlbBdtwgYAwLkEbgAAAKAkwXe5HDhVtPG5IcG/06BBP/nxD7748itpG7Jzg9hI2gYAoHoCNwAAAFCMgra4JG9KN/9mG8dxAGBQ0PwEAABO9JZ7AAAAAMAmZT0nPR7nYviG4Ba/08r6JgQgF/cLAABaoMMNAAAAROfBca6wYzd08k/0vAFgkakLAAAt0OEGAAAAQrNlRRzzb0I9DACYe9wXxi3u2pnPuDMCALTjU+4BAAAAAMv6/jbs2di2IaDF/I0TxAB4WJ+9VHm/kLYBAGiKI6UAAAAgonYeBKcmvm8B2Ki+W4a0DQBAawRuAAAAIBwbNhSt72/Dd299+6kAnGUy4TH/AQCgLG+5BwAAAAB8TTqBCvjuBWCLxfvFOLUJAACR6XADAAAAUUjbkFKuRgK+zwFYoU0aAACl+JR7AAAAAEDXjdIPtpQAgGatT4SGCE4cfX8LOCoAABJwpBQAAABk5ultmuL7HICNnp059ex/pRdqMAAAJOZIKQAAAMhJ2gYAYLtJxiXjVEraBgCgcTrcAAAAQDb2aQAAXvLhxKnvb2kmV6ZwAACN0+EGAAAAMtDYBgDgCmZZAACk8Sn3AAAAAKA59oGIoO9vw7ciAFRjPr9yywMA4AqOlAIAAICkHCMFAHCpxYnWKUdNmcgBADAQuAEAAIBENLYBAEjvMfUaN7nZNyuTtgEAYMyRUgAAAJCCtA3R3O/vvhsBaMf6Xe/DM6ekbQAAmOjNDgEAAOBSojYAAMGZsAEA8CodbgAAAOBCNm8AAOKbT9X6/vZh2xsAAFqmww0AAABcxdEDROb7EwBWiE0fZ7Kxj/cNAErxlnsAAAAAUCE7NAAARXvM4sZNbkzwXiI1AgBUz5FSAAAAcDKbMQAAdVifzjl26hlpm928dQBQEEdKAQAAwJmUyAEAGiFmDQDQMoEbAAAAOMfk+WYrbgCAFvT9bZj4ieAAALTDkVIAAABwgvlpAo8jBpwyAABQtw+PnUo2EgAAUtLhBgAAAI5aPEZqvrliDU4ojj8DgASa6nljdrGbtw4ASvSWewAAAABQsJUdlPnJAuMIjmI6AEAL7vf3SQ671mhFrZ9XAt46ACiUDjcAAACw06vPKy8eKGBhTi62dgAgiyp73phX7OatA4ByCdwAAADAy45vkzhwCgCgZX1/mzdENCEEACiIwA0AAAC85twdEckbAIDGzaeX4zgOAAAxCdwAAADAC65r+S55AwDAg543AADxCdwAAADAJsm2PebJmwQflAZdlx4DAI6b3KljRnBMJ3bz1gFABd5yDwAAAAAKkHKHY76tkngAAABkF3/WJzKym7cOAOogcAMAAAAfyFUQH3/EIXAjeQMA0KD53C/vtFBkBADAkVIAAADwVMB0y/zAqThjAwAgmflMVQgGACAlgRsAAABYFjBtMzZP3nRRhwoAQALBp68AAJURuAEAAIAFBT0fLHkDAMCg72+TnjedySEAwAUEbgAAAOAbit6WGIdvShw/KRWUKgMA9lk8durI3d/84QjvHgBU5i33AAAAACCQotM23Te3UvKOBACA7BbntLtjH/IiR3j3AKA+n3IPAAAAAKIYiuAV1MEr+BQAADjdfJbY97ctWW15kSO8ewBQJUdKAQAAQPGNbQAAYB8zYQCAfRwpBQAAQOvsMQAA0KzHHHjc5Mb0GABgC4EbAAAA2mUvAQAAuo/mw31/M2EGAJhwpBQAAACNkrahcY8fAd//AMCHzJz3Md0CgLrpcAMAAECL1L4BAGCj+/19fOZUJ4KzgRUHAFRP4AYAAIC22BsAAIBXmTwDAEw4UgoAAICGSNsAAMAVzLQBgNbocAMAAEArNHUHAIBkTL8BgLrpcAMAAED9PG4LAACJmYQDAHXT4QYAAIDKKfTDIg+dAwCXekwzhtl418bM3BQLANrxKfcAAAAA4EJDvVvJGwAA0lufh4/jOBWQtgGApuhwAwAAQJ1aeHwWAAAKsjgzryakUs0nAgBs1LvxAwAAUB9pGwAAKMIkpyK2AgCUQuAGAACAqojaAABAucznAYBSOFIKAACAeqjOAwBA0R4z+WFi35nkAwBRfco9AAAAADjH0HxeIR626PvbeCsLACCO9Sl9qDmMORUANEuHGwAAAIrnmVcAAKjV4iR/SNsnH07EYQAAWehwAwAAQNmkbQAAoCnzmf+jzYxOMwBASr1yJAAAAOXyRCkAACCFDwCkJ3ADAABAkZTUAQCAZ6wXAICrOVIKAACA8qieAwAAL3HmFABwLh1uAAAAKIy0DZzCiWwAQFNOXEeYRwEAXde95R4AAAAAbDV5IFXyBgAA2OixahivKfYtKKRtAIAHgRsAAADKMK+GD38ieQMAAGyxvmTo+9uHf+HDFwEAGuFIKQAAAKL7ME8z6Xyz8jcBAACeEeUHALYTuAEAACC0l0rekjewj70lAICHSQ8bLW0AgGcEbgAAAIhrd3Vb8gZeInADALDINAkAeEbgBgAAgIjOqmtL3sAz64E2e0sAAIO+v0163nSmSS/SKwiA+nzKPQAAAACYOrGEfb+/P36NX3z4dfDFoSl+ZACAOuyY1awvTEyTPiRtA0CVdLgBAAAglqtLsYvVcKtjGvTqz5qHuQGAClzRAtM0aZ20DQC1ErgBAAAgivR1agdOwUsmmyXjsxUAAOIbJjOnp/Dn06TjrwkABCdwAwAAQAh5S9KSN7CDnSQAoCDP+qxc0QJzPk2SVAaA+gjcAAAAkF+cHuOSN/CSxYe5/dQAANFsmaUsJm8+/FcvDeCsVwMAIhC4AQAAIKewdWfJG6p3RTgm7E80ANC4V2c+17W9aSepXP0nCAACNwAAAGRTxN685A21um4LZHxigo0WACC7gxOSK8I3XSGroSPMAwGonsANAAAAeRRXfpW8oTJpfgar30kCAII7cc5zxZlT86TywRcMorjlHgDsIHADAABAaqXXkcd19kI/BUis1p0kACC4S1v6jX97bqBnPHEyZQKAsN5yDwAAAIC2VLDXPs8NAOvK/XkHAFh0xaJgccqkVQwAhCVwAwAAQCIVRG0mqvlEICU/OABAGhVEVe7390mgp4JPCgCq4UgpAAAAUqgvbQOls1sDAFQszVQn/YQq+MLKDBOApuhwAwAAwOVUXQEAgGQip20OJmYe/2rc9iZ4BAcAKiZwAwAAwIUUfwEAgJTCpm0WD4d6eHW0638/1wMPHrQAoDUCNwAAAFxF2gYi84MJAJDMPIyy2KWmOy980/e3xPM900sAWiNwAwAAwCU83QgAACQWtr3N3Ifhm92v79gpAEijd2cFAADgXIq5AABAemHTNi/9k8nJUw8HP6n5Gi19/xsAqI/ADQAAAGeStoFSaEMFANSkjrTN/B/OnfI5nrhwM6sEoFmOlAIAAOA0Kq0AAACDI0uk686cevzbSaBn31CtAQFomcANAAAAJ9DYBgAAyCVse5uzLIZvDq7CFv+Vo6YAYDtHSgEAAHCUtA0AAJBL2LTN1QMbt6g566OMAzcWegCw7lPuAQAAAFCwvr8NRWRFWAAAILFm0zbjFz/xo6y/1OQUKgBonCOlAAAA2MnzjgAAALlcnel5dubUpR8UAAoicAMAAMAeyqxQOj/FAEDpWm5vk8X9/j5pcuMxDABaJnADAADAa1RUAQCA7BpP2+QamGUgAAwEbgAAAHiBtA0AAJBd3aGWKz7KRQObv6A140a1tkECaIrADQAAAFspCEJN/CwDAOV6nG00Pt7I3CYsC8k57wlAHXqXcgAAAD7kIUUAACCaceBmcNaaJU4XmeMfJW+8w3JyQtoGoBoCNwAAAHxAeRQAAAju3PBN2FBL2IFtGcYwBmtMAOogcAMAAMCaIMVZ4HR+ugGAKi0mb7pXpj1hQy1hB/aqeeBmHMcBgFK85R4AAAAAQXnoEAAAKM54/TIO31jgxLH4JYiZDQKAFQI3AAAALFCMBgAASrcYvhmncObrnbBdZMIO7BT3+/ukNVFBg9+uyk8KoGWOlAIAAGBKERAAAKjVyplTYUMtYQd2nfoeAin9KwLAnA43AAAAfK2+miYAAMDY+plTTYVaInu8qw4FAyAygRsAAAB+RSkTAABoyiR8E3P503ISaP1TCPslW1TQUAHYyJFSAAAALMRr5l3WrR+hMtVswwAAZOEwqew8KAJAXjrcAAAAtG6xRjlP3ihlAgAAPEjbRHC/v0+eFbFuBSAlgRsAAICmfViNlbwBAAAYGy+OLIvyiv/+NxWBAmiNI6UAAAAatTs347QpAACgcQmWRdrbnCLvEyO+IgB10+EGAACgRUdqjnreAAAAjVtZFnVnrIykba7jjQLgLDrcAAAANOf08qKeNwAAQOPmy6LuwMpI4OY6nhgB4CwCNwAAAA25urAoeQMFsSUDAHCRg+EbaZsE+v42b1PkDQTgJQI3AAAArUhZQ5S8gfjsygAAXG0xedOtzsGkbdKbL5bHcRwAeEbgBgAAoAm5KrCSNxCWjRkAgJS2tL3ZN0MzrzvdwedVfEUAGiFwAwAAULkgzbElbwAAAB6ehW+0t4lj8sa+9D77ogA0QuAGAACgZkHSNmOSNwAAAA8H10eCHclsX1z7ogC0Q+AGAACgTgGjNhOSNwAAAIO+v0nbBDf+GsVfdANwtbfcAwAAAOB8RRT+5mXKIoYN1bBDAwAQiolZfOtfo1cjUwCUTocbAACA2pS7ia7nDaRU7rUCAABzuYA8QwLQGh1uAAAA6lF6dW+x502hnwsAAMBFpG1iut/fJ4+RlL5IB2CdDjcAAACVqLKQJ3ADAABAoapcpwMwELgBAACogQccAQAAyEu+5EPeog+pbwAFcaQUAABA2VTrAAAACMVCdTv5kjHvBlAWHW4AAAAKpogJ7KaWDQDARYa16piZ5yLr+jGLFKAsAjcAAAClUocCjnANAQDgaovJm84sdKbvb8N7IoIDUApHSgEAAJRH9Q0AAID4xovWcfjGqnZi/X0Yx3EAiEOHGwAAgMKoSwIAAFA0Z069RB0AICaBGwAAgJI4AgYAAIBqSN5sNKkGVFYcqOzTAdohcAMAAFAGD7QBAABQMeGb7SorEQjcAIUSuAEAAChAZaU0IAJFbQAAYpokb0xZn+n726TnTVfg22VhApTrLfcAAAAAWFNuyQwAAAB2GK9/F9ve8LBeKBjHcSIrYpAAiwRuAAAA4pK2AQAAoGWWwxstvlGaxwBcypFSAAAAQamLAQAAALtNCgue6gE4lw43AAAA4SiBAQAAAAcFryp40AgonQ43AAAAsUjbAOn1/c01BwAAWpOxBCFtA1RAhxsAAIBA1JuAZBbby7v+AABAy6wLALYTuAEAAAhBYxsgo/v9fbgKPaizAwBA9Z5N+BO0wLTWACogcAMAAJCftA2Q3eL1x1FTAADQlMf8fxzHV7IAeEbgBgAAIDNtJIAs1i87z+rsLlYAAFC99Wm/XD7AQ+9qCAAAkIunxICCuGQBAADd4aWBKD9QjU+5BwAAANAoW9dAWe7398n1qu9v4xY4AABAC+Z1jO1LA2kboCY63AAAAKQmagNEcLzS7WoGAAB0m5cG0jZAZd5yDwAAAKAt9qeBajyuY+MnWV3iAACgQRuXBpYJQGUcKQUAAJDO8CyXGhNQDRc0AACg29beBqAmjpQCAABIQdcHoE2ufgAAQGdpANRIhxsAAIDLKSoBAAAALZuXRPr+9viVZTwAx+lwAwAAcK3FypG1GNCs4XC93AMBAABymj+e1Pc3KwWgIG+5BwAAAFCtxcrRs/8FkJjgCwAAkNHiYsQ65UPeIohD4AYAAOASi5EayRsAlzsAAGDR/f4+6RMsXAJE5kgpAACA822vB80PnLJMA9JQuQYAAILznNKEdRyEInADAABwpt2VIMkbAAAAgLm+v817BiubANkJ3AAAAJzmlKKP5A0AAADAonntZRzHAUhJ4AYAAOAcpzf1lbwBAAAAWKfnDZCLwA0AAMBRV1d2JG+A052eEQQAAMhlssCpcr1T5ScFpXvLPQAAAICyJXiOan5OuSILAAAAwMNihcRRU8DVBG4AAAB2St+yeJK80TMZAAAAYOJRJxk3DC69hOLJK4jJkVIAAAB7RKjUOGoKAAAA4EPzMo4IC3CcwA0AAMDLohVlJG8AAAAAtovwJBVQOoEbAACAFwQvx0jeAAAAAGzU97dJz5tOLQXYTOAGAABgq4IqL5I3wLponboAAADyWjx2KvuiydoNInvLPQAAAIAylFXgmD+eVVBaCAAAACCxxYJJWeUgIDGBGwAAgA8UHVV5lrwp8XMBAAAASOZ+f5+0EE5cVFHDgeAcKQUAALCm6LTNIsUaAAAAgB3qKxMBRwjcAAAAPCWbAgAAAMBY39/mHYWVj6BBn3IPAAAAIKK+v0nbAAAAADCxXiyanEIFVEyHGwAAgCkPJwHVkykEAAC4willJUs2KMJb7gEAAAAEImoDAAAAwG73+/ukyc2r5SZpGyiFwA0AAMCvSNsAAAAAcJDKEjTCkVIAAABd5+EhAAAAAJLw0BfUQYcbAACgdWocAAAAAGTkSTAokQ43AABA06RtAAAAAMhLheo6wkxcR4cbAACgXdbbQLNcAAEAAOJ4rM6G2E0nggMlELgBAABapGYBAAAAQCjrdaq+vylk7eBN4zoCNwAAQEj12IoAABl/SURBVHOkbQAAAACIbLFspVkphNL7aQQAAJqiMAEAAABAiSZ1LWUuyEvgBgAAaIXGNgAAAABUQ7FrnUASV3OkFAAA0AQFCAAAAABq8ihzDVWvTgVsRNqGBD7lHgAAAMDlhgW2NTbAQ9/fxjVZAAAACrVe77L0g+vocAMAANTMYz0AAAAANGKxAtZmr5fWPl+y0OEGAAColrQNAAAAAC2bl8UeHU91voHjdLgBAAAqJGoDsM7lEQAAoBEWgHCR3k8XAABQGWkbAAAAANiosmJam0dokYUONwAAQFWsqAEAAADgCBU22EKHGwAAoBKVPYsDcCnFUwAAAJ4pt85mtUtKOtwAAAA1KLcKAAAAAAChPCpsQ8GtK6f4Fnx4VOZT7gEAAAAcNTy5YkUNAAAAAKdYL7WN4zjQJkdKAQAABSvl2RoAAAAAqIm6HOhwAwAAlMqqHgAAAACymFfk+v6Wse1N3o9Om95yDwAAAGCP4Rip3AMBAAAAgBYtlub6/qZkRyMEbgAAgMJ4VAXgOLFFAAAAzvVYY45rd8kaVFvkkoXADQAAUJJJ2sapUgAAAAAQx3qZ7qL+N2qDZCFwAwAAlGExWzP8oadYAAAAACCUZ2dOPftfUJbe9zEAABDfh51sJp1vrHQAAAAAIKBJ4EYHa8olcAMAAES3/amXSexm478CAAAAALI4HrjRModcBG4AAIC4dq+3JW8AAAAAoEQvlQSlbcjoLfcAAAAAlh15umXek1ZzWoAxFUkAAABKYQ1LTDrcAAAAEZ2+itbzBmBMsRIAAIBSeJSOmHS4AQAAYrlo/fys541VOgAAAABE9qjgjR+oE8EhAh1uAACAQFIulSc9byyOAAAAAKAI8ypi39/U987iScWNBG4AAIAosizkHDUFAAAAAKXT8+Ys0jbbCdwAAAD5RVgPS94AzVJKAwAAoAKT5a3VLlcTuAEAADKLkLYZk7wBWjAuO0a7DgMAAMBxVrtc7S33AAAAgHbFXPROHoLpPA0D1G4Su+lc9wAAACjfs9VuZ8HLST7lHgAAANCo+Ovb+/398evx276/PX7lHRXAReZXY1c8AAAASrdee7TynVD/fIkjpQAAgAxK7J3gqCmgNX1/mzT9ct0DAACgJvGfCUzJ2v9VAjcAAHC58YYlFSxiJW+ABlVw9QYAAIC5Scqk5fWvwM2rBG4AAOBak3BG4zPwytar4y9uHZ8RwLp5z5vOBRAAAICKzFe7HqfkGYEbAAC4ynhtpidKV/UTElbdQHGOX5MFbgAAAGiB9S/PCNwAAMAlni3D2mx4Y1EKEM0VIUhXewAAAKq0eOyUxS9vuQcAAAAVWllxTVZlLexNtvA5AgAAAAC1Wixs1tT0WoRoHx1uAADgTK+GS6o/aspSDaBlMpcAAADUahy4KX39q4q7jw43AABwmh3LqvmSrPS12aCaTwQAAAAAYGK97FlT/xue0eEGAABOcGK4ZNLzptAZu7QNAIs8MwcAAEALFEhboMMNAAAcde7aadLzpsSFmc1UgPhcqwEAAOA69/v75NFKK/H66HADAACHXL1MmqzKLv1Yx5UYDwJokzIfAAAApKR2Wh8dbgAAYKc0C6RJw5su8BapFSMAAAAAwKJH1XT8gGWEgmrYanMRBG4AAGCP9GuhyEdNhRoMAFu4YgMAAEB66+tx8ZeyOFIKAABeEyRcEueoqSBvCAAAAABA0RLXWuV7DhK4AQCAFwQMl+RN3liSAQAAAACcqO9vk37nnRpsSAI3kMF8V2zOzyYABBQ8XDKZY1w9Tis9gKIFv6kBAAAA3VIZdhzHIa+33AMAAIAybInM5jV56OHSQIy0DQAAAADA1RYLsJ6iCUKHG4jFxREAwkrcP+a4646aMmMBqICLOQAAABRqsqjft8ZXGThO4AYCcVEDgCK0nLzR2AYAAAAAIJQdZVsb06cQuIEoXNQAoCzX9Y+5znjMO0YrbQMAAAAAEFPf3yY9b7rntVx706cQuIEQXNEAoFxlJW92h2ZMVwAAAAAAijCvA4/jOJxF4Abys30FAHWIf9TUvrSNxjYAVbIUBQAAgHYo817hLfcAoHVKnABQjUm7zmgLmH2zjmifBQAAAAAAr7rf3yePjKr9HidwAzlJ2wBAHCeuLh6vMLxg9nWLxjYAAAAAAI1T6T2dI6UgG2kbAIhjEu1/OOs2nfeoKWkbAAAAAAA+pCz8KoEbyEPaBgCCmC8hrsvHJE7e7F4dmagAAAAAALTmWbVcrfgZgRvIwIUJAIJYj6RclI+Zd9O5YlagsQ0AAAAAAEeoGK8TuIEMFg+tmPCzCQBX2xiBvS4fc3UrnX2Nbc4dCQBheRQEAAAA2KLvb/MO8UoKXde95R4AAACk9tKSYL6QOGuHcvLKpyxUHCMFAAAAAMCJ1uvG4zhOa3S4AQCgLcdzLWGPmnKMFADbiVoCAAAAx7VcYRa4AQCgFefO+5MdNbXxlR0jBQAAAABAepPqdDsP+QjcAADQhOuSJRc1vNn+ygePkdrxDwEAAAAAYFE7lWeBGwAA6pcmUJ8leXPwGKkJqwMAAAAAAI7r+9uk501XXQla4AYAgJqln8enPGpq3+vP35PrxgxAWO20dwYAAADyWixKV1CUELgBAKBaeVPzaRre7EvbfHg61b4XB6AgAjcAAABALnX0vBG4gfz6/ntd193vv8g9EACoR6jJepAUy0vvSZAxA3AdgRsAAAAgo0lpIlRVfyOBG8hP4AYAzhVzXp732KZ974mjpgAAAAAASCBmYX+dwA3kJ3ADACeK/7x+4uYxp6xSNLwBAAAAACCl+BGct9wDAACAtkw6ZF66ZjjrxVOOGQAAAAAA5qI9cKvDDeSnww0AnKi4XizXHdt03drDUVMAFYhWogIAAABYF+1ZUIEbyE/gBgBOV1zspjs1xZJs1SF5A1AugRsAAACgRH1/mzRl7zKVOBwpBQBAhUo8Amm+Qtgn5Sc7H7PtWwAAAAAArrNefx7Hca6mww3kp8MNAFytuEYsu2Mr2fMuJfYWAgAAAACgDikfSRW4gfwEbgAgmSLiIPvWA6G6+BSXcAIAAAAAoA6TB1Ove05V4AbyE7gBgPRiJm92h2ZCpW3GYr7PAAAAAAA04rr6ucAN5CdwAwDbnRtFD9WI5WDaJvjEXvIGIJoibh8AAAAAp+j726TnTXe4MPJ2dFAAAJDcWXuE8+l1rt3HfR83bGObuccIJ+9zV8LIAQAAAAAo3XotehzH2ajvbzrcQH463ADAq65rl5K+EUt9x0htEaq3EECbdLgBAAAAeHi13v74+wI3kJ/ADQDsc11oI1kcZF9opuiozYSjpgAAAAAAyG7ybNJ6HV7gBqIQuAGAgwpteFP9MVIvkbwBAAAAACCILaV4gRvIT+AGAM5SSvLm4DFSFc/hHTUFAAAAAEBA88K+wA3kJ3ADAOdKFrvZ9+KOkdpCwxuAq1Uf4gQAAAA4kcANRCRwAwAXCdjwxjFSr5K8AbiIwA0AAADAEQI3kJ/ADQBc6tJTirbHQRwjdYSjpgBO5/4CAAAAcITADeQncAMAaWQ8asoxUmeRvAEAAAAAIAKBG8hP4AYAEkt51NTBxjY7/mEjHDUFAAAAAEBGAjeQn8ANAGQR5KiplX9urr6F5A0AAAAAAOkJ3EB+AjcAkNelDW80tknDUVMArxLuBAAAADhC4AbyE7gBgCCy90qRtjku+xcRoBQCNwAAAABHvOUeAAAARPHYdBwSG4njLzY+TzG8gY/3U4YJAAAAAIAr6HAD+elwAwAxJeuVIhRyHUdNAQAAAABwBYEbyE/gBgCCuzR5I22ThuQNwAo3IwAAAIBXOVIKAAA+sHjU1PEtSbubKU2Omuqc4QUAAAAAwAE63EB+OtwAQFlOaXgjbZNdsiPDAGJazx26TwEAAACs0+EGAABeM2l4s4PeKhEsNi7qfF0AAAAAANhA4AYAAPbQ2KYOjpoCWDS/DLqFAQAAAIwJ3AAAQCK2KiObJG98sYDqub4BAAAAHNErr0B2ff+9ruvu91/kHggAcCF9U8oyOTLMFw5gTjYRAAAAaJkONwAAcC37kSWaHzUFAAAAAAADgRsAALiQtE3pfOGAWh1vvTb/t+56AAAAQDsEbgAA4CqOkQIAAAAAgCoJ3AAAwPk84g9Ag571vHE3BAAAAOrzKfcAAACgNtI2AMR3v78nu08Nd0YAAACAauhwQ9n6/mYfCwCIQ9QGAMYeN8Rx4EbPGwAAAKAOOtwQ2vozcJ6QAwBCkbYBgEXujAAAAEB9dLghumc9bDwSBwCEYnICQFly3bncKwEAAIA66HBDaPPW0w82tACAOPr+ZnICAAAAAABNEbghOse9AwCROUYKAAAAAAAa1NsYoAhDyKbKtE3ff6/ruvv9F7kHAgC8psqZCQAAAAAA8CEdbijDuM+NPS0AIDvHSAEAAAAAQMsEbgAA4DWTwy7HvwUAAAAAAFogcEMZxk+Q29MCADIapiWPX8MfSt4AUBZ3LgAAAIAj3nIPAD42Ttvc7++PmuDa8Q1DxdARDwDAeYZdyfE8ZBIIXvw7AAAAAABAZXS4Ibpx2ubhhT43/e1XvwAAjllP0kwa3nTaBgAAAAAAQNV6j94S2Txts+V/jf7S0i5XvO/5vv9e13X3+y9yDwQAWLZp4rH0TwZm3QAAAAAAUBOBG0JbPzrqha2vZ8+Xx/j+F7gBgLAOHhEldgMAAAAAAFUSuKFs64mcJ/8mXPhG4AYAYjqYtll8qbNeEAAAAAAAyEjghrbFCN8I3ABANCdGbRZfdmA2DkAuOw5MBAAAAGDwlnsAkNW4sDjeABv/t+IjADTmorTN+AWHD2GzEwAAAAAASiRwA3/mw/CNnTAAaECaBMwkeXNdxAcAAAAAALiCI6XgI4vHTp18uoQjpQAgv4ypl8lRU6boAAAAAAAQnMANbLaYvOlOCN8I3ABAdkF6zEjeAAAAAABAEQRuYJdTwzcCNwCQV5pjpLbrZzONOGMDAAAAAAA6gRs4weHwjcANAOQSpLHNMxreAHCdaHlTAAAAgLK85R4AlG9cnRzvio3/WwUTAOIJnrbpRgN7DDX+gAEAAAAAoBECN3CqD8M3tscAIIayHut/jHMI3EjeAAAAAABAXo6UgiQWj536+pl1R0oBQDoVpFUcNQUAAAAAAHkJ3EBaS8mbvrt3AjcAkEQFaZsxyRsAAAAAAMhC4AbyGU6FELgBgOtVFrUZG8du6vvsAAAAAAAgIIEbyKzvbl3X3Ts/iQBwoYrTNmN9f6v7EwTgRI+boxsHAAAAwD5vuQcA7XpEbTppGwC4WDsbii18jgAAAAAAEIHADeQhbQMACTTS2AYAAAAAAEjMkVKQmqgNAKQhbQMAAAAAAFxEhxtIStoGANJo5xgpAAAAAAAgPYEbSETUBgDS0NgGAAAAAAC42qfcA4AmSNsAQBrSNgCwUd/fhvsmAAAAAK/S4QYu90jbiNoAwNUcIwUA/7+9e0lSWwmiAKoi2IX2v7ReBx7oPVkWNKBf1u+c8MSOsClGKnde3QQAAAAghsANXEixDQDEUGwDAAAAAABESmYScBFpGwCIIW0DAAAAAAAE03AD5xO1AYAYojYAAAAAAEAWt9wHgNZI2wBADGkbAAAAAAAgFw03cBpRGwAIM6VtRG0AYDcPUwAAAIAjBG7gHNI2ABBDsQ0AAAAAAJCdwA2cYErbiNoAwNWkbQAAAAAAgBIkswo4QrENAISx+QIAAAAAACiEhhvYT9oGAGIotgEAAAAAAIoicAN7iNoAQBhpGwAAAAAAoDQCN7CZtA0AhLFGCgAu4iELAAAAcITADWwgagMAYRTbAAAAAAAAxbrlPgBUQ9oGAMJI2wAAAAAAACVLZhjwkagNAESy4QIAAAAAACiclVLwgbQNAIRRbAMAAAAAAFTBSilYm0d9w/9pm8fwI20DAFeTtgEAAAAAAGqh4YbupDS+GePNoz7FNgAQRtQGAOLZ4QgAAABwhIYberTssHn+8+VPG6VtAOBq0jYAkFdK4/Qr90EAAAAAaiJwQ3emYd7zTxJXaRtrpAAgwPz8lbYBAAAAAAAqksw26NMqXqNJGwCCKbYBgGJ5TAMAAAB8pOGGTi17bqRtACCYMR4AAAAAAFA1DTd0zbQPAOKJugJAdTy+AQAAAFY03ICfGAJAkJRG4zoAKMT8XN70Vy46DAAAAEB1BG7ol4EfAERSLAcA9Xo8flZP8B15HQAAAICWCNzQKWkbAIi0HMhN8zkjOgCozvN/oj3QAQAAgG4lgQM6JG0DAGGei21WkzlPZACoV0rj6hHvyQ4AAAB0QuCG7vgJIACEeb9GSvIGAFpifSQAAADQFYEburN8/Q4AuMj3IzexGwBoyarzxpMdAAAAaJXADQAAJ9v3grvkDQBECuh/1XkDAAAANOyW+wAAADRlnt5tHa2t/kpK4yqCAwDU5fky4OEOAAAANEPDDQAA5zj3LXaFNwBwqYCGm0I+FAAAAOAKAjcAAJzgop0RYjcA0JiURg90AAAAoAECNwAAHBXwtrrkDQAAAAAAUA6BGwAA9ruo2Objx0V+KAAAAAAAwIrADQAAOwWnbV5+dK4DAEDtAgrqAAAAABp2z30AAACqlHdKN33uHLvJGP0BAAAAAAA6JHADAMA25aRb5gOskjfZDwYAAAAAALTNSikAADYoJ23zklVTAAAAAABAAIEbAAC+VUt/jNgNAAAAAABwKYEbAAA+K7zY5jeSNwAAAAAAwBUEbgAA+KDStM1M7AYAntVSXAcAAABQpnvuAwAAUK7aozaT+fDT12njSwEAAAAAABndch8AAIBCtRdMeTx+lt8lpXFVfgMAAAAAAPANK6UAAHihhzUT7SWKAAAAAACAGFZKAQDwj35iKNMXVHIDAAAAAABspeEGAIC/+knbAAAAAAAA7KbhBgCA//SwRgoAGDz0AQAAAA4TuAEAQLENAAAAAADABrfcBwAAIDNpGwAAAAAAgE2SsQoAQM9slAAAAAAAANjKSikAgE4ptgEAAAAAANjHSikAgB5J2wAAAAAAAOym4QYAoC+iNgCAnZIAAAAAB2m4AQDoiLQNAAAAAADAcRpuAAB64V12AAAAAACAUyQTFwCA5im2AQAAAAAAOJGVUgAAjZO2AQAAAAAAOJeVUgAALbNGCgAAAAAA4HQCNwAAbVJsAwD8RiQXAAAA4CArpQAAGiRtAwAAAAAAcB0NNwAArfHOOgAAAAAAwKWSSQwAQDMU2wAAAAAAAASwUgoAoBHSNgAAAAAAADGslAIAaIE1UgAAAAAAAGEEbgAA6qbYBgDYSlQXAAAA4CArpQAAKiZtAwAAAAAAEE/DDQBAlURtAAAAAAAAckkmNAAA1ZG2AQAAAAAAyEjDDQBAZaa0jagNAAAAAABALgI3AADVUGwDAAAAAABQglvuAwAA8BVpGwDgLCmN89UCAAAAgB003AAAVMAaKQAAAAAAgHII3AAAFE2xDQAAAAAAQGmSyQ0AQLGkbQAAAAAAAAqk4QYAoFDWSAEAAAAAAJRJ4AYAoDiKbQAAAAAAAEp2y30AAAD+IW0DAFwtpXG+cgAAAACwg8ANAEApVqMvYzAAAAAAAIAyWSkFAFCEVbHN9FttNwAAAAAAAAVKhjcAANlNwZrni9mq5MbNDQA43W/3EAAAAADeELgBAMjpyw6bZfLG/Q0AOJFGPQAAAIAdBG4AALLZOt9SeAMAXCSlcb5a6LwBAAAA+EjgBgAgj92jLLEbAOCg9/cQnTcAAAAAH91zHwAAoDsHh1irt8+NxACAc02XimXGd9l/AwAAAMCg4QYAINjp+RiFNwDAVlub9gR8AQAAAFYEbgAA4uxeI/X9Pz5xxwMAzrW6xui8AQAAADoncAMAECHsvXCFNwBAAJ03AAAAQOcEbgAALhc/kRK7AQCudml1HwAAAEDhBG4AAK6VdxYleQMAPLvifqLzBgAAAOjKPfcBAACaVcLYafro+STeRAcAAAAAADhOww0AwCVKSNs8U3gDAAxRGdwyr0MAAAAApxC4AQA4WfmzJbEbACBA+ZciAAAAgN0EbgAAzlTXYGmZvKniwABA1VIaXTkAAACANtxzHwAAoB0x2xlONB11OnZdUSEAAAAAAICMNNwAAJyggbSKPVMA0I/qUsIAAAAApdFwAwBwVANpm2FxeIU3AAAAAAAA7wncAAAc0t4L4ss9U0OLXxAAAAAAAOAgK6UAAHbqpANmuWqq7W8KAAAAAADwpVvuAwAAVKmTtM0wDI/HT/PfEQAAAAAAYBMNNwAAm9myBAAAAAAA0LN77gMAANSkn2IbAKBh0sMAAAAAB1kpBQDwLWkbAAAAAAAABg03AADfELUBAAAAAABglgyNAADek7YBAAAAAABgScMNAMA7U9pG1AYAAAAAAICZwA0AwGuKbQAAAAAAAHjplvsAAAAlkrYBABqW0jjfdgAAAADYQcMNAMCaNVIAAAAAAAC8IXADAPCXYhsAAAAAAAA+SoZJAAATaRsAAAAAAAC+oeEGAGAYrJECAAAAAADgawI3AEDvFNsAAAAAAACwyS33AQAAcpK2AQA6lNI434IAAAAA2EHDDQDQKVEbAAAAAAAA9tFwAwD0SNoGAAAAAACA3ZIhEwDQmylt4xYEAAAAAADAPlZKAQAdUWwDAAAAAADAcVZKAQC9kLYBAAAAAADgFBpuAIAuWCMFADBzNQIAAAA46A+butuT4yBrhwAAAABJRU5ErkJggg==;" vertex="1" parent="1">
          <mxGeometry x="40" y="2800" width="3024" height="1274" as="geometry" />
        </mxCell>
        <mxCell id="0Z_29NWZbNLmMxx830fi-6" value="" style="endArrow=baseDash;startArrow=baseDash;html=1;rounded=0;startFill=0;endFill=0;strokeWidth=4;entryX=0.569;entryY=0.565;entryDx=0;entryDy=0;entryPerimeter=0;exitX=0.569;exitY=0.479;exitDx=0;exitDy=0;exitPerimeter=0;startSize=25;endSize=25;strokeColor=light-dark(#0432ff, #ededed);" edge="1" parent="1">
          <mxGeometry width="50" height="50" relative="1" as="geometry">
            <mxPoint x="1720.6559999999995" y="611.246" as="sourcePoint" />
            <mxPoint x="1720.6559999999995" y="720.81" as="targetPoint" />
          </mxGeometry>
        </mxCell>
        <mxCell id="0Z_29NWZbNLmMxx830fi-7" value="" style="endArrow=baseDash;startArrow=baseDash;html=1;rounded=0;startFill=0;endFill=0;strokeWidth=4;entryX=0.539;entryY=0.612;entryDx=0;entryDy=0;entryPerimeter=0;startSize=25;endSize=25;strokeColor=light-dark(#0432ff, #ededed);" edge="1" parent="1">
          <mxGeometry width="50" height="50" relative="1" as="geometry">
            <mxPoint x="1630" y="721" as="sourcePoint" />
            <mxPoint x="1629.9360000000001" y="780.688" as="targetPoint" />
          </mxGeometry>
        </mxCell>
        <mxCell id="0Z_29NWZbNLmMxx830fi-8" value="" style="endArrow=baseDash;startArrow=baseDash;html=1;rounded=0;startFill=0;endFill=0;strokeWidth=4;entryX=0.519;entryY=0.542;entryDx=0;entryDy=0;entryPerimeter=0;exitX=0.519;exitY=0.51;exitDx=0;exitDy=0;exitPerimeter=0;startSize=25;endSize=25;strokeColor=light-dark(#0432ff, #ededed);" edge="1" parent="1" target="0Z_29NWZbNLmMxx830fi-1">
          <mxGeometry width="50" height="50" relative="1" as="geometry">
            <mxPoint x="1569.456" y="642.7399999999999" as="sourcePoint" />
            <mxPoint x="1569.456" y="683.5079999999999" as="targetPoint" />
          </mxGeometry>
        </mxCell>
        <mxCell id="0Z_29NWZbNLmMxx830fi-9" value="" style="endArrow=baseDash;startArrow=baseDash;html=1;rounded=0;startFill=0;endFill=0;strokeWidth=4;entryX=0.364;entryY=0.495;entryDx=0;entryDy=0;entryPerimeter=0;exitX=0.605;exitY=0.495;exitDx=0;exitDy=0;exitPerimeter=0;startSize=25;endSize=25;strokeColor=light-dark(#0432ff, #ededed);" edge="1" parent="1" source="0Z_29NWZbNLmMxx830fi-2" target="0Z_29NWZbNLmMxx830fi-2">
          <mxGeometry width="50" height="50" relative="1" as="geometry">
            <mxPoint x="1240" y="1240" as="sourcePoint" />
            <mxPoint x="1240.0639999999999" y="1299.998" as="targetPoint" />
          </mxGeometry>
        </mxCell>
        <mxCell id="0Z_29NWZbNLmMxx830fi-10" value="" style="endArrow=baseDash;startArrow=baseDash;html=1;rounded=0;startFill=0;endFill=0;strokeWidth=4;entryX=0.364;entryY=0.557;entryDx=0;entryDy=0;entryPerimeter=0;exitX=0.364;exitY=0.447;exitDx=0;exitDy=0;exitPerimeter=0;startSize=25;endSize=25;strokeColor=light-dark(#0432ff, #ededed);" edge="1" parent="1">
          <mxGeometry width="50" height="50" relative="1" as="geometry">
            <mxPoint x="1150.736" y="1928.4779999999996" as="sourcePoint" />
            <mxPoint x="1150.736" y="2068.6180000000004" as="targetPoint" />
          </mxGeometry>
        </mxCell>
        <mxCell id="0Z_29NWZbNLmMxx830fi-11" value="" style="endArrow=baseDash;startArrow=baseDash;html=1;rounded=0;startFill=0;endFill=0;strokeWidth=4;startSize=25;endSize=25;strokeColor=light-dark(#0432ff, #ededed);" edge="1" parent="1">
          <mxGeometry width="50" height="50" relative="1" as="geometry">
            <mxPoint x="1890" y="2050" as="sourcePoint" />
            <mxPoint x="1930" y="2051" as="targetPoint" />
          </mxGeometry>
        </mxCell>
        <mxCell id="0Z_29NWZbNLmMxx830fi-12" value="" style="endArrow=baseDash;startArrow=baseDash;html=1;rounded=0;startFill=0;endFill=0;strokeWidth=4;exitX=0.407;exitY=0.432;exitDx=0;exitDy=0;exitPerimeter=0;startSize=25;endSize=25;strokeColor=light-dark(#0432ff, #ededed);" edge="1" parent="1" source="0Z_29NWZbNLmMxx830fi-3">
          <mxGeometry width="50" height="50" relative="1" as="geometry">
            <mxPoint x="1281.84" y="3328.176" as="sourcePoint" />
            <mxPoint x="1243" y="3350" as="targetPoint" />
          </mxGeometry>
        </mxCell>
        <mxCell id="0Z_29NWZbNLmMxx830fi-15" value="" style="endArrow=baseDash;startArrow=baseDash;html=1;rounded=0;startFill=0;endFill=0;strokeWidth=4;startSize=25;endSize=25;strokeColor=light-dark(#0432ff, #ededed);entryX=0.618;entryY=0.573;entryDx=0;entryDy=0;entryPerimeter=0;" edge="1" parent="1" target="0Z_29NWZbNLmMxx830fi-3">
          <mxGeometry width="50" height="50" relative="1" as="geometry">
            <mxPoint x="1951" y="3520" as="sourcePoint" />
            <mxPoint x="1910" y="3530" as="targetPoint" />
          </mxGeometry>
        </mxCell>
        <mxCell id="0Z_29NWZbNLmMxx830fi-17" value="" style="endArrow=baseDash;startArrow=baseDash;html=1;rounded=0;startFill=0;endFill=0;strokeWidth=4;entryX=0.39;entryY=0.542;entryDx=0;entryDy=0;entryPerimeter=0;exitX=0.456;exitY=0.542;exitDx=0;exitDy=0;exitPerimeter=0;startSize=25;endSize=25;strokeColor=light-dark(#0432ff, #ededed);" edge="1" parent="1">
          <mxGeometry width="50" height="50" relative="1" as="geometry">
            <mxPoint x="1374.584" y="579.9980000000003" as="sourcePoint" />
            <mxPoint x="1174.9999999999998" y="579.9980000000003" as="targetPoint" />
          </mxGeometry>
        </mxCell>
        <mxCell id="0Z_29NWZbNLmMxx830fi-18" value="&lt;font style=&quot;font-size: 28px;&quot;&gt;a&lt;/font&gt;" style="text;html=1;align=center;verticalAlign=middle;whiteSpace=wrap;rounded=0;" vertex="1" parent="1">
          <mxGeometry x="1210" y="535" width="60" height="30" as="geometry" />
        </mxCell>
        <mxCell id="0Z_29NWZbNLmMxx830fi-19" value="&lt;font style=&quot;font-size: 28px;&quot;&gt;b&lt;/font&gt;" style="text;html=1;align=center;verticalAlign=middle;whiteSpace=wrap;rounded=0;" vertex="1" parent="1">
          <mxGeometry x="1500" y="650" width="60" height="30" as="geometry" />
        </mxCell>
        <mxCell id="0Z_29NWZbNLmMxx830fi-20" value="&lt;font style=&quot;font-size: 28px;&quot;&gt;c&lt;/font&gt;" style="text;html=1;align=center;verticalAlign=middle;whiteSpace=wrap;rounded=0;" vertex="1" parent="1">
          <mxGeometry x="1710" y="650" width="60" height="30" as="geometry" />
        </mxCell>
        <mxCell id="0Z_29NWZbNLmMxx830fi-21" value="&lt;font style=&quot;font-size: 28px;&quot;&gt;d&lt;/font&gt;" style="text;html=1;align=center;verticalAlign=middle;whiteSpace=wrap;rounded=0;" vertex="1" parent="1">
          <mxGeometry x="1620" y="740" width="60" height="30" as="geometry" />
        </mxCell>
        <mxCell id="0Z_29NWZbNLmMxx830fi-22" value="&lt;font style=&quot;font-size: 28px;&quot;&gt;f&lt;/font&gt;" style="text;html=1;align=center;verticalAlign=middle;whiteSpace=wrap;rounded=0;" vertex="1" parent="1">
          <mxGeometry x="1275" y="1960" width="60" height="30" as="geometry" />
        </mxCell>
        <mxCell id="0Z_29NWZbNLmMxx830fi-23" value="&lt;font style=&quot;font-size: 28px;&quot;&gt;e&lt;/font&gt;" style="text;html=1;align=center;verticalAlign=middle;whiteSpace=wrap;rounded=0;" vertex="1" parent="1">
          <mxGeometry x="1150" y="2030" width="60" height="30" as="geometry" />
        </mxCell>
        <mxCell id="0Z_29NWZbNLmMxx830fi-24" value="&lt;font style=&quot;font-size: 28px;&quot;&gt;g&lt;/font&gt;" style="text;html=1;align=center;verticalAlign=middle;whiteSpace=wrap;rounded=0;" vertex="1" parent="1">
          <mxGeometry x="1880" y="2060" width="60" height="30" as="geometry" />
        </mxCell>
        <mxCell id="0Z_29NWZbNLmMxx830fi-25" value="&lt;font style=&quot;font-size: 28px;&quot;&gt;b&lt;/font&gt;" style="text;html=1;align=center;verticalAlign=middle;whiteSpace=wrap;rounded=0;" vertex="1" parent="1">
          <mxGeometry x="1280" y="3330" width="60" height="30" as="geometry" />
        </mxCell>
        <mxCell id="0Z_29NWZbNLmMxx830fi-26" value="&lt;font style=&quot;font-size: 28px;&quot;&gt;h&lt;/font&gt;" style="text;html=1;align=center;verticalAlign=middle;whiteSpace=wrap;rounded=0;" vertex="1" parent="1">
          <mxGeometry x="1950" y="3510" width="60" height="30" as="geometry" />
        </mxCell>
        <mxCell id="0Z_29NWZbNLmMxx830fi-27" value="&lt;h1 style=&quot;margin-top: 0px;&quot;&gt;&lt;font style=&quot;font-size: 56px;&quot;&gt;Dimensions + Variable Names&lt;/font&gt;&lt;/h1&gt;&lt;p&gt;&lt;br&gt;&lt;/p&gt;&lt;p&gt;&lt;font style=&quot;font-size: 36px;&quot;&gt;a) x_offset&lt;/font&gt;&lt;/p&gt;&lt;p&gt;&lt;font style=&quot;font-size: 36px;&quot;&gt;b) screw_radius (set radius, not diameter)&lt;/font&gt;&lt;/p&gt;&lt;p&gt;&lt;font style=&quot;font-size: 36px;&quot;&gt;c) height&lt;/font&gt;&lt;/p&gt;&lt;p&gt;&lt;font style=&quot;font-size: 36px;&quot;&gt;d) y_offset&lt;/font&gt;&lt;/p&gt;&lt;p&gt;&lt;font style=&quot;font-size: 36px;&quot;&gt;e) bracket_depth (note, bracket depth is set to this value + thickness)&lt;/font&gt;&lt;/p&gt;&lt;p&gt;&lt;font style=&quot;font-size: 36px;&quot;&gt;f)width (inside width of the tabs)&lt;/font&gt;&lt;/p&gt;&lt;p&gt;&lt;font style=&quot;font-size: 36px;&quot;&gt;g) thickness (all sides have same thickness)&lt;/font&gt;&lt;/p&gt;&lt;p&gt;&lt;font style=&quot;font-size: 36px;&quot;&gt;h) screw_head_radius (as with b, set radius, not diameter)&lt;/font&gt;&lt;/p&gt;&lt;p&gt;&lt;br&gt;&lt;/p&gt;" style="text;html=1;whiteSpace=wrap;overflow=hidden;rounded=0;" vertex="1" parent="1">
          <mxGeometry x="3130" y="690" width="1200" height="790" as="geometry" />
        </mxCell>
      </root>
    </mxGraphModel>
  </diagram>
</mxfile>
